<?xml version="1.0" encoding="UTF-8"?>
<svg version="1.1" xmlns="http://www.w3.org/2000/svg" width="512" height="512">
<path d="M0 0 C1.01790619 0.00215515 2.03581238 0.0043103 3.08456421 0.00653076 C17.69363523 0.05620146 32.02575853 0.30709809 46.375 3.3125 C47.34985352 3.51117676 48.32470703 3.70985352 49.32910156 3.91455078 C108.89482498 16.37463238 165.24866419 48.2648637 202.375 97.3125 C202.79023926 97.85132812 203.20547852 98.39015625 203.63330078 98.9453125 C228.13415115 130.81517547 244.62642134 167.36831241 252.6875 206.75 C252.83485596 207.46889404 252.98221191 208.18778809 253.1340332 208.9284668 C256.10789088 224.57475609 256.74800362 240.04818046 256.6875 255.9375 C256.68534485 256.95540619 256.6831897 257.97331238 256.68096924 259.02206421 C256.63129854 273.63113523 256.38040191 287.96325853 253.375 302.3125 C253.07698486 303.77478027 253.07698486 303.77478027 252.77294922 305.26660156 C242.52138226 354.27446698 220.18217348 398.27864199 185.375 434.3125 C184.77606934 434.93334473 184.17713867 435.55418945 183.56005859 436.19384766 C175.89623497 444.09500259 168.15501606 451.64016955 159.375 458.3125 C158.83472168 458.72918945 158.29444336 459.14587891 157.73779297 459.57519531 C125.8687531 484.07334707 89.31685217 500.56439938 49.9375 508.625 C49.21860596 508.77235596 48.49971191 508.91971191 47.7590332 509.0715332 C33.08339502 511.86090125 18.55831162 512.66142619 3.64770508 512.62817383 C0.70811513 512.6250221 -2.2304558 512.64854926 -5.16992188 512.67382812 C-18.54306192 512.71848737 -31.43916711 511.51301542 -44.625 509.3125 C-46.33055054 509.03031616 -46.33055054 509.03031616 -48.07055664 508.74243164 C-50.6662622 508.27617402 -53.23774939 507.7574418 -55.8125 507.1875 C-57.20142456 506.88054199 -57.20142456 506.88054199 -58.6184082 506.56738281 C-103.71300222 496.08183329 -144.40193368 473.34639441 -177.625 441.3125 C-178.58889648 440.38945068 -178.58889648 440.38945068 -179.57226562 439.44775391 C-188.74836539 430.62136647 -197.09816554 421.58141996 -204.625 411.3125 C-205.26211914 410.45857666 -205.26211914 410.45857666 -205.91210938 409.58740234 C-212.42768015 400.84658179 -218.26088547 391.80163672 -223.625 382.3125 C-224.0271875 381.60528809 -224.429375 380.89807617 -224.84375 380.16943359 C-237.8691741 357.03404164 -246.61801461 331.86287591 -251.9375 305.875 C-252.08485596 305.15610596 -252.23221191 304.43721191 -252.3840332 303.6965332 C-255.35789088 288.05024391 -255.99800362 272.57681954 -255.9375 256.6875 C-255.93534485 255.66959381 -255.9331897 254.65168762 -255.93096924 253.60293579 C-255.88129854 238.99386477 -255.63040191 224.66174147 -252.625 210.3125 C-252.42632324 209.33764648 -252.22764648 208.36279297 -252.02294922 207.35839844 C-241.90232806 158.9765226 -219.9858123 114.98821731 -185.625 79.3125 C-184.99287598 78.65314453 -184.36075195 77.99378906 -183.70947266 77.31445312 C-174.56502521 67.82619695 -165.26765991 59.0862956 -154.625 51.3125 C-153.47394983 50.45443848 -152.32290823 49.59636549 -151.171875 48.73828125 C-142.98224019 42.70072604 -134.47961724 37.31792698 -125.625 32.3125 C-124.91778809 31.9103125 -124.21057617 31.508125 -123.48193359 31.09375 C-100.34654164 18.0683259 -75.17537591 9.31948539 -49.1875 4 C-48.46860596 3.85264404 -47.74971191 3.70528809 -47.0090332 3.5534668 C-31.36274391 0.57960912 -15.88931954 -0.06050362 0 0 Z " fill="#E93030" transform="translate(255.625,-0.3125)"/>
<path d="M0 0 C1.01790619 0.00215515 2.03581238 0.0043103 3.08456421 0.00653076 C17.69363523 0.05620146 32.02575853 0.30709809 46.375 3.3125 C47.34985352 3.51117676 48.32470703 3.70985352 49.32910156 3.91455078 C108.89482498 16.37463238 165.24866419 48.2648637 202.375 97.3125 C202.79023926 97.85132812 203.20547852 98.39015625 203.63330078 98.9453125 C228.13415115 130.81517547 244.62642134 167.36831241 252.6875 206.75 C252.83485596 207.46889404 252.98221191 208.18778809 253.1340332 208.9284668 C256.10789088 224.57475609 256.74800362 240.04818046 256.6875 255.9375 C256.68534485 256.95540619 256.6831897 257.97331238 256.68096924 259.02206421 C256.63129854 273.63113523 256.38040191 287.96325853 253.375 302.3125 C253.07698486 303.77478027 253.07698486 303.77478027 252.77294922 305.26660156 C242.52138226 354.27446698 220.18217348 398.27864199 185.375 434.3125 C184.77606934 434.93334473 184.17713867 435.55418945 183.56005859 436.19384766 C175.89623497 444.09500259 168.15501606 451.64016955 159.375 458.3125 C158.83472168 458.72918945 158.29444336 459.14587891 157.73779297 459.57519531 C125.8687531 484.07334707 89.31685217 500.56439938 49.9375 508.625 C49.21860596 508.77235596 48.49971191 508.91971191 47.7590332 509.0715332 C33.08339502 511.86090125 18.55831162 512.66142619 3.64770508 512.62817383 C0.70811513 512.6250221 -2.2304558 512.64854926 -5.16992188 512.67382812 C-18.54306192 512.71848737 -31.43916711 511.51301542 -44.625 509.3125 C-46.33055054 509.03031616 -46.33055054 509.03031616 -48.07055664 508.74243164 C-50.6662622 508.27617402 -53.23774939 507.7574418 -55.8125 507.1875 C-57.20142456 506.88054199 -57.20142456 506.88054199 -58.6184082 506.56738281 C-103.71300222 496.08183329 -144.40193368 473.34639441 -177.625 441.3125 C-178.58889648 440.38945068 -178.58889648 440.38945068 -179.57226562 439.44775391 C-188.74836539 430.62136647 -197.09816554 421.58141996 -204.625 411.3125 C-205.26211914 410.45857666 -205.26211914 410.45857666 -205.91210938 409.58740234 C-212.42768015 400.84658179 -218.26088547 391.80163672 -223.625 382.3125 C-224.0271875 381.60528809 -224.429375 380.89807617 -224.84375 380.16943359 C-237.8691741 357.03404164 -246.61801461 331.86287591 -251.9375 305.875 C-252.08485596 305.15610596 -252.23221191 304.43721191 -252.3840332 303.6965332 C-255.35789088 288.05024391 -255.99800362 272.57681954 -255.9375 256.6875 C-255.93534485 255.66959381 -255.9331897 254.65168762 -255.93096924 253.60293579 C-255.88129854 238.99386477 -255.63040191 224.66174147 -252.625 210.3125 C-252.42632324 209.33764648 -252.22764648 208.36279297 -252.02294922 207.35839844 C-241.90232806 158.9765226 -219.9858123 114.98821731 -185.625 79.3125 C-184.99287598 78.65314453 -184.36075195 77.99378906 -183.70947266 77.31445312 C-174.56502521 67.82619695 -165.26765991 59.0862956 -154.625 51.3125 C-153.47394983 50.45443848 -152.32290823 49.59636549 -151.171875 48.73828125 C-142.98224019 42.70072604 -134.47961724 37.31792698 -125.625 32.3125 C-124.91778809 31.9103125 -124.21057617 31.508125 -123.48193359 31.09375 C-100.34654164 18.0683259 -75.17537591 9.31948539 -49.1875 4 C-48.46860596 3.85264404 -47.74971191 3.70528809 -47.0090332 3.5534668 C-31.36274391 0.57960912 -15.88931954 -0.06050362 0 0 Z M-71.14453125 82.21875 C-72.23784822 82.27859699 -72.23784822 82.27859699 -73.35325241 82.33965302 C-102.79874754 84.00636619 -128.19524163 92.9807579 -149.17578125 114.48828125 C-158.75102005 125.52958532 -165.6950402 139.28069721 -169.625 153.3125 C-169.80675781 153.95703125 -169.98851562 154.6015625 -170.17578125 155.265625 C-175.94938012 178.3600205 -174.78612399 203.49586423 -174.79296875 227.07421875 C-174.7953747 229.04932328 -174.79778328 231.02442782 -174.80042917 232.99953204 C-174.80849584 239.19036513 -174.81102058 245.38118374 -174.81030273 251.57202148 C-174.80970335 257.87832657 -174.82024573 264.18454576 -174.8360464 270.49082917 C-174.84928504 275.9777813 -174.85447994 281.46470591 -174.85384732 286.95167381 C-174.85359713 290.19670119 -174.85715641 293.44163664 -174.86702538 296.68665123 C-175.65947845 336.05671409 -175.65947845 336.05671409 -164.625 373.3125 C-164.191875 374.42625 -163.75875 375.54 -163.3125 376.6875 C-158.09560335 387.89416689 -150.42130434 398.71957155 -140.625 406.3125 C-139.625 407.3125 -138.625 408.3125 -137.625 409.3125 C-124.00151086 420.32027922 -107.41401631 426.18775065 -90.3125 429 C-89.2301709 429.17934082 -89.2301709 429.17934082 -88.12597656 429.36230469 C-71.1639563 431.9143749 -53.92301844 431.46054031 -36.82421875 431.4453125 C-34.13491256 431.44598773 -31.44560773 431.4469586 -28.75630188 431.44821167 C-23.1409963 431.45001993 -17.52570395 431.4476634 -11.91040039 431.44287109 C-5.47229977 431.43743909 0.96576912 431.43918889 7.40386897 431.4446975 C12.98491218 431.44927683 18.56594599 431.44985566 24.14699048 431.44725883 C27.45669124 431.44572124 30.76637433 431.44583988 34.0760746 431.44879532 C61.03351323 431.65868722 61.03351323 431.65868722 87.8125 428.9375 C88.64394531 428.80520996 89.47539062 428.67291992 90.33203125 428.53662109 C114.78463263 424.5230808 138.23666668 413.94604006 153.59130859 393.70947266 C167.99054945 373.4592603 172.95740426 351.73551685 174.375 327.3125 C174.41477966 326.65297742 174.45455933 325.99345484 174.49554443 325.31394672 C175.30700446 311.65554273 175.52328602 298.04340508 175.5078125 284.36328125 C175.50848915 282.20973195 175.50946215 280.05618272 175.51071167 277.90263367 C175.51217328 273.41921247 175.5100852 268.9358114 175.50537109 264.45239258 C175.49969221 258.78313995 175.5029511 253.11393489 175.50894356 247.44468403 C175.51260598 243.00440633 175.51138463 238.56413938 175.50881577 234.12386131 C175.50816118 232.03725364 175.50892175 229.9506449 175.51129532 227.86403847 C175.96988329 163.35060941 175.96988329 163.35060941 144.375 109.3125 C143.60542969 108.50683594 142.83585937 107.70117188 142.04296875 106.87109375 C108.67665943 74.18688956 49.90774511 80.963885 7.20849609 81.05175781 C1.62685896 81.0631373 -3.9545871 81.05637918 -9.53621769 81.04487991 C-30.09030122 81.00894083 -50.61749472 81.07077004 -71.14453125 82.21875 Z " fill="#E24A4C" transform="translate(255.625,-0.3125)"/>
<path d="M0 0 C2.17111226 -0.00323194 4.34222432 -0.00659726 6.51333618 -0.01008606 C11.02924095 -0.01601054 15.54512679 -0.01793302 20.06103516 -0.01733398 C24.61185703 -0.01725295 29.16257775 -0.02417204 33.71337891 -0.0378418 C120.96339948 -0.2958701 120.96339948 -0.2958701 146.5390625 11.16796875 C147.17972656 11.45269043 147.82039063 11.73741211 148.48046875 12.03076172 C158.80507828 16.74723107 166.67150212 23.04751258 174.5390625 31.16796875 C175.69728516 32.34746094 175.69728516 32.34746094 176.87890625 33.55078125 C209.45101472 68.43607208 202.72858373 125.08960806 202.72436523 168.91088867 C202.72428417 173.35787032 202.73120922 177.80474852 202.74487305 182.25170898 C202.87321432 224.79798234 202.87321432 224.79798234 201.71484375 245.328125 C201.6108149 247.2680558 201.6108149 247.2680558 201.50468445 249.24717712 C199.88545697 274.01922145 193.54070261 298.40319559 176.5390625 317.16796875 C175.80171875 317.998125 175.064375 318.82828125 174.3046875 319.68359375 C164.55150041 330.07424404 152.63498216 336.77244985 139.5390625 342.16796875 C138.81976563 342.47347656 138.10046875 342.77898437 137.359375 343.09375 C112.95747502 352.35128015 83.21021152 350.32859925 57.65625 350.3359375 C55.66319523 350.33834314 53.67014046 350.34075136 51.677086 350.34339792 C45.42729888 350.35147051 39.17752611 350.35398882 32.92773438 350.35327148 C26.55953441 350.35267236 20.19141959 350.36320818 13.82324111 350.37901515 C8.28535419 350.39225255 2.74749453 350.39744872 -2.79040802 350.39681607 C-6.0667491 350.39656579 -9.34299912 350.40012895 -12.61932755 350.40999413 C-25.49263647 350.44513341 -38.28903062 350.28133026 -51.12841797 349.27856445 C-52.12676226 349.2009875 -53.12510654 349.12341055 -54.15370369 349.04348278 C-74.41977605 347.27258672 -100.70013611 340.56221477 -114.7109375 324.60546875 C-115.2884375 323.80109375 -115.8659375 322.99671875 -116.4609375 322.16796875 C-117.2240625 321.40484375 -117.9871875 320.64171875 -118.7734375 319.85546875 C-125.1300006 313.49890565 -130.10233897 307.04403276 -134.4609375 299.16796875 C-134.99847656 298.25144531 -134.99847656 298.25144531 -135.546875 297.31640625 C-138.00047186 292.86067435 -139.55213421 288.12762463 -141.0859375 283.29296875 C-141.29226807 282.64505371 -141.49859863 281.99713867 -141.71118164 281.32958984 C-144.47249077 272.30012019 -145.84187949 263.21855621 -146.5715332 253.81958008 C-146.65582486 252.73988103 -146.74011652 251.66018198 -146.82696247 250.54776478 C-147.75143989 237.61749628 -147.73081066 224.69874772 -147.69140625 211.7421875 C-147.69020922 209.09055807 -147.68971198 206.43893658 -147.6900177 203.78730774 C-147.68909184 198.27704434 -147.68055421 192.76683723 -147.66674805 187.2565918 C-147.65099503 180.94726427 -147.64575202 174.63799787 -147.6464836 168.32865208 C-147.64710028 162.17184486 -147.64193955 156.0150568 -147.63369179 149.85825539 C-147.63054659 147.27628507 -147.62854762 144.69431305 -147.62779808 142.11234093 C-147.60237437 100.35159563 -147.21101365 60.37276276 -116.8359375 28.10546875 C-85.96079597 -1.92248902 -39.94304795 0.01440569 0 0 Z M-96.953125 52.46875 C-108.91132231 65.33964462 -114.10869011 82.53891847 -115.02856445 99.79223633 C-115.06947614 100.55426015 -115.11038782 101.31628397 -115.15253925 102.10139942 C-115.71067508 113.88656913 -115.62590521 125.69092299 -115.62819457 137.48641562 C-115.62891458 139.57889101 -115.63106638 141.67136018 -115.63369179 143.763834 C-115.6428896 151.1107079 -115.64703365 158.45756389 -115.64624023 165.80444336 C-115.64564069 172.57767063 -115.65618292 179.35081796 -115.6719839 186.12402505 C-115.68519476 192.00325879 -115.69041855 197.88246682 -115.68978482 203.76171523 C-115.68953381 207.24479973 -115.69215907 210.72781292 -115.70296288 214.21088219 C-115.7361064 227.16125183 -115.67577076 240.05223361 -114.5871582 252.96411133 C-114.51167598 253.86785083 -114.43619375 254.77159033 -114.35842419 255.70271587 C-112.47152156 275.31192687 -104.57151418 290.22586206 -89.9609375 303.48046875 C-83.52700034 308.65085618 -76.90202704 311.56105605 -69.0234375 313.85546875 C-68.01543091 314.15916382 -68.01543091 314.15916382 -66.98706055 314.46899414 C-49.28122182 319.29859131 -30.54034736 318.46934229 -12.36240005 318.43661976 C-8.59926333 318.43147636 -4.83613526 318.43627394 -1.07299805 318.43939209 C5.24074076 318.44300787 11.55443244 318.43829599 17.86816406 318.42871094 C25.11751109 318.41783103 32.36674552 318.42135832 39.61608982 318.43236375 C45.8943988 318.44150536 52.17267432 318.44268865 58.45098782 318.43748641 C62.17703019 318.43440412 65.90302005 318.43385206 69.62905884 318.44055939 C113.83655328 318.76472591 113.83655328 318.76472591 151.7578125 298.14453125 C172.82096998 276.35226448 170.86050821 242.97214964 170.80771351 215.00801516 C170.80255186 211.40291354 170.80737272 207.79782067 170.81048584 204.19271851 C170.81409747 198.14310852 170.80940192 192.09354778 170.79980469 186.04394531 C170.78893552 179.11387125 170.79244599 172.18391509 170.8034575 165.2538439 C170.81262318 159.23784989 170.81377068 153.22189073 170.80858016 147.20589197 C170.80550949 143.64183593 170.80491168 140.07783471 170.81165314 136.5137825 C171.78124692 90.64968988 171.78124692 90.64968988 150.91796875 51.3828125 C137.32007011 38.72269997 120.85408166 34.11930585 102.6796875 32.99707031 C101.47145325 32.91736118 100.26321899 32.83765205 99.01837158 32.7555275 C85.78613874 31.95326071 72.56234863 31.87307943 59.30981064 31.89931774 C55.83194476 31.90452574 52.35408721 31.89964751 48.8762207 31.89654541 C43.05434219 31.89295128 37.23251515 31.89758678 31.41064453 31.90722656 C24.74165948 31.91814352 18.07279651 31.91454352 11.40381432 31.90357375 C5.59830388 31.89441815 -0.20717043 31.89325429 -6.01268578 31.89845109 C-9.44577402 31.90152065 -12.87880538 31.90212177 -16.31188965 31.89537811 C-59.95250842 31.51401629 -59.95250842 31.51401629 -96.953125 52.46875 Z " fill="#FEFDFC" transform="translate(228.4609375,80.83203125)"/>
<path d="M0 0 C19.917395 16.25029339 32.26697841 37.02107704 35.4375 62.75 C37.04327057 89.36873518 28.51531077 113.54855391 10.94140625 133.59765625 C-6.35677339 151.87255331 -29.46561395 161.22841611 -54.51098633 162.22290039 C-79.38211009 162.52392479 -101.67180846 151.66276867 -119.3125 134.625 C-136.2036018 117.55085194 -145.17238367 94.2093162 -145.05029297 70.29663086 C-144.18435141 44.33134739 -133.17972389 22.34028753 -114.63671875 4.41796875 C-82.4017325 -24.43830948 -34.3809344 -25.43580634 0 0 Z " fill="#FEFCFC" transform="translate(310.5625,184.25)"/>
<path d="M0 0 C0.79921875 -0.00773438 1.5984375 -0.01546875 2.421875 -0.0234375 C18.42524627 0.02835335 31.99993295 6.64081659 43.80859375 17.203125 C52.4557193 26.0356665 58.81779299 38.87867522 59.625 51.25 C59.74488281 52.84521484 59.74488281 52.84521484 59.8671875 54.47265625 C60.49539197 70.86140232 55.62871472 85.51279675 44.9375 98 C34.60000322 108.84741814 21.1383204 115.57655494 6.15234375 116.453125 C-12.38461544 116.69517452 -26.71909729 111.94718352 -40.375 99.25 C-51.88434076 87.03274344 -57.07579804 71.64628297 -56.65234375 55.046875 C-55.42314013 38.21890433 -48.88328029 24.6626645 -36.375 13.25 C-25.49495724 5.00940344 -13.71837961 -0.13148607 0 0 Z " fill="#EF1015" transform="translate(254.375,197.75)"/>
<path d="M0 0 C5.67449685 3.58883741 9.2161315 7.437457 11.359375 13.8671875 C12.07848305 20.80144374 12.08830751 26.44867194 7.84375 32.18359375 C3.65795663 36.93116465 -0.21597942 39.79641324 -6.640625 40.8671875 C-13.36339436 41.15753966 -18.29190306 39.66267492 -23.7265625 35.6875 C-28.09587834 31.53219147 -30.4236001 25.63425496 -30.890625 19.6796875 C-30.44700143 12.91442805 -28.845297 8.61181374 -23.765625 3.9921875 C-17.09970105 -1.62810132 -8.20494597 -3.51987327 0 0 Z " fill="#FEFBFD" transform="translate(358.640625,143.1328125)"/>
</svg>
