<?xml version="1.0" encoding="UTF-8"?>
<!DOCTYPE svg PUBLIC "-//W3C//DTD SVG 1.1//EN" "http://www.w3.org/Graphics/SVG/1.1/DTD/svg11.dtd">
<svg xmlns="http://www.w3.org/2000/svg" version="1.1" width="47px" height="48px" style="shape-rendering:geometricPrecision; text-rendering:geometricPrecision; image-rendering:optimizeQuality; fill-rule:evenodd; clip-rule:evenodd" xmlns:xlink="http://www.w3.org/1999/xlink">
<g><path style="opacity:0.929" fill="#1a7099" d="M 18.5,1.5 C 34.2786,1.39562 39.4452,8.72895 34,23.5C 28.656,28.6537 22.4893,29.8203 15.5,27C 9.0281,21.0957 7.86144,14.2623 12,6.5C 13.9651,4.44965 16.1318,2.78299 18.5,1.5 Z M 24.5,7.5 C 28.7031,8.20444 31.0364,10.7044 31.5,15C 30.7259,17.1542 30.0592,19.3208 29.5,21.5C 27.8828,22.038 26.2161,22.3713 24.5,22.5C 27.0359,19.1594 27.0359,15.826 24.5,12.5C 25.0253,11.8076 25.6919,11.3076 26.5,11C 25.1772,10.1841 24.5106,9.01739 24.5,7.5 Z M 24.5,7.5 C 19.2584,9.29579 18.2584,12.4625 21.5,17C 20.9777,17.9503 20.311,18.7836 19.5,19.5C 20.6119,20.2652 21.2786,21.2652 21.5,22.5C 17.3352,21.8322 15.0019,19.3322 14.5,15C 15.2741,12.8458 15.9408,10.6792 16.5,8.5C 18.6792,7.94076 20.8458,7.27409 23,6.5C 23.7648,6.56993 24.2648,6.90326 24.5,7.5 Z M 16.5,6.5 C 16.5,7.16667 16.5,7.83333 16.5,8.5C 15.8333,8.5 15.1667,8.5 14.5,8.5C 14.8333,7.5 15.5,6.83333 16.5,6.5 Z M 29.5,21.5 C 30.1667,21.5 30.8333,21.5 31.5,21.5C 31.1667,22.5 30.5,23.1667 29.5,23.5C 29.5,22.8333 29.5,22.1667 29.5,21.5 Z"/></g>
<g><path style="opacity:1" fill="#1a739d" d="M 24.5,7.5 C 24.5106,9.01739 25.1772,10.1841 26.5,11C 25.6919,11.3076 25.0253,11.8076 24.5,12.5C 27.0359,15.826 27.0359,19.1594 24.5,22.5C 23.5,22.5 22.5,22.5 21.5,22.5C 21.2786,21.2652 20.6119,20.2652 19.5,19.5C 20.311,18.7836 20.9777,17.9503 21.5,17C 18.2584,12.4625 19.2584,9.29579 24.5,7.5 Z"/></g>
<g><path style="opacity:0.684" fill="#0e374a" d="M -0.5,24.5 C 9.54789,26.6832 19.5479,29.1832 29.5,32C 30.1552,33.4866 31.1552,34.6533 32.5,35.5C 36.8022,32.6762 41.4689,31.0095 46.5,30.5C 46.5,33.1667 46.5,35.8333 46.5,38.5C 45.8826,38.3893 45.3826,38.056 45,37.5C 36.653,43.8212 27.153,46.8212 16.5,46.5C 13.71,45.4032 10.8766,44.4032 8,43.5C 5.35312,45.5975 2.51979,45.9308 -0.5,44.5C -0.5,37.8333 -0.5,31.1667 -0.5,24.5 Z M 1.5,26.5 C 2.5,26.5 3.5,26.5 4.5,26.5C 4.91945,31.9305 4.91945,37.2639 4.5,42.5C 3.5,42.5 2.5,42.5 1.5,42.5C 1.5,37.1667 1.5,31.8333 1.5,26.5 Z M 7.5,29.5 C 13.97,31.6161 20.6367,33.1161 27.5,34C 28.8333,34.6667 28.8333,35.3333 27.5,36C 24.4465,36.1786 21.4465,36.6786 18.5,37.5C 23.1313,38.6616 27.798,38.8283 32.5,38C 36.4005,36.0331 40.4005,34.6997 44.5,34C 36.0953,41.9817 26.0953,44.9817 14.5,43C 6.75677,41.3477 4.42344,36.8477 7.5,29.5 Z"/></g>
</svg>
