<?xml version="1.0" encoding="UTF-8"?>
<svg version="1.1" xmlns="http://www.w3.org/2000/svg" width="30" height="31">
<path d="M0 0 C1.15757813 -0.00257813 2.31515625 -0.00515625 3.5078125 -0.0078125 C4.72210938 -0.00007812 5.93640625 0.00765625 7.1875 0.015625 C8.40179687 0.00789062 9.61609375 0.00015625 10.8671875 -0.0078125 C12.60355469 -0.00394531 12.60355469 -0.00394531 14.375 0 C15.44105469 0.00225586 16.50710937 0.00451172 17.60546875 0.00683594 C20.1875 0.265625 20.1875 0.265625 22.1875 2.265625 C22.44628906 4.11328125 22.44628906 4.11328125 22.453125 6.328125 C22.45699219 7.52308594 22.45699219 7.52308594 22.4609375 8.7421875 C22.45320313 9.57492187 22.44546875 10.40765625 22.4375 11.265625 C22.44523437 12.09835938 22.45296875 12.93109375 22.4609375 13.7890625 C22.45835938 14.58570313 22.45578125 15.38234375 22.453125 16.203125 C22.45086914 16.93402344 22.44861328 17.66492188 22.44628906 18.41796875 C22.1875 20.265625 22.1875 20.265625 20.1875 22.265625 C17.60546875 22.52441406 17.60546875 22.52441406 14.375 22.53125 C13.21742187 22.53382812 12.05984375 22.53640625 10.8671875 22.5390625 C9.65289063 22.53132813 8.43859375 22.52359375 7.1875 22.515625 C5.97320312 22.52335937 4.75890625 22.53109375 3.5078125 22.5390625 C1.77144531 22.53519531 1.77144531 22.53519531 0 22.53125 C-1.59908203 22.52786621 -1.59908203 22.52786621 -3.23046875 22.52441406 C-5.8125 22.265625 -5.8125 22.265625 -7.8125 20.265625 C-8.07128906 18.41796875 -8.07128906 18.41796875 -8.078125 16.203125 C-8.08070312 15.40648437 -8.08328125 14.60984375 -8.0859375 13.7890625 C-8.07820312 12.95632812 -8.07046875 12.12359375 -8.0625 11.265625 C-8.07023438 10.43289063 -8.07796875 9.60015625 -8.0859375 8.7421875 C-8.08335938 7.94554687 -8.08078125 7.14890625 -8.078125 6.328125 C-8.07586914 5.59722656 -8.07361328 4.86632812 -8.07128906 4.11328125 C-7.4161754 -0.5639831 -3.84087175 0.0081276 0 0 Z M-4.8125 3.265625 C-4.88569621 5.96217354 -4.90492537 8.63253958 -4.875 11.328125 C-4.87048828 12.08673828 -4.86597656 12.84535156 -4.86132812 13.62695312 C-4.8495068 15.50654371 -4.83157078 17.38609399 -4.8125 19.265625 C-2.09198714 20.17246262 -0.48516994 20.39405047 2.3125 20.3984375 C3.10140625 20.39972656 3.8903125 20.40101562 4.703125 20.40234375 C5.52296875 20.39847656 6.3428125 20.39460938 7.1875 20.390625 C8.41726562 20.39642578 8.41726562 20.39642578 9.671875 20.40234375 C10.85523438 20.40041016 10.85523438 20.40041016 12.0625 20.3984375 C12.78179688 20.39730957 13.50109375 20.39618164 14.2421875 20.39501953 C16.40512361 20.33339878 16.40512361 20.33339878 19.1875 19.265625 C19.21434679 16.61972486 19.23426357 13.97409404 19.25 11.328125 C19.25837891 10.57337891 19.26675781 9.81863281 19.27539062 9.04101562 C19.28402441 7.11568187 19.23974333 5.19026919 19.1875 3.265625 C17.53355883 1.61168383 15.58434587 2.13562817 13.3125 2.1328125 C12.32765625 2.13152344 11.3428125 2.13023438 10.328125 2.12890625 C8.77351563 2.13470703 8.77351563 2.13470703 7.1875 2.140625 C6.15109375 2.13675781 5.1146875 2.13289062 4.046875 2.12890625 C3.06203125 2.13019531 2.0771875 2.13148437 1.0625 2.1328125 C0.15242187 2.13394043 -0.75765625 2.13506836 -1.6953125 2.13623047 C-3.7977848 2.03002491 -3.7977848 2.03002491 -4.8125 3.265625 Z " fill="#1D84B5" transform="translate(7.8125,4.734375)"/>
<path d="M0 0 C3.29865513 0.36651724 4.09849137 1.10606763 6.4375 3.625 C8.72439487 6.25450996 8.72439487 6.25450996 11.5 6.125 C14.70546977 4.6825386 16.56390359 2.50020421 19 0 C19.99 0 20.98 0 22 0 C21.67 0.5775 21.34 1.155 21 1.75 C19.72924102 4.19883862 19.72924102 4.19883862 20 8 C20.93283296 10.20067421 20.93283296 10.20067421 22 12 C19.03824877 11.38722388 17.61941217 10.74627478 15 9 C12.99363529 9.29259485 10.99285937 9.62633887 9 10 C8.01 9.67 7.02 9.34 6 9 C5.566875 9.495 5.13375 9.99 4.6875 10.5 C3 12 3 12 0 12 C0.33 11.4225 0.66 10.845 1 10.25 C2.27075898 7.80116138 2.27075898 7.80116138 2 4 C1.06716704 1.79932579 1.06716704 1.79932579 0 0 Z " fill="#0D354E" transform="translate(4,10)"/>
</svg>
