<?xml version="1.0" encoding="UTF-8"?>
<!DOCTYPE svg PUBLIC "-//W3C//DTD SVG 1.1//EN" "http://www.w3.org/Graphics/SVG/1.1/DTD/svg11.dtd">
<svg xmlns="http://www.w3.org/2000/svg" version="1.1" width="83px" height="83px" style="shape-rendering:geometricPrecision; text-rendering:geometricPrecision; image-rendering:optimizeQuality; fill-rule:evenodd; clip-rule:evenodd" xmlns:xlink="http://www.w3.org/1999/xlink">
<g><path style="opacity:0.961" fill="#1e84b5" d="M 40.5,-0.5 C 40.8333,-0.5 41.1667,-0.5 41.5,-0.5C 41.9072,10.0401 44.4072,20.0401 49,29.5C 52.453,33.1451 56.6197,35.6451 61.5,37C 68.4428,38.5757 75.4428,39.7424 82.5,40.5C 82.5,40.8333 82.5,41.1667 82.5,41.5C 71.924,41.9127 61.924,44.4127 52.5,49C 48.743,52.4212 46.243,56.5879 45,61.5C 43.2613,68.4122 42.0946,75.4122 41.5,82.5C 41.1667,82.5 40.8333,82.5 40.5,82.5C 39.8381,72.0188 37.3381,62.0188 33,52.5C 29.547,48.8549 25.3803,46.3549 20.5,45C 13.5878,43.2613 6.5878,42.0946 -0.5,41.5C -0.5,41.1667 -0.5,40.8333 -0.5,40.5C 9.98117,39.8381 19.9812,37.3381 29.5,33C 33.1451,29.547 35.6451,25.3803 37,20.5C 38.576,13.5546 39.7426,6.55456 40.5,-0.5 Z"/></g>
</svg>
