<?xml version="1.0" encoding="UTF-8"?>
<!DOCTYPE svg PUBLIC "-//W3C//DTD SVG 1.1//EN" "http://www.w3.org/Graphics/SVG/1.1/DTD/svg11.dtd">
<svg xmlns="http://www.w3.org/2000/svg" version="1.1" width="48px" height="48px" style="shape-rendering:geometricPrecision; text-rendering:geometricPrecision; image-rendering:optimizeQuality; fill-rule:evenodd; clip-rule:evenodd" xmlns:xlink="http://www.w3.org/1999/xlink">
<g><path style="opacity:0.744" fill="#0e374b" d="M 19.5,-0.5 C 22.5,-0.5 25.5,-0.5 28.5,-0.5C 35.882,5.20965 34.882,9.04299 25.5,11C 26.7875,12.4095 27.9542,13.9095 29,15.5C 32.1705,10.5859 35.8372,10.2525 40,14.5C 40.8614,11.9493 42.028,9.61595 43.5,7.5C 45.5246,17.8376 42.5246,19.8376 34.5,13.5C 29.9161,17.2071 30.5827,18.8738 36.5,18.5C 36.8844,25.5888 36.3844,32.5888 35,39.5C 32.9262,43.0769 30.0928,45.7435 26.5,47.5C 22.5,47.5 18.5,47.5 14.5,47.5C 10.189,45.3533 7.02229,42.02 5,37.5C 3.46258,28.5688 2.79592,19.5688 3,10.5C 3.46524,9.06919 4.29857,7.90252 5.5,7C 10.3874,4.72575 15.0541,2.22575 19.5,-0.5 Z M 22.5,1.5 C 24.8273,1.24707 26.8273,1.91374 28.5,3.5C 29.8333,4.5 29.8333,5.5 28.5,6.5C 21.0459,10.3106 13.5459,13.9773 6,17.5C 4.35237,14.401 4.85237,11.5677 7.5,9C 12.5919,6.45406 17.5919,3.95406 22.5,1.5 Z M 17.5,15.5 C 21.2064,12.5079 24.2064,13.1746 26.5,17.5C 26.1667,17.8333 25.8333,18.1667 25.5,18.5C 23.5745,15.828 20.9079,14.828 17.5,15.5 Z M 17.5,15.5 C 16.7456,17.4459 15.4122,18.2793 13.5,18C 14.4709,16.5187 15.8042,15.6854 17.5,15.5 Z M 6.5,20.5 C 15.8333,20.5 25.1667,20.5 34.5,20.5C 35.2821,27.549 34.1154,34.2156 31,40.5C 21.058,48.1762 13.058,46.5096 7,35.5C 6.50074,30.5111 6.33407,25.5111 6.5,20.5 Z M 16.5,25.5 C 19.3708,26.1226 22.2041,26.4559 25,26.5C 25.3742,27.4162 25.8742,28.2496 26.5,29C 24.9799,31.5961 24.1466,34.4294 24,37.5C 20.8277,32.0434 18.4944,32.3767 17,38.5C 16.04,35.3668 15.2067,32.2001 14.5,29C 14.9783,27.6974 15.645,26.5307 16.5,25.5 Z"/></g>
<g><path style="opacity:0.79" fill="#1e85b5" d="M 14.5,23.5 C 18.5138,23.3345 22.5138,23.5012 26.5,24C 27,24.5 27.5,25 28,25.5C 28.3167,30.6048 27.65,35.6048 26,40.5C 24.8668,42.2112 23.3668,42.7112 21.5,42C 20.1228,34.6578 19.4561,34.8245 19.5,42.5C 18.0222,42.762 16.6888,42.4287 15.5,41.5C 14.1141,37.3564 12.7808,33.1898 11.5,29C 12.1242,26.9149 13.1242,25.0816 14.5,23.5 Z M 16.5,25.5 C 15.645,26.5307 14.9783,27.6974 14.5,29C 15.2067,32.2001 16.04,35.3668 17,38.5C 18.4944,32.3767 20.8277,32.0434 24,37.5C 24.1466,34.4294 24.9799,31.5961 26.5,29C 25.8742,28.2496 25.3742,27.4162 25,26.5C 22.2041,26.4559 19.3708,26.1226 16.5,25.5 Z"/></g>
</svg>
