<?xml version="1.0" encoding="UTF-8"?>
<!DOCTYPE svg PUBLIC "-//W3C//DTD SVG 1.1//EN" "http://www.w3.org/Graphics/SVG/1.1/DTD/svg11.dtd">
<svg xmlns="http://www.w3.org/2000/svg" version="1.1" width="48px" height="48px" style="shape-rendering:geometricPrecision; text-rendering:geometricPrecision; image-rendering:optimizeQuality; fill-rule:evenodd; clip-rule:evenodd" xmlns:xlink="http://www.w3.org/1999/xlink">
<g><path style="opacity:0.973" fill="#10445d" d="M 37.5,5.5 C 40.1667,5.5 42.8333,5.5 45.5,5.5C 45.5,8.16667 45.5,10.8333 45.5,13.5C 45.5,10.8333 45.5,8.16667 45.5,5.5C 42.8333,5.5 40.1667,5.5 37.5,5.5 Z M 38.5,7.5 C 40.1667,7.5 41.8333,7.5 43.5,7.5C 43.5,9.16667 43.5,10.8333 43.5,12.5C 41.8333,12.5 40.1667,12.5 38.5,12.5C 38.5,10.8333 38.5,9.16667 38.5,7.5 Z"/></g>
<g><path style="opacity:0.726" fill="#1e84b4" d="M 10.5,16.5 C 8.96895,15.0755 9.30228,14.4088 11.5,14.5C 12.8333,14.5 14.1667,14.5 15.5,14.5C 14.7415,10.7597 16.2415,9.09298 20,9.5C 23.3365,9.50357 24.8365,11.1702 24.5,14.5C 22.4078,14.4386 20.9078,13.4386 20,11.5C 18.3247,12.5955 17.158,14.0955 16.5,16C 14.4346,17.5423 12.4346,17.709 10.5,16.5 Z"/></g>
<g><path style="opacity:1" fill="#124964" d="M 26.5,9.5 C 27.9778,9.23798 29.3112,9.57131 30.5,10.5C 28.8267,12.5225 28.1601,14.8559 28.5,17.5C 30.1667,17.5 31.8333,17.5 33.5,17.5C 33.8399,14.8559 33.1733,12.5225 31.5,10.5C 32.6888,9.57131 34.0222,9.23798 35.5,9.5C 35.5,12.8333 35.5,16.1667 35.5,19.5C 26.0852,21.7559 23.0852,18.4226 26.5,9.5 Z"/></g>
<g><path style="opacity:0.788" fill="#1e85b5" d="M 11.5,14.5 C 9.30228,14.4088 8.96895,15.0755 10.5,16.5C 9.5041,16.4142 8.67076,16.7476 8,17.5C 8.30518,19.4432 8.30518,21.4432 8,23.5C 7.62325,24.9423 6.78991,25.9423 5.5,26.5C 5.16667,25.8333 4.83333,25.1667 4.5,24.5C 5.09038,22.0095 5.25704,19.3429 5,16.5C 6.73096,13.698 8.89762,13.0313 11.5,14.5 Z"/></g>
<g><path style="opacity:0.832" fill="#124f6b" d="M 30.5,-0.5 C 32.1667,-0.5 33.8333,-0.5 35.5,-0.5C 36.0482,1.62642 36.7148,3.62642 37.5,5.5C 37.5,8.16667 37.5,10.8333 37.5,13.5C 40.1667,13.5 42.8333,13.5 45.5,13.5C 42.7131,14.4767 39.7131,14.81 36.5,14.5C 36.5,11.8333 36.5,9.16667 36.5,6.5C 30.0786,7.7522 28.0786,5.41887 30.5,-0.5 Z M 32.5,2.5 C 34.337,2.63945 34.6704,3.30612 33.5,4.5C 32.7025,4.04311 32.3691,3.37644 32.5,2.5 Z"/></g>
<g><path style="opacity:0.75" fill="#1e83b4" d="M 24.5,20.5 C 17.7193,19.383 13.3859,22.0496 11.5,28.5C 10.8333,28.8333 10.1667,29.1667 9.5,29.5C 9.76124,21.9051 13.7612,17.9051 21.5,17.5C 21.8076,16.6919 22.3076,16.0253 23,15.5C 24.2692,16.9047 24.7692,18.5714 24.5,20.5 Z"/></g>
<g><path style="opacity:0.969" fill="#114761" d="M 37.5,16.5 C 39.5,16.5 41.5,16.5 43.5,16.5C 43.5,18.5 43.5,20.5 43.5,22.5C 41.5,22.5 39.5,22.5 37.5,22.5C 37.5,20.5 37.5,18.5 37.5,16.5 Z M 39.5,18.5 C 41.337,18.6395 41.6704,19.3061 40.5,20.5C 39.7025,20.0431 39.3691,19.3764 39.5,18.5 Z"/></g>
<g><path style="opacity:0.91" fill="#114862" d="M 24.5,20.5 C 26.5,20.5 28.5,20.5 30.5,20.5C 30.5,22.5 30.5,24.5 30.5,26.5C 28.8333,26.5 27.1667,26.5 25.5,26.5C 25.1667,26.5 24.8333,26.5 24.5,26.5C 24.5,24.5 24.5,22.5 24.5,20.5 Z M 26.5,22.5 C 28.337,22.6395 28.6704,23.3061 27.5,24.5C 26.7025,24.0431 26.3691,23.3764 26.5,22.5 Z"/></g>
<g><path style="opacity:0.748" fill="#1e87b5" d="M 4.5,24.5 C 4.83333,25.1667 5.16667,25.8333 5.5,26.5C 3.82351,27.1834 3.15684,28.5168 3.5,30.5C 7.47507,31.0971 8.97507,33.4305 8,37.5C 6.41666,39.2022 6.91666,40.5356 9.5,41.5C 11.5988,39.1835 13.9321,39.0168 16.5,41C 17.3366,42.0113 17.67,43.1779 17.5,44.5C 16.8333,44.1667 16.1667,43.8333 15.5,43.5C 14.7354,43.0766 13.9021,42.7432 13,42.5C 8.55997,45.4721 5.3933,44.3054 3.5,39C 4.86135,37.4157 5.52801,35.5824 5.5,33.5C 3.85613,33.7135 2.35613,33.3802 1,32.5C 0.502577,29.854 0.33591,27.1873 0.5,24.5C 1.83333,24.5 3.16667,24.5 4.5,24.5 Z"/></g>
<g><path style="opacity:0.72" fill="#1e88b8" d="M 24.5,26.5 C 25.1686,32.0001 22.8353,34.1667 17.5,33C 13.5185,30.0485 13.5185,27.0485 17.5,24C 20.4807,23.162 22.8141,23.9953 24.5,26.5 Z M 18.5,26.5 C 22.9338,27.5583 23.2671,29.225 19.5,31.5C 17.2957,30.218 16.9624,28.5514 18.5,26.5 Z"/></g>
<g><path style="opacity:0.733" fill="#1d81b0" d="M 37.5,24.5 C 37.6716,25.4916 37.3382,26.1583 36.5,26.5C 35.5,26.5 34.5,26.5 33.5,26.5C 33.5,27.5 33.5,28.5 33.5,29.5C 32.448,29.3505 31.448,29.5172 30.5,30C 29.6872,34.1461 27.3538,36.9794 23.5,38.5C 23.1667,37.8333 22.8333,37.1667 22.5,36.5C 25.5818,34.5285 27.5818,31.6952 28.5,28C 27.2625,27.7679 26.2625,27.2679 25.5,26.5C 27.1667,26.5 28.8333,26.5 30.5,26.5C 31.4202,27.0674 31.7535,26.4008 31.5,24.5C 33.5,24.5 35.5,24.5 37.5,24.5 Z"/></g>
<g><path style="opacity:0.733" fill="#1f86b5" d="M 37.5,24.5 C 38.6341,26.9664 38.8007,29.633 38,32.5C 33.324,33.3387 32.4907,35.5054 35.5,39C 35.3613,40.301 34.6946,41.1344 33.5,41.5C 32.5,41.5 31.5,41.5 30.5,41.5C 30.9528,40.5416 31.6195,39.7083 32.5,39C 30.0925,36.6309 30.0925,34.1309 32.5,31.5C 33.6888,30.5713 35.0222,30.238 36.5,30.5C 36.5,29.1667 36.5,27.8333 36.5,26.5C 37.3382,26.1583 37.6716,25.4916 37.5,24.5 Z"/></g>
<g><path style="opacity:0.677" fill="#1f88b6" d="M 11.5,28.5 C 12.447,34.8136 16.1137,37.4803 22.5,36.5C 22.8333,37.1667 23.1667,37.8333 23.5,38.5C 15.7043,40.3714 11.0376,37.3714 9.5,29.5C 10.1667,29.1667 10.8333,28.8333 11.5,28.5 Z"/></g>
<g><path style="opacity:0.691" fill="#1e86b6" d="M 30.5,41.5 C 31.5,41.5 32.5,41.5 33.5,41.5C 32.8091,43.0222 31.6424,44.0222 30,44.5C 26.1925,41.4834 24.0258,42.4834 23.5,47.5C 20.8333,47.5 18.1667,47.5 15.5,47.5C 15.5,46.1667 15.5,44.8333 15.5,43.5C 16.1667,43.8333 16.8333,44.1667 17.5,44.5C 18.5676,45.4345 19.901,45.7678 21.5,45.5C 21.2411,42.5203 22.5744,40.687 25.5,40C 27.4952,39.3872 29.1619,39.8872 30.5,41.5 Z"/></g>
</svg>
