<?xml version="1.0" encoding="UTF-8"?>
<svg version="1.1" xmlns="http://www.w3.org/2000/svg" width="30" height="31">
<path d="M0 0 C2.4375 1.0625 2.4375 1.0625 4.375 3.3125 C5.4375 6.0625 5.4375 6.0625 4.625 8.875 C4.233125 9.596875 3.84125 10.31875 3.4375 11.0625 C4.200625 12.031875 4.96375 13.00125 5.75 14 C6.17925781 14.54527344 6.60851563 15.09054688 7.05078125 15.65234375 C8.49433091 17.33405077 8.49433091 17.33405077 11.4375 18.0625 C14.0944191 17.18335312 14.0944191 17.18335312 16.4375 16.0625 C18.0875 17.3825 19.7375 18.7025 21.4375 20.0625 C21.11592796 23.03704134 20.81610258 24.65585278 18.75 26.875 C15.51785262 28.53475135 14.07158546 28.66818091 10.4375 28.0625 C1.99779642 24.43370237 -2.52444636 19.13860727 -6.5625 11.0625 C-6.92714839 7.12429736 -7.12174858 4.89101642 -4.875 1.5625 C-2.5625 0.0625 -2.5625 0.0625 0 0 Z M-3.25 3.125 C-4.87954785 5.12969659 -4.87954785 5.12969659 -4.5 8.375 C-2.69475603 15.4756263 1.67044378 19.85762605 7.4375 24.0625 C10.35149208 25.65825757 11.82028715 26.09120757 15.125 25.9375 C17.59734463 25.26596616 17.59734463 25.26596616 18.75 23 C18.976875 22.360625 19.20375 21.72125 19.4375 21.0625 C18.4475 20.4025 17.4575 19.7425 16.4375 19.0625 C15.365 19.31 14.2925 19.5575 13.1875 19.8125 C9.08823196 20.08578454 8.58192595 19.88534737 5.5625 17.4375 C3.45654204 15.39764835 2.49352012 14.2095528 1.4375 11.4375 C1.4375 9.0625 1.4375 9.0625 2 6.9375 C2.144375 6.31875 2.28875 5.7 2.4375 5.0625 C1.7775 4.0725 1.1175 3.0825 0.4375 2.0625 C-1.61277772 1.88489558 -1.61277772 1.88489558 -3.25 3.125 Z " fill="#1C87B5" transform="translate(7.5625,1.9375)"/>
<path d="M0 0 C4.14030433 0.24354731 6.5031277 0.63274656 9.875 3.125 C12.36725344 6.4968723 12.75645269 8.85969567 13 13 C12.34 13 11.68 13 11 13 C10.79246094 12.45730469 10.58492187 11.91460937 10.37109375 11.35546875 C8.63607628 7.32645329 7.42651051 4.73668287 3.25 3 C2.1775 2.67 1.105 2.34 0 2 C0 1.34 0 0.68 0 0 Z " fill="#0D354B" transform="translate(16,2)"/>
<path d="M0 0 C5.75 1.75 5.75 1.75 8 4 C8.125 6.625 8.125 6.625 8 9 C7.34 9 6.68 9 6 9 C5.7525 8.195625 5.505 7.39125 5.25 6.5625 C4.27761141 3.828919 4.27761141 3.828919 1.875 3.1875 C1.25625 3.125625 0.6375 3.06375 0 3 C0 2.01 0 1.02 0 0 Z " fill="#0C3446" transform="translate(16,6)"/>
</svg>
