<?xml version="1.0" encoding="UTF-8"?>
<!DOCTYPE svg PUBLIC "-//W3C//DTD SVG 1.1//EN" "http://www.w3.org/Graphics/SVG/1.1/DTD/svg11.dtd">
<svg xmlns="http://www.w3.org/2000/svg" version="1.1" width="48px" height="48px" style="shape-rendering:geometricPrecision; text-rendering:geometricPrecision; image-rendering:optimizeQuality; fill-rule:evenodd; clip-rule:evenodd" xmlns:xlink="http://www.w3.org/1999/xlink">
<g><path style="opacity:0.792" fill="#1e86b5" d="M 47.5,14.5 C 47.5,15.1667 47.5,15.8333 47.5,16.5C 45.629,16.8588 44.129,17.8588 43,19.5C 38.8504,27.4621 35.017,35.4621 31.5,43.5C 28.075,43.6332 27.7417,42.9665 30.5,41.5C 32.4781,34.0499 35.1448,26.8832 38.5,20C 37.9152,17.8656 36.5819,16.3656 34.5,15.5C 39.7669,12.2857 39.7669,9.11907 34.5,6C 32.2884,5.21086 30.2884,5.37753 28.5,6.5C 27.8333,6.5 27.1667,6.5 26.5,6.5C 25.8333,6.5 25.5,6.83333 25.5,7.5C 24.1667,7.5 22.8333,7.5 21.5,7.5C 21.5,6.83333 21.1667,6.5 20.5,6.5C 19.8333,6.5 19.1667,6.5 18.5,6.5C 11.382,4.42261 7.71534,7.25595 7.5,15C 7.51428,16.3847 7.84761,17.5514 8.5,18.5C 8.5,19.5 8.5,20.5 8.5,21.5C 8.5,22.1667 8.83333,22.5 9.5,22.5C 9.5,23.1667 9.5,23.8333 9.5,24.5C 9.5,24.8333 9.5,25.1667 9.5,25.5C 8.83333,25.8333 8.16667,26.1667 7.5,26.5C 5.60204,20.6639 5.10204,14.6639 6,8.5C 7.25985,5.57192 9.42651,3.73859 12.5,3C 16.3374,2.23867 20.0041,2.73867 23.5,4.5C 32.9903,0.385312 39.8237,3.05198 44,12.5C 45.1127,13.305 46.2794,13.9717 47.5,14.5 Z M 40.5,13.5 C 42.332,14.1405 42.6653,15.1405 41.5,16.5C 39.4807,15.8671 39.1474,14.8671 40.5,13.5 Z"/></g>
<g><path style="opacity:0.711" fill="#0d394b" d="M 18.5,6.5 C 19.1667,6.5 19.8333,6.5 20.5,6.5C 21.1667,6.5 21.5,6.83333 21.5,7.5C 22.8333,7.5 24.1667,7.5 25.5,7.5C 26.1667,7.5 26.5,7.16667 26.5,6.5C 27.1667,6.5 27.8333,6.5 28.5,6.5C 29.5981,7.39695 29.5981,8.23029 28.5,9C 25.1667,11 21.8333,11 18.5,9C 17.4019,8.23029 17.4019,7.39695 18.5,6.5 Z"/></g>
<g><path style="opacity:0.611" fill="#0e374c" d="M 8.5,14.5 C 10.337,14.6395 10.6704,15.3061 9.5,16.5C 8.70245,16.0431 8.36912,15.3764 8.5,14.5 Z"/></g>
<g><path style="opacity:0.698" fill="#0d384b" d="M 12.5,29.5 C 12.5,28.8333 12.1667,28.5 11.5,28.5C 11.5,28.1667 11.5,27.8333 11.5,27.5C 11.5,26.8333 11.1667,26.5 10.5,26.5C 10.5,26.1667 10.5,25.8333 10.5,25.5C 10.5,24.8333 10.1667,24.5 9.5,24.5C 9.5,23.8333 9.5,23.1667 9.5,22.5C 8.83333,22.5 8.5,22.1667 8.5,21.5C 8.5,20.5 8.5,19.5 8.5,18.5C 9.20895,17.596 10.209,17.2627 11.5,17.5C 11.6876,21.0641 12.6876,24.3974 14.5,27.5C 14.1445,28.5223 13.4778,29.189 12.5,29.5 Z"/></g>
<g><path style="opacity:0.748" fill="#1e84b4" d="M 9.5,25.5 C 9.83333,25.5 10.1667,25.5 10.5,25.5C 10.5,25.8333 10.5,26.1667 10.5,26.5C 11.1667,26.5 11.5,26.8333 11.5,27.5C 11.5,27.8333 11.5,28.1667 11.5,28.5C 12.1667,28.5 12.5,28.8333 12.5,29.5C 14.2864,33.3551 15.7864,37.3551 17,41.5C 18.3643,37.3282 19.3643,32.9949 20,28.5C 22.3333,25.8333 24.6667,25.8333 27,28.5C 27.8527,32.4686 28.5193,36.4686 29,40.5C 29.3826,41.056 29.8826,41.3893 30.5,41.5C 27.7417,42.9665 28.075,43.6332 31.5,43.5C 30.1155,44.8009 28.6155,44.8009 27,43.5C 24.4583,25.0015 21.9583,25.1681 19.5,44C 17.8876,44.7203 16.3876,44.5536 15,43.5C 14.0093,41.1924 13.176,38.8591 12.5,36.5C 12.6716,35.5084 12.3382,34.8417 11.5,34.5C 10.1799,31.8599 8.84661,29.1932 7.5,26.5C 8.16667,26.1667 8.83333,25.8333 9.5,25.5 Z"/></g>
<g><path style="opacity:0.77" fill="#0e3649" d="M 11.5,34.5 C 12.3382,34.8417 12.6716,35.5084 12.5,36.5C 11.0783,36.7086 9.74499,37.2086 8.5,38C 6.9284,43.554 5.09507,43.7207 3,38.5C 1.88732,37.695 0.72065,37.0283 -0.5,36.5C -0.5,35.8333 -0.5,35.1667 -0.5,34.5C 2.37805,33.4378 4.37805,31.4378 5.5,28.5C 6.97051,29.3805 7.80384,30.7139 8,32.5C 9.11268,33.305 10.2794,33.9717 11.5,34.5 Z M 4.5,34.5 C 6.33702,34.6395 6.67036,35.3061 5.5,36.5C 4.70245,36.0431 4.36912,35.3764 4.5,34.5 Z"/></g>
</svg>
