<?xml version="1.0" encoding="UTF-8"?>
<svg version="1.1" xmlns="http://www.w3.org/2000/svg" width="40" height="40">
<path d="M0 0 C4.49675201 3.16816619 8.06766679 6.47060301 9.5625 11.875 C8.10779609 17.35811475 4.14153561 21.38623366 -0.5625 24.4375 C-6.04146433 25.4568422 -11.17277595 25.61659248 -16.5 23.875 C-20.99675201 20.70683381 -24.56766679 17.40439699 -26.0625 12 C-24.60779609 6.51688525 -20.64153561 2.48876634 -15.9375 -0.5625 C-10.45853567 -1.5818422 -5.32722405 -1.74159248 0 0 Z M-20.1875 6.25 C-22.39959983 8.78917863 -22.39959983 8.78917863 -23.0625 11.8125 C-21.77225502 16.7749807 -18.51391971 19.27710565 -14.25 21.9375 C-10.08500811 23.48854613 -6.8201689 23.11144984 -2.5625 21.8125 C1.9400595 19.26388141 5.11393833 17.18817977 6.5625 12.0625 C5.27225502 7.1000193 2.01391971 4.59789435 -2.25 1.9375 C-9.14483352 -0.63014122 -14.68204203 1.91591607 -20.1875 6.25 Z " fill="#FFFFFF" transform="translate(28.25,8.0625)"/>
<path d="M0 0 C1.875 1.125 1.875 1.125 3 3 C3.39365568 6.14924548 3.52854531 8.11909116 1.875 10.875 C-0.88090884 12.52854531 -2.85075452 12.39365568 -6 12 C-7.875 10.875 -7.875 10.875 -9 9 C-9.39365568 5.85075452 -9.52854531 3.88090884 -7.875 1.125 C-5.11909116 -0.52854531 -3.14924548 -0.39365568 0 0 Z M-5 3 C-5.33 4.65 -5.66 6.3 -6 8 C-3.525 8.495 -3.525 8.495 -1 9 C-0.67 7.35 -0.34 5.7 0 4 C-1.65 3.67 -3.3 3.34 -5 3 Z " fill="#FFFFFF" transform="translate(23,14)"/>
</svg>
