<?xml version="1.0" encoding="UTF-8"?>
<svg version="1.1" xmlns="http://www.w3.org/2000/svg" width="40" height="41">
<path d="M0 0 C1.50046875 0.00386719 1.50046875 0.00386719 3.03125 0.0078125 C4.0315625 0.00523438 5.031875 0.00265625 6.0625 0 C8.53125 0.1328125 8.53125 0.1328125 9.53125 1.1328125 C9.76412008 2.81465198 9.94389166 4.5040541 10.09375 6.1953125 C10.21943359 7.57396484 10.21943359 7.57396484 10.34765625 8.98046875 C10.40824219 9.69074219 10.46882813 10.40101562 10.53125 11.1328125 C10.675625 9.8334375 10.82 8.5340625 10.96875 7.1953125 C11.40625 3.2578125 11.40625 3.2578125 12.53125 2.1328125 C16.86655918 1.98887793 21.19282731 2.09069189 25.53125 2.1328125 C25.53125 6.4228125 25.53125 10.7128125 25.53125 15.1328125 C24.87125 15.4628125 24.21125 15.7928125 23.53125 16.1328125 C23.06226037 18.9487974 23.06226037 18.9487974 22.90625 22.1953125 C22.83148438 23.30003906 22.75671875 24.40476562 22.6796875 25.54296875 C22.63070312 26.39761719 22.58171875 27.25226562 22.53125 28.1328125 C23.52125 28.1328125 24.51125 28.1328125 25.53125 28.1328125 C25.03625 30.6078125 25.03625 30.6078125 24.53125 33.1328125 C11.99125 33.1328125 -0.54875 33.1328125 -13.46875 33.1328125 C-13.79875 31.4828125 -14.12875 29.8328125 -14.46875 28.1328125 C-13.47875 28.1328125 -12.48875 28.1328125 -11.46875 28.1328125 C-11.47398682 27.50189697 -11.47922363 26.87098145 -11.48461914 26.22094727 C-11.50532826 23.37907903 -11.51839066 20.53722662 -11.53125 17.6953125 C-11.53962891 16.70208984 -11.54800781 15.70886719 -11.55664062 14.68554688 C-11.55986328 13.74130859 -11.56308594 12.79707031 -11.56640625 11.82421875 C-11.57164307 10.94967041 -11.57687988 10.07512207 -11.58227539 9.17407227 C-11.46875 7.1328125 -11.46875 7.1328125 -10.46875 6.1328125 C-8.13577567 6.09188313 -5.80169775 6.09039527 -3.46875 6.1328125 C-3.489375 5.3284375 -3.51 4.5240625 -3.53125 3.6953125 C-3.44833542 0.29581491 -3.38365853 0.18203226 0 0 Z M-0.46875 2.1328125 C-0.79875 3.4528125 -1.12875 4.7728125 -1.46875 6.1328125 C-0.14875 5.8028125 1.17125 5.4728125 2.53125 5.1328125 C2.20125 4.1428125 1.87125 3.1528125 1.53125 2.1328125 C0.87125 2.1328125 0.21125 2.1328125 -0.46875 2.1328125 Z M4.53125 2.1328125 C4.20125 3.4528125 3.87125 4.7728125 3.53125 6.1328125 C4.85125 6.1328125 6.17125 6.1328125 7.53125 6.1328125 C7.20125 4.8128125 6.87125 3.4928125 6.53125 2.1328125 C5.87125 2.1328125 5.21125 2.1328125 4.53125 2.1328125 Z M13.53125 4.1328125 C13.20125 7.1028125 12.87125 10.0728125 12.53125 13.1328125 C16.16125 13.1328125 19.79125 13.1328125 23.53125 13.1328125 C23.53125 10.1628125 23.53125 7.1928125 23.53125 4.1328125 C20.23125 4.1328125 16.93125 4.1328125 13.53125 4.1328125 Z M-9.46875 8.1328125 C-9.46875 14.7328125 -9.46875 21.3328125 -9.46875 28.1328125 C-9.13875 28.1328125 -8.80875 28.1328125 -8.46875 28.1328125 C-8.21351562 27.22789063 -8.21351562 27.22789063 -7.953125 26.3046875 C-6.53326752 21.62217878 -5.43656594 18.27970101 -1.46875 15.1328125 C-2.12875 12.8228125 -2.78875 10.5128125 -3.46875 8.1328125 C-5.44875 8.1328125 -7.42875 8.1328125 -9.46875 8.1328125 Z M-1.46875 8.1328125 C-1.13875 10.1128125 -0.80875 12.0928125 -0.46875 14.1328125 C1.87658951 14.90237386 1.87658951 14.90237386 4.53125 15.1328125 C6.44791667 14.04947917 6.44791667 14.04947917 7.53125 12.1328125 C7.53125 10.8128125 7.53125 9.4928125 7.53125 8.1328125 C4.56125 8.1328125 1.59125 8.1328125 -1.46875 8.1328125 Z M7.53125 15.1328125 C8.315 15.9784375 9.09875 16.8240625 9.90625 17.6953125 C12.70056023 21.01207167 13.60637901 23.92885344 14.53125 28.1328125 C16.51125 28.1328125 18.49125 28.1328125 20.53125 28.1328125 C20.53125 24.1728125 20.53125 20.2128125 20.53125 16.1328125 C16.24125 15.8028125 11.95125 15.4728125 7.53125 15.1328125 Z M0.53125 18.1328125 C1.19125 21.4328125 1.85125 24.7328125 2.53125 28.1328125 C5.83125 28.1328125 9.13125 28.1328125 12.53125 28.1328125 C12.20125 26.1528125 11.87125 24.1728125 11.53125 22.1328125 C11.20125 23.4528125 10.87125 24.7728125 10.53125 26.1328125 C8.88125 26.1328125 7.23125 26.1328125 5.53125 26.1328125 C5.716875 24.9984375 5.9025 23.8640625 6.09375 22.6953125 C6.238125 21.5196875 6.3825 20.3440625 6.53125 19.1328125 C6.20125 18.8028125 5.87125 18.4728125 5.53125 18.1328125 C3.88125 18.1328125 2.23125 18.1328125 0.53125 18.1328125 Z M-5.46875 22.1328125 C-5.79875 24.1128125 -6.12875 26.0928125 -6.46875 28.1328125 C-5.80875 28.1328125 -5.14875 28.1328125 -4.46875 28.1328125 C-4.46875 26.1528125 -4.46875 24.1728125 -4.46875 22.1328125 C-4.79875 22.1328125 -5.12875 22.1328125 -5.46875 22.1328125 Z M-1.46875 22.1328125 C-2.1502323 24.02460453 -2.1502323 24.02460453 -2.46875 26.1328125 C-1.80875 26.7928125 -1.14875 27.4528125 -0.46875 28.1328125 C-0.46875 26.1528125 -0.46875 24.1728125 -0.46875 22.1328125 C-0.79875 22.1328125 -1.12875 22.1328125 -1.46875 22.1328125 Z " fill="#1D85B5" transform="translate(14.46875,3.8671875)"/>
<path d="M0 0 C3.35286458 0.03255208 6.70572917 0.06510417 10.05859375 0.09765625 C10.05859375 4.38765625 10.05859375 8.67765625 10.05859375 13.09765625 C7.05545627 14.59922499 4.26791853 14.19046829 0.93359375 14.16015625 C-0.34773438 14.15113281 -1.6290625 14.14210938 -2.94921875 14.1328125 C-4.43035156 14.11541016 -4.43035156 14.11541016 -5.94140625 14.09765625 C-6.27140625 13.10765625 -6.60140625 12.11765625 -6.94140625 11.09765625 C-6.28140625 11.09765625 -5.62140625 11.09765625 -4.94140625 11.09765625 C-4.88082031 10.38738281 -4.82023437 9.67710938 -4.7578125 8.9453125 C-4.63212891 7.56666016 -4.63212891 7.56666016 -4.50390625 6.16015625 C-4.42269531 5.24363281 -4.34148438 4.32710937 -4.2578125 3.3828125 C-3.78243811 -0.05044702 -3.55558569 0.11804733 0 0 Z M-1.94140625 2.09765625 C-2.27140625 5.06765625 -2.60140625 8.03765625 -2.94140625 11.09765625 C0.68859375 11.09765625 4.31859375 11.09765625 8.05859375 11.09765625 C8.05859375 8.12765625 8.05859375 5.15765625 8.05859375 2.09765625 C4.75859375 2.09765625 1.45859375 2.09765625 -1.94140625 2.09765625 Z " fill="#124D68" transform="translate(29.94140625,5.90234375)"/>
<path d="M0 0 C2.31 0 4.62 0 7 0 C7 0.66 7 1.32 7 2 C4.69 2 2.38 2 0 2 C0 1.34 0 0.68 0 0 Z " fill="#12516E" transform="translate(30,10)"/>
<path d="M0 0 C1.65 0 3.3 0 5 0 C5 0.66 5 1.32 5 2 C3.35 2 1.7 2 0 2 C0 1.34 0 0.68 0 0 Z " fill="#114A65" transform="translate(30,14)"/>
</svg>
