<?xml version="1.0" encoding="UTF-8"?>
<svg version="1.1" xmlns="http://www.w3.org/2000/svg" width="40" height="40">
<path d="M0 0 C0.66 0 1.32 0 2 0 C2 0.99 2 1.98 2 3 C7.28 3 12.56 3 18 3 C18 2.01 18 1.02 18 0 C18.66 0 19.32 0 20 0 C20 0.99 20 1.98 20 3 C20.9075 2.9175 21.815 2.835 22.75 2.75 C26 3 26 3 28.17211914 4.58764648 C30.61055669 7.80578478 30.50220294 9.836043 30.49609375 13.84765625 C30.49754898 14.50076279 30.49900421 15.15386932 30.50050354 15.82676697 C30.49884854 17.20267209 30.48733152 18.57859649 30.46655273 19.9543457 C30.43754058 22.0595554 30.44595972 24.16225355 30.45898438 26.26757812 C30.45274797 27.60678306 30.44435778 28.94598006 30.43359375 30.28515625 C30.42384521 31.50082275 30.41409668 32.71648926 30.40405273 33.96899414 C30 37 30 37 28.94946289 38.89477539 C25.89670954 40.6254973 22.79068301 40.42729393 19.375 40.3984375 C18.2600415 40.40274277 18.2600415 40.40274277 17.12255859 40.40713501 C15.5524011 40.40917476 13.98221814 40.403651 12.41210938 40.39111328 C10.00853668 40.37505703 7.60664539 40.39096352 5.203125 40.41015625 C3.67707962 40.4081738 2.15103529 40.40433009 0.625 40.3984375 C-0.09381348 40.40451019 -0.81262695 40.41058289 -1.55322266 40.4168396 C-4.33338735 40.37764649 -6.50219096 40.28222686 -8.94946289 38.89477539 C-10.54266648 36.02123296 -10.40738589 33.55334084 -10.43359375 30.28515625 C-10.4388356 29.63300644 -10.44407745 28.98085663 -10.44947815 28.3089447 C-10.45589347 26.93131939 -10.45456757 25.55363927 -10.44604492 24.17602539 C-10.43754137 22.07273299 -10.46628361 19.97216417 -10.49804688 17.86914062 C-10.49965929 16.52864664 -10.49908059 15.18814787 -10.49609375 13.84765625 C-10.49794678 12.63086182 -10.4997998 11.41406738 -10.50170898 10.16040039 C-9.90740359 6.41671019 -9.03091492 5.21535796 -6 3 C-2.75 2.75 -2.75 2.75 0 3 C0 2.01 0 1.02 0 0 Z M-7 8 C-7.33 9.65 -7.66 11.3 -8 13 C3.88 13 15.76 13 28 13 C27.56828269 8.06858622 27.56828269 8.06858622 24.78515625 6.21240234 C21.76586303 4.89807817 19.71605444 4.61327162 16.4375 4.6015625 C15.39335937 4.59769531 14.34921875 4.59382812 13.2734375 4.58984375 C12.19320313 4.60144531 11.11296875 4.61304688 10 4.625 C8.37964844 4.60759766 8.37964844 4.60759766 6.7265625 4.58984375 C5.16035156 4.59564453 5.16035156 4.59564453 3.5625 4.6015625 C2.61503906 4.60494629 1.66757813 4.60833008 0.69140625 4.61181641 C-2.58420439 5.08426025 -4.42429479 5.92115151 -7 8 Z M-8 15 C-8.0825 18.0525 -8.165 21.105 -8.25 24.25 C-8.28641602 25.20551758 -8.32283203 26.16103516 -8.36035156 27.14550781 C-8.3703418 27.90702148 -8.38033203 28.66853516 -8.390625 29.453125 C-8.41157227 30.22817383 -8.43251953 31.00322266 -8.45410156 31.80175781 C-7.79882756 34.97384767 -6.58853928 36.09293548 -4 38 C-0.9795149 38.61355132 -0.9795149 38.61355132 2.375 38.53125 C3.60734375 38.53640625 4.8396875 38.5415625 6.109375 38.546875 C7.39328125 38.53140625 8.6771875 38.5159375 10 38.5 C11.92585938 38.52320313 11.92585938 38.52320313 13.890625 38.546875 C15.12296875 38.54171875 16.3553125 38.5365625 17.625 38.53125 C18.75164063 38.52673828 19.87828125 38.52222656 21.0390625 38.51757812 C24.66638541 37.88351442 25.85887908 36.96413437 28 34 C28.54342728 31.79224549 28.54342728 31.79224549 28.390625 29.453125 C28.38063477 28.69161133 28.37064453 27.93009766 28.36035156 27.14550781 C28.32393555 26.18999023 28.28751953 25.23447266 28.25 24.25 C28.1675 21.1975 28.085 18.145 28 15 C16.12 15 4.24 15 -8 15 Z " fill="#1D84B4" transform="translate(10,0)"/>
<path d="M0 0 C2.05078125 0.03255208 4.1015625 0.06510417 6.15234375 0.09765625 C6.25 6.25 6.25 6.25 6.15234375 8.09765625 C5.15234375 9.09765625 5.15234375 9.09765625 2.21484375 9.28515625 C-0.84765625 9.09765625 -0.84765625 9.09765625 -2.84765625 7.09765625 C-3.03515625 4.03515625 -3.03515625 4.03515625 -2.84765625 1.09765625 C-1.84765625 0.09765625 -1.84765625 0.09765625 0 0 Z M0.15234375 2.09765625 C0.15234375 3.41765625 0.15234375 4.73765625 0.15234375 6.09765625 C1.47234375 6.09765625 2.79234375 6.09765625 4.15234375 6.09765625 C4.15234375 4.77765625 4.15234375 3.45765625 4.15234375 2.09765625 C2.83234375 2.09765625 1.51234375 2.09765625 0.15234375 2.09765625 Z " fill="#124B67" transform="translate(8.84765625,19.90234375)"/>
<path d="M0 0 C0.33 0 0.66 0 1 0 C1.04254356 1.99954746 1.04080783 4.00041636 1 6 C0 7 0 7 -3 7.125 C-6 7 -6 7 -7 6 C-7.04063832 4.33382885 -7.042721 2.66611905 -7 1 C-6.67 2.32 -6.34 3.64 -6 5 C-4.35 4.67 -2.7 4.34 -1 4 C-0.67 2.68 -0.34 1.36 0 0 Z " fill="#10425B" transform="translate(14,22)"/>
</svg>
