<?xml version="1.0" encoding="UTF-8"?>
<svg version="1.1" xmlns="http://www.w3.org/2000/svg" width="64" height="64">
<path d="M0 0 C6.27179582 3.8721522 10.13969125 9.54407374 12.4375 16.4375 C12.625 19.375 12.625 19.375 12.4375 21.4375 C13.324375 21.685 14.21125 21.9325 15.125 22.1875 C20.85048219 24.34805932 24.16611724 27.46454276 26.71875 32.9609375 C28.5288612 39.19795109 27.79612643 45.96696235 26.875 52.3125 C26.37359407 55.89397092 26.78703166 58.89606127 27.4375 62.4375 C26.67824219 62.35371094 25.91898438 62.26992188 25.13671875 62.18359375 C24.14285156 62.08175781 23.14898437 61.97992188 22.125 61.875 C21.13886719 61.77058594 20.15273438 61.66617188 19.13671875 61.55859375 C16.33819653 61.27147473 16.33819653 61.27147473 13.4375 62.4375 C6.76671981 62.99415881 0.08782864 63.40409455 -5.83984375 59.91796875 C-9.20169936 57.02875498 -11.56031273 53.36603411 -13.5625 49.4375 C-13.5625 48.7775 -13.5625 48.1175 -13.5625 47.4375 C-14.8 47.293125 -16.0375 47.14875 -17.3125 47 C-19.4530378 46.75027059 -21.40872763 46.48539631 -23.46875 45.84375 C-26.28419689 45.29746926 -28.51226501 45.80828578 -31.3125 46.375 C-32.78976563 46.66697266 -32.78976563 46.66697266 -34.296875 46.96484375 C-35.04453125 47.12082031 -35.7921875 47.27679688 -36.5625 47.4375 C-35.6685241 39.7748494 -35.6685241 39.7748494 -34.875 37.25 C-34.37133907 35.33021746 -34.37133907 35.33021746 -35.51953125 33.28125 C-37.88131839 26.84162064 -37.88330121 17.29054344 -35.0625 10.9375 C-27.81342716 -0.87771481 -12.85251351 -5.80355746 0 0 Z M-27.5 9.1875 C-31.43439561 15.38715369 -33.07525759 19.99625705 -32.08203125 27.359375 C-31.63327287 29.48910408 -31.63327287 29.48910408 -30.51953125 31.46875 C-29.08203413 34.42588693 -29.4382232 37.20630326 -29.5625 40.4375 C-28.593125 40.375625 -27.62375 40.31375 -26.625 40.25 C-23.45168307 40.21813939 -21.18175518 40.87832131 -18.25 42.0625 C-12.9714673 43.95090182 -8.77600206 43.32782608 -3.5625 41.4375 C1.82106009 38.77654186 5.28129194 35.04364096 7.4375 29.4375 C8.9936989 23.0052112 8.20440121 18.43053914 5.4375 12.4375 C2.28792255 7.37567909 -2.0004923 4.47034982 -7.6640625 2.828125 C-14.92248343 1.54571848 -22.44244933 3.64393845 -27.5 9.1875 Z M12.4375 26.4375 C12.19515625 27.10136719 11.9528125 27.76523437 11.703125 28.44921875 C8.35440929 37.27179667 5.4330781 41.32826319 -3.22265625 45.32421875 C-5.74580199 46.45612652 -5.74580199 46.45612652 -8.5625 48.4375 C-3.34874254 55.3646759 -3.34874254 55.3646759 4.4375 58.4375 C9.97124403 58.08048426 15.09039023 56.86976155 20.4375 55.4375 C23.25358611 45.70720173 23.25358611 45.70720173 22.4375 35.8125 C20.0462156 31.77720757 17.26381253 29.11591877 13.4375 26.4375 C13.1075 26.4375 12.7775 26.4375 12.4375 26.4375 Z " fill="#FFFFFF" transform="translate(36.5625,1.5625)"/>
<path d="M0 0 C2.4375 1.5 2.4375 1.5 4 4 C4.55214681 6.77781077 4.59028846 9.22621733 4 12 C2.0625 14.25 2.0625 14.25 0 16 C-0.7872678 18.1381966 -0.7872678 18.1381966 -1 20 C-2.65 20 -4.3 20 -6 20 C-6.35338623 17.03155565 -6.5417682 14.84401782 -4.88671875 12.265625 C-3.64496832 10.79651181 -2.32662082 9.39295186 -1 8 C-1.33 7.34 -1.66 6.68 -2 6 C-4.02463255 5.34786708 -4.02463255 5.34786708 -6 5 C-6.33 5.99 -6.66 6.98 -7 8 C-8.65 8 -10.3 8 -12 8 C-9.98470897 0.86897019 -7.47131649 -0.78645437 0 0 Z " fill="#FFFFFF" transform="translate(28,11)"/>
<path d="M0 0 C1.65 0 3.3 0 5 0 C5 1.65 5 3.3 5 5 C3.35 5 1.7 5 0 5 C0 3.35 0 1.7 0 0 Z " fill="#FFFFFF" transform="translate(22,33)"/>
</svg>
