<?xml version="1.0" encoding="UTF-8"?>
<svg version="1.1" xmlns="http://www.w3.org/2000/svg" width="30" height="31">
<path d="M0 0 C3.62011046 2.33296007 5.89022378 4.96794755 7.8125 8.8125 C7.8841735 11.36407655 7.90558442 13.88722971 7.875 16.4375 C7.87048828 17.14390625 7.86597656 17.8503125 7.86132812 18.578125 C7.84953875 20.32295275 7.83160324 22.067737 7.8125 23.8125 C6.1625 24.1425 4.5125 24.4725 2.8125 24.8125 C2.4825 24.1525 2.1525 23.4925 1.8125 22.8125 C2.1425 21.8225 2.4725 20.8325 2.8125 19.8125 C3.4725 19.4825 4.1325 19.1525 4.8125 18.8125 C5.34424786 11.2565139 5.34424786 11.2565139 1.8125 4.8125 C-2.33358395 1.91988329 -5.44454221 1.37613274 -10.29296875 2.23828125 C-14.25852558 3.44021291 -16.48512468 5.63123242 -18.5625 9.125 C-19.54630269 13.35535158 -18.79621565 16.98635305 -17.4375 21.0625 C-15.12169525 24.30462665 -12.16925475 25.57251551 -8.375 26.5 C-7.653125 26.603125 -6.93125 26.70625 -6.1875 26.8125 C-6.1875 27.4725 -6.1875 28.1325 -6.1875 28.8125 C-11.49393041 29.31787432 -14.05430312 28.11905751 -18.1875 24.8125 C-21.94969215 20.55170408 -22.319466 16.36386968 -22.1875 10.8125 C-20.4919173 5.5262716 -17.54819001 2.9921698 -13.1875 -0.1875 C-8.48227445 -1.75590852 -4.66101184 -1.73645539 0 0 Z " fill="#176D94" transform="translate(22.1875,2.1875)"/>
<path d="M0 0 C3.49890004 2.11391877 4.70578686 3.11736059 6 7 C6.37570107 11.05757152 6.43182525 13.28029125 4.3125 16.8125 C0.72611225 20.20502896 -1.56120213 21 -6.5 21 C-10.10623395 19.96964744 -11.89946792 18.86737201 -14.1171875 15.8125 C-15.82039676 12.31564558 -15.55097735 9.85684144 -15 6 C-11.03189327 -0.21670055 -7.02880163 -0.89832698 0 0 Z M-8 2 C-8 2.66 -8 3.32 -8 4 C-8.99 4.33 -9.98 4.66 -11 5 C-10.67 5.66 -10.34 6.32 -10 7 C-10.99 7 -11.98 7 -13 7 C-13 8.32 -13 9.64 -13 11 C-13 11.66 -13 12.32 -13 13 C-12.01 13 -11.02 13 -10 13 C-10.33 13.99 -10.66 14.98 -11 16 C-10.01 16 -9.02 16 -8 16 C-8 16.66 -8 17.32 -8 18 C-6.02 18 -4.04 18 -2 18 C-2 17.34 -2 16.68 -2 16 C-1.01 16.33 -0.02 16.66 1 17 C1.33 16.34 1.66 15.68 2 15 C1.67 14.34 1.34 13.68 1 13 C1.99 12.67 2.98 12.34 4 12 C3.34 11.67 2.68 11.34 2 11 C2 10.34 2 9.68 2 9 C2.66 8.67 3.32 8.34 4 8 C3.01 7.67 2.02 7.34 1 7 C1 6.01 1 5.02 1 4 C0.01 4 -0.98 4 -2 4 C-2 3.34 -2 2.68 -2 2 C-3.98 2 -5.96 2 -8 2 Z " fill="#0C364B" transform="translate(20,6)"/>
<path d="M0 0 C0.66 0 1.32 0 2 0 C2.66 3.3 3.32 6.6 4 10 C3.01 9.67 2.02 9.34 1 9 C-0.4783226 6.04335481 -0.06032783 3.25770263 0 0 Z " fill="#0D384B" transform="translate(14,10)"/>
</svg>
