<?xml version="1.0" encoding="UTF-8"?>
<svg version="1.1" xmlns="http://www.w3.org/2000/svg" width="30" height="30">
<path d="M0 0 C3.72180165 3.27067417 5.24744725 6.13715282 5.625 11.0625 C5.39466865 17.96092392 1.13131095 22.69323025 -3.5 27.4375 C-5.9375 28.8125 -5.9375 28.8125 -8.375 28.875 C-13.76249291 26.64116147 -17.58098655 22.90184736 -20.2421875 17.76953125 C-21.54889389 14.09166664 -21.63250729 10.63504007 -20.9375 6.8125 C-16.60979233 -1.68835436 -8.70956715 -3.52088885 0 0 Z M-16.75 5.5625 C-18.48996428 8.85927442 -18.38156988 11.13306389 -17.9375 14.8125 C-15.58121706 19.17598693 -12.52892839 22.4205954 -8.9375 25.8125 C-5.78680578 24.44560446 -3.92858226 22.95592115 -1.75 20.3125 C-1.24082031 19.7040625 -0.73164063 19.095625 -0.20703125 18.46875 C2.5028456 14.93340297 2.50348749 12.22237488 2.0625 7.8125 C-0.40768545 3.77037836 -1.87715709 2.13438981 -6.4375 0.75 C-11.24566501 0.83586009 -13.36820865 2.29732215 -16.75 5.5625 Z " fill="#1C87B6" transform="translate(22.9375,1.1875)"/>
<path d="M0 0 C2 2 2 2 2.3125 4.9375 C2 8 2 8 0.875 9.875 C-1.88090884 11.52854531 -3.85075452 11.39365568 -7 11 C-8.875 9.875 -8.875 9.875 -10 8 C-10.4375 5 -10.4375 5 -10 2 C-6.94783427 -1.63912068 -4.35383535 -1.23043173 0 0 Z M-6 2 C-6.33 3.65 -6.66 5.3 -7 7 C-4.525 7.495 -4.525 7.495 -2 8 C-1.67 6.35 -1.34 4.7 -1 3 C-2.65 2.67 -4.3 2.34 -6 2 Z " fill="#0C3649" transform="translate(19,7)"/>
</svg>
