<?xml version="1.0" encoding="UTF-8"?>
<svg version="1.1" xmlns="http://www.w3.org/2000/svg" width="48" height="48">
<path d="M0 0 C2.5 0.6875 2.5 0.6875 4.4375 3.6875 C6.20333352 6.9650393 6.20333352 6.9650393 9.5 7.4375 C13.63531913 6.40367022 14.25004316 4.17130414 16.5 0.6875 C19 0 19 0 21.5 0.6875 C25.20378023 3.87686631 26.37493992 7.23460659 26.74609375 11.96484375 C26.31859145 16.69451201 24.43068502 20.90855057 22.70703125 25.30078125 C21.20619075 29.51187742 20.86330213 33.25521406 20.5 37.6875 C18.5 40.6875 18.5 40.6875 16.0625 41.1875 C13.5 40.6875 13.5 40.6875 11.6875 38.5 C10.46963757 35.61558899 10.23518213 33.77704177 10.5 30.6875 C9.84 30.6875 9.18 30.6875 8.5 30.6875 C8.37625 31.96625 8.2525 33.245 8.125 34.5625 C7.75 38.4375 7.75 38.4375 5.5 40.6875 C3 41 3 41 0.5 40.6875 C-1.6273865 37.49642025 -1.89441089 35.91451761 -2.375 32.1875 C-3.02266758 27.82232582 -4.01311315 24.07951985 -5.6875 20 C-7.63787988 14.93777806 -8.13367528 10.91316646 -6.5 5.6875 C-4.61185812 2.38325171 -3.67996176 1.01198949 0 0 Z M-0.5 2.6875 C-3.40340329 5.59090329 -4.44167985 7.25738888 -5 11.375 C-4.79234397 15.64792211 -3.22607518 19.0690948 -1.5234375 22.9453125 C0.25212945 27.70274762 0.8449891 32.67149549 1.5 37.6875 C2.49 37.6875 3.48 37.6875 4.5 37.6875 C6.53165952 33.35329301 7.02060632 29.40153788 7.5 24.6875 C8.82 24.6875 10.14 24.6875 11.5 24.6875 C11.60957031 25.53054687 11.71914063 26.37359375 11.83203125 27.2421875 C11.99058594 28.33789062 12.14914063 29.43359375 12.3125 30.5625 C12.46332031 31.65304688 12.61414063 32.74359375 12.76953125 33.8671875 C13.24665741 36.99988846 13.24665741 36.99988846 16.5 38.6875 C17.63748323 34.8688063 18.64054053 31.09193167 19.4375 27.1875 C20.07523347 24.17229616 20.82075605 21.98430404 22.125 19.125 C23.87465062 14.75087345 24.10426178 12.37052882 23.5 7.6875 C21.16663334 4.68416733 21.16663334 4.68416733 18.5 2.6875 C17.96375 3.656875 17.4275 4.62625 16.875 5.625 C14.5 8.6875 14.5 8.6875 11.5625 9.6875 C8.18880645 9.6875 6.41567754 9.37552384 3.5 7.6875 C1.1875 5.0625 1.1875 5.0625 -0.5 2.6875 Z " fill="#1C87B6" transform="translate(14.5,7.3125)"/>
<path d="M0 0 C1.06927734 0.12568359 1.06927734 0.12568359 2.16015625 0.25390625 C7.69019573 0.84189161 12.54028471 1.09194306 18 0 C17.8125 2.75 17.8125 2.75 17 6 C15.37373596 7.38232443 13.7074998 8.71937515 12 10 C11.13034494 12.12946603 11.13034494 12.12946603 11 14 C9.35 13.67 7.7 13.34 6 13 C6 12.01 6 11.02 6 10 C5.195625 9.401875 4.39125 8.80375 3.5625 8.1875 C1 6 1 6 0.1875 2.75 C0.125625 1.8425 0.06375 0.935 0 0 Z M3 3 C5.48214319 7.26851835 5.48214319 7.26851835 9 7.5 C12.51785681 7.26851835 12.51785681 7.26851835 15 3 C11.04 3 7.08 3 3 3 Z " fill="#0D374C" transform="translate(15,0)"/>
</svg>
