<?xml version="1.0" encoding="UTF-8"?>
<svg version="1.1" xmlns="http://www.w3.org/2000/svg" width="48" height="49">
<path d="M0 0 C0.92683594 0.08378906 1.85367187 0.16757812 2.80859375 0.25390625 C4.00613281 0.35574219 5.20367188 0.45757812 6.4375 0.5625 C8.22994141 0.71912109 8.22994141 0.71912109 10.05859375 0.87890625 C11.51458984 0.93884766 11.51458984 0.93884766 13 1 C13.33 0.67 13.66 0.34 14 0 C16.18639453 -0.07258946 18.37500389 -0.08373783 20.5625 -0.0625 C22.35880859 -0.04896484 22.35880859 -0.04896484 24.19140625 -0.03515625 C25.11824219 -0.02355469 26.04507813 -0.01195313 27 0 C27 0.66 27 1.32 27 2 C24.69 2 22.38 2 20 2 C20 2.66 20 3.32 20 4 C22.31 4 24.62 4 27 4 C27 4.66 27 5.32 27 6 C12.21867882 6.55353075 12.21867882 6.55353075 6 3 C5.7834375 3.8971875 5.7834375 3.8971875 5.5625 4.8125 C5.1127561 6.56150404 4.57107659 8.28677023 4 10 C4.66 9.67 5.32 9.34 6 9 C10.4131016 8.48031043 13.86159151 8.14619363 17.5 10.875 C20.24324142 14.76125867 20.29450569 17.2203175 20 22 C19.26938139 24.71451325 18.25315797 27.27632319 17.1875 29.875 C16.63551221 31.27817179 16.08472299 32.68181571 15.53515625 34.0859375 C15.26977051 34.75592773 15.00438477 35.42591797 14.73095703 36.11621094 C13.34142844 39.69724054 12.17504132 43.34431588 11 47 C9.35 47 7.7 47 6 47 C4.66416101 42.15758367 3.74671881 38.06562383 4 33 C3.34 33 2.68 33 2 33 C1.93941406 33.84304687 1.87882812 34.68609375 1.81640625 35.5546875 C1.73261719 36.65039062 1.64882813 37.74609375 1.5625 38.875 C1.48128906 39.96554688 1.40007813 41.05609375 1.31640625 42.1796875 C1 45 1 45 0 47 C-1.65 47 -3.3 47 -5 47 C-5.59748047 45.2984375 -5.59748047 45.2984375 -6.20703125 43.5625 C-6.74214459 42.04165157 -7.27730327 40.52081909 -7.8125 39 C-8.07353516 38.25621094 -8.33457031 37.51242188 -8.60351562 36.74609375 C-8.86455078 36.00488281 -9.12558594 35.26367188 -9.39453125 34.5 C-9.65693604 33.75266602 -9.91934082 33.00533203 -10.18969727 32.23535156 C-10.7264712 30.75457358 -11.28670407 29.28207436 -11.87084961 27.81933594 C-14.04423694 22.3747106 -14.57714926 18.61376905 -13 13 C-11.5 10.4375 -11.5 10.4375 -9 9 C-5.20833321 8.54122181 -1.46782828 8.26608586 2 10 C1.505 9.195625 1.505 9.195625 1 8.375 C-0.22628024 5.46258442 -0.06865438 3.13235623 0 0 Z M2 2 C2 2.99 2 3.98 2 5 C2.66 5 3.32 5 4 5 C4 4.01 4 3.02 4 2 C3.34 2 2.68 2 2 2 Z M15 2 C15 2.66 15 3.32 15 4 C16.32 3.67 17.64 3.34 19 3 C17.68 2.67 16.36 2.34 15 2 Z M-11 14 C-13.05710487 19.14276218 -11.11285415 23.03791075 -9.19140625 27.8984375 C-7.16652259 33.16977398 -5.61634102 38.59213564 -4 44 C-3.01 44 -2.02 44 -1 44 C-0.34 39.71 0.32 35.42 1 31 C2.32 31 3.64 31 5 31 C5.12117188 31.84304687 5.24234375 32.68609375 5.3671875 33.5546875 C5.53476562 34.65039062 5.70234375 35.74609375 5.875 36.875 C6.11863281 38.51082031 6.11863281 38.51082031 6.3671875 40.1796875 C6.76256513 43.11932714 6.76256513 43.11932714 9 45 C9.70926531 43.1072016 10.41840726 41.21435689 11.12695312 39.32128906 C11.68903111 37.82681548 12.25512409 36.33384265 12.82617188 34.84277344 C13.64794119 32.69178732 14.45001879 30.53417258 15.25 28.375 C15.53101562 27.65054687 15.81203125 26.92609375 16.1015625 26.1796875 C17.72051281 21.75562526 18.42192716 18.67405761 17 14 C14.49036477 11.49036477 13.59356406 11 10 11 C9.690625 12.2065625 9.690625 12.2065625 9.375 13.4375 C8.92125 14.283125 8.4675 15.12875 8 16 C4.40643641 17.0704232 2.5731613 17.19105377 -1 16 C-2.33827304 14.33729713 -3.67189785 12.67083819 -5 11 C-7.91123068 11 -8.92815097 11.99498481 -11 14 Z M5 12 C5 12.66 5 13.32 5 14 C3.35 13.67 1.7 13.34 0 13 C1.22809091 14.64555699 1.22809091 14.64555699 3 16 C5.16299211 15.77242269 5.16299211 15.77242269 7 15 C7 14.01 7 13.02 7 12 C6.34 12 5.68 12 5 12 Z " fill="#1C88B6" transform="translate(21,1)"/>
<path d="M0 0 C5.24264035 7.86396053 7.31710804 18.02372851 10 27 C10.33 27 10.66 27 11 27 C11.66 22.71 12.32 18.42 13 14 C14.65 13.67 16.3 13.34 18 13 C19.33333333 17.66666667 20.66666667 22.33333333 22 27 C22.23074219 26.17757812 22.46148438 25.35515625 22.69921875 24.5078125 C24.82181483 17.24232551 27.34740573 10.63155435 31 4 C31.33 4 31.66 4 32 4 C31.54046373 9.28466713 30.10579007 13.54114918 28.0546875 18.421875 C26.5025188 22.21606516 25.24471823 26.096111 24 30 C22.35 30 20.7 30 19 30 C17.66416101 25.15758367 16.74671881 21.06562383 17 16 C16.34 16 15.68 16 15 16 C14.93941406 16.84304687 14.87882812 17.68609375 14.81640625 18.5546875 C14.73261719 19.65039062 14.64882813 20.74609375 14.5625 21.875 C14.48128906 22.96554688 14.40007813 24.05609375 14.31640625 25.1796875 C14 28 14 28 13 30 C11.35 30 9.7 30 8 30 C7.60167969 28.865625 7.20335937 27.73125 6.79296875 26.5625 C6.25785541 25.04165157 5.72269673 23.52081909 5.1875 22 C4.92646484 21.25621094 4.66542969 20.51242188 4.39648438 19.74609375 C4.13544922 19.00488281 3.87441406 18.26367188 3.60546875 17.5 C3.34338623 16.75492188 3.08130371 16.00984375 2.8112793 15.2421875 C2.00706912 13.01953741 1.14657298 10.82443601 0.28125 8.625 C-0.98652119 5.03813517 -1.21385645 3.53121876 0 0 Z " fill="#1C86B6" transform="translate(8,18)"/>
<path d="M0 0 C0.92683594 0.08378906 1.85367187 0.16757812 2.80859375 0.25390625 C4.00613281 0.35574219 5.20367187 0.45757812 6.4375 0.5625 C7.63246094 0.66691406 8.82742187 0.77132813 10.05859375 0.87890625 C11.51458984 0.93884766 11.51458984 0.93884766 13 1 C13.33 0.67 13.66 0.34 14 0 C16.18639453 -0.07258946 18.37500389 -0.08373783 20.5625 -0.0625 C22.35880859 -0.04896484 22.35880859 -0.04896484 24.19140625 -0.03515625 C25.11824219 -0.02355469 26.04507813 -0.01195313 27 0 C27 0.66 27 1.32 27 2 C24.69 2 22.38 2 20 2 C20 2.66 20 3.32 20 4 C22.31 4 24.62 4 27 4 C27 4.66 27 5.32 27 6 C12.21867882 6.55353075 12.21867882 6.55353075 6 3 C5.7834375 3.8971875 5.7834375 3.8971875 5.5625 4.8125 C5.1127561 6.56150404 4.57107659 8.28677023 4 10 C3.34 10 2.68 10 2 10 C-0.10706291 6.57602277 -0.08680713 3.96057533 0 0 Z M2 2 C2 2.99 2 3.98 2 5 C2.66 5 3.32 5 4 5 C4 4.01 4 3.02 4 2 C3.34 2 2.68 2 2 2 Z M15 2 C15 2.66 15 3.32 15 4 C16.32 3.67 17.64 3.34 19 3 C17.68 2.67 16.36 2.34 15 2 Z " fill="#124D6A" transform="translate(21,1)"/>
</svg>
