<?xml version="1.0" encoding="UTF-8"?>
<svg version="1.1" xmlns="http://www.w3.org/2000/svg" width="800" height="800">
<path d="M0 0 C5.22803193 4.15134595 8.76874431 9.05558751 10.08984375 15.7109375 C10.85117564 24.31984431 9.63300143 30.90891485 4.08984375 37.6484375 C0.38989768 41.64437925 -3.78823941 44.95068771 -8.05078125 48.32421875 C-11.94526605 51.57494308 -15.42050255 55.16741353 -18.9140625 58.83984375 C-20.91015625 60.7109375 -20.91015625 60.7109375 -22.91015625 60.7109375 C-23.23306641 61.52884766 -23.23306641 61.52884766 -23.5625 62.36328125 C-25.37161463 65.51481137 -27.86767474 67.78889661 -30.47265625 70.2734375 C-36.07228981 75.76408993 -41.11716071 81.49798872 -45.91015625 87.7109375 C-46.4501123 88.40155273 -46.99006836 89.09216797 -47.54638672 89.80371094 C-66.55345498 114.18604626 -83.60292657 141.40895599 -93.91015625 170.7109375 C-93.16894531 170.32421875 -92.42773438 169.9375 -91.6640625 169.5390625 C-67.81140518 157.74411323 -38.94025513 156.2523145 -13.72265625 164.4609375 C10.55252143 172.78667969 28.92462594 189.58577379 40.8359375 211.99609375 C51.69196955 234.27667823 53.90479091 261.06116829 46.08984375 284.7109375 C40.95170467 299.30983037 32.954048 311.66475328 22.08984375 322.7109375 C21.33058594 323.48308594 20.57132813 324.25523437 19.7890625 325.05078125 C2.24874095 341.84470614 -22.8712495 350.11385234 -46.91015625 349.7109375 C-78.61256283 348.63066188 -107.13096456 336.03804513 -129.37304688 313.20947266 C-135.95782899 306.0759587 -141.14087463 298.13460374 -145.91015625 289.7109375 C-146.44382813 288.8034375 -146.9775 287.8959375 -147.52734375 286.9609375 C-162.73974713 259.21603599 -161.85617341 223.74386022 -154.91015625 193.7109375 C-154.67409668 192.67984863 -154.43803711 191.64875977 -154.19482422 190.58642578 C-150.2247298 173.73080249 -144.56388308 157.68196688 -137.91015625 141.7109375 C-137.53101074 140.80085937 -137.15186523 139.89078125 -136.76123047 138.953125 C-121.32603479 102.39428769 -98.65742774 68.51889924 -71.57421875 39.5625 C-69.79738002 37.66060517 -68.04196953 35.73846409 -66.30859375 33.796875 C-22.49822922 -15.18285408 -22.49822922 -15.18285408 0 0 Z " fill="#000000" transform="translate(312.91015625,207.2890625)"/>
<path d="M0 0 C6.3107668 4.78339548 9.18622458 10.11891722 10.8125 17.875 C11.48156824 25.42383517 9.31690252 31.64782836 4.9453125 37.76171875 C1.99759482 41.15336982 -1.41112716 43.80411144 -4.9453125 46.5625 C-17.59249423 56.6543688 -29.71571755 68.52258899 -40 81 C-40.41685059 81.50305664 -40.83370117 82.00611328 -41.26318359 82.52441406 C-63.5509255 109.52999915 -81.64760591 139.6063397 -95 172 C-93.7625 171.41992188 -93.7625 171.41992188 -92.5 170.828125 C-66.97035462 159.31699025 -37.3263068 156.69063743 -10.7890625 166.5078125 C13.21562133 176.01728402 31.69397967 194.41216142 42.12744141 217.89160156 C51.94498767 241.61413361 52.10141967 268.36981588 42.67285156 292.19970703 C32.64329581 316.10101499 13.72195001 334.10033588 -10 344 C-22.25277472 348.56929224 -34.21207056 350.37535567 -47.25 350.3125 C-48.43859619 350.30831055 -49.62719238 350.30412109 -50.85180664 350.29980469 C-59.59553224 350.1875142 -67.56475383 349.43567733 -76 347 C-77.485 346.59974609 -77.485 346.59974609 -79 346.19140625 C-97.41685025 340.68104547 -113.28995455 330.21616773 -127 317 C-127.64710938 316.41605469 -128.29421875 315.83210938 -128.9609375 315.23046875 C-148.71902753 296.910174 -159.13088573 268.15127477 -160.28515625 241.73828125 C-161.24677966 203.58818254 -149.51688253 165.0400739 -133 131 C-132.58524414 130.12569336 -132.17048828 129.25138672 -131.74316406 128.35058594 C-125.06921897 114.29462482 -117.50405515 101.02615242 -109 88 C-108.46616699 87.17870605 -107.93233398 86.35741211 -107.38232422 85.51123047 C-97.78442434 70.8442846 -87.03228657 57.26710389 -75.16015625 44.37109375 C-73.33487675 42.36757719 -71.5621828 40.33385233 -69.79296875 38.28125 C-65.78833728 33.69606702 -61.55595184 29.36386714 -57.25 25.0625 C-56.45722656 24.27053223 -55.66445313 23.47856445 -54.84765625 22.66259766 C-49.15832154 17.03243018 -43.33770343 11.8922623 -37 7 C-35.71029297 5.90945312 -35.71029297 5.90945312 -34.39453125 4.796875 C-23.53570961 -4.33702036 -12.98914216 -7.2996832 0 0 Z " fill="#000000" transform="translate(561,206)"/>
</svg>
