<?xml version="1.0" encoding="UTF-8"?>
<svg version="1.1" xmlns="http://www.w3.org/2000/svg" width="48" height="48">
<path d="M0 0 C3 0 3 0 4.38671875 1.3125 C5.59114583 2.875 6.79557292 4.4375 8 6 C8.5472876 5.51394287 9.0945752 5.02788574 9.65844727 4.52709961 C13.94417694 1.73205852 18.9640734 2.53010942 23.9375 2.5625 C25.56461914 2.5325293 25.56461914 2.5325293 27.22460938 2.50195312 C35.14452802 2.50682093 35.14452802 2.50682093 39.19140625 4.83984375 C42.29858177 8.55100588 42.27154083 12.03488499 42.2265625 16.66015625 C41.89001003 20.13593086 40.52694224 22.88738697 39 26 C38.31163487 27.99263591 37.63718601 29.99041337 37 32 C36.34 32 35.68 32 35 32 C34.72774479 28.27917882 34.94232378 26.12736832 36.5 22.6875 C38.23408801 18.42453365 38.90094985 14.5577463 38 10 C36.35201565 7.96316541 35.35535523 7.12541949 32.875 6.25 C29.52835613 5.95898749 26.52442265 6.36919128 23.20703125 6.8203125 C21 7 21 7 17.75 6.375 C14.21246644 5.89260906 12.81404172 6.93085168 10 9 C10.433125 9.86625 10.433125 9.86625 10.875 10.75 C11.24625 11.4925 11.6175 12.235 12 13 C12.350625 13.680625 12.70125 14.36125 13.0625 15.0625 C14 17 14 17 15 20 C14.67 20.66 14.34 21.32 14 22 C15.65 22 17.3 22 19 22 C18.67 22.99 18.34 23.98 18 25 C16.35 25 14.7 25 13 25 C13.66 30.28 14.32 35.56 15 41 C15.66 41 16.32 41 17 41 C17.20496094 39.85660156 17.40992187 38.71320312 17.62109375 37.53515625 C17.8930231 36.04423324 18.16516974 34.55334984 18.4375 33.0625 C18.57220703 32.30775391 18.70691406 31.55300781 18.84570312 30.77539062 C19.88671875 25.11328125 19.88671875 25.11328125 21 24 C22.99958364 23.95919217 25.00045254 23.95745644 27 24 C29.03165952 28.33420699 29.52060632 32.28596212 30 37 C29.01 37 28.02 37 27 37 C26.34 33.37 25.68 29.74 25 26 C24.34 26 23.68 26 23 26 C22.79503906 27.28777344 22.59007813 28.57554688 22.37890625 29.90234375 C22.10698348 31.58076363 21.83483649 33.2591472 21.5625 34.9375 C21.42779297 35.78763672 21.29308594 36.63777344 21.15429688 37.51367188 C21.02216797 38.32255859 20.89003906 39.13144531 20.75390625 39.96484375 C20.63345947 40.7137085 20.5130127 41.46257324 20.38891602 42.23413086 C20 44 20 44 19 45 C17.00041636 45.04080783 14.99954746 45.04254356 13 45 C11.29501124 39.6414639 10.3626181 34.3346384 9.5625 28.76953125 C9.13311012 26.03448231 9.13311012 26.03448231 7.9375 23.88671875 C7 22 7 22 7 18 C7.66 18 8.32 18 9 18 C9.66 18.66 10.32 19.32 11 20 C8.85485103 17.64033613 6.89449478 16.31567944 4 15 C2.68 14.34 1.36 13.68 0 13 C0 8.71 0 4.42 0 0 Z M2 5 C2 6.98 2 8.96 2 11 C3.32 10.34 4.64 9.68 6 9 C4.68 7.68 3.36 6.36 2 5 Z " fill="#1B85B4" transform="translate(0,0)"/>
<path d="M0 0 C0.61283649 4.28985543 0.94669859 6.68589219 -1.640625 10.27734375 C-7.50304066 16.28089164 -7.50304066 16.28089164 -12 17 C-11.938125 17.763125 -11.87625 18.52625 -11.8125 19.3125 C-12 22 -12 22 -13 23.8125 C-16.13059083 25.6712883 -19.44774828 25.55145843 -23 25 C-23.99 24.34 -24.98 23.68 -26 23 C-26.42552252 20.23410362 -26.35833436 18.64948102 -25 16.1875 C-23 15 -23 15 -19.0625 15.1875 C-16.94214144 15.31645241 -16.94214144 15.31645241 -15 15 C-13.11432745 12.78051317 -13.11432745 12.78051317 -12.19921875 10.93359375 C-10.57451168 8.31395206 -8.54509098 6.30889125 -6.375 4.125 C-5.59898438 3.34382813 -4.82296875 2.56265625 -4.0234375 1.7578125 C-2 0 -2 0 0 0 Z M-22 18 C-22.33 19.32 -22.66 20.64 -23 22 C-20.03 22.495 -20.03 22.495 -17 23 C-16.34 21.68 -15.68 20.36 -15 19 C-16.12534105 17.64381501 -16.12534105 17.64381501 -19.0625 17.9375 C-20.031875 17.958125 -21.00125 17.97875 -22 18 Z " fill="#0C334D" transform="translate(48,23)"/>
<path d="M0 0 C1.09376953 -0.02900391 2.18753906 -0.05800781 3.31445312 -0.08789062 C11.37677672 -0.15176034 11.37677672 -0.15176034 15.38671875 2.14453125 C18.47876898 5.86706461 18.45905448 9.34598073 18.4140625 13.97265625 C18.07751003 17.44843086 16.71444224 20.19988697 15.1875 23.3125 C14.49913487 25.30513591 13.82468601 27.30291337 13.1875 29.3125 C12.5275 29.3125 11.8675 29.3125 11.1875 29.3125 C10.91524479 25.59167882 11.12982378 23.43986832 12.6875 20 C14.42158801 15.73703365 15.08844985 11.8702463 14.1875 7.3125 C12.53951565 5.27566541 11.54285523 4.43791949 9.0625 3.5625 C5.71537325 3.2714455 2.70919529 3.68386619 -0.609375 4.12890625 C-2.8125 4.3125 -2.8125 4.3125 -6 3.75 C-9.45892679 3.21194472 -11.60639803 4.01479206 -14.8125 5.3125 C-14.4375 3.375 -14.4375 3.375 -13.8125 1.3125 C-9.72184806 -0.73282597 -4.49610174 0.0393245 0 0 Z " fill="#1C86B6" transform="translate(23.8125,2.6875)"/>
<path d="M0 0 C0.99 0 1.98 0 3 0 C4.97265625 1.9765625 4.97265625 1.9765625 7.0625 4.625 C8.10083984 5.91277344 8.10083984 5.91277344 9.16015625 7.2265625 C11.07145148 10.10770817 12.02540404 12.69924574 13 16 C13.391875 16.7425 13.78375 17.485 14.1875 18.25 C14.455625 18.8275 14.72375 19.405 15 20 C14.67 20.66 14.34 21.32 14 22 C15.65 22 17.3 22 19 22 C18.67 22.99 18.34 23.98 18 25 C15.625 25.125 15.625 25.125 13 25 C11 23 11 23 10.6875 20.5 C10.3471875 19.2625 10.3471875 19.2625 10 18 C7.7193293 16.78702351 7.7193293 16.78702351 5 16 C2.34765625 14.86328125 2.34765625 14.86328125 0 13 C-0.48828125 9.86328125 -0.48828125 9.86328125 -0.3125 6.3125 C-0.26738281 5.13300781 -0.22226562 3.95351563 -0.17578125 2.73828125 C-0.11777344 1.83464844 -0.05976562 0.93101562 0 0 Z M2 5 C2 6.98 2 8.96 2 11 C3.32 10.34 4.64 9.68 6 9 C4.68 7.68 3.36 6.36 2 5 Z " fill="#0D364A" transform="translate(0,0)"/>
</svg>
