<?xml version="1.0" encoding="UTF-8"?>
<!DOCTYPE svg PUBLIC "-//W3C//DTD SVG 1.1//EN" "http://www.w3.org/Graphics/SVG/1.1/DTD/svg11.dtd">
<svg xmlns="http://www.w3.org/2000/svg" version="1.1" width="48px" height="49px" style="shape-rendering:geometricPrecision; text-rendering:geometricPrecision; image-rendering:optimizeQuality; fill-rule:evenodd; clip-rule:evenodd" xmlns:xlink="http://www.w3.org/1999/xlink">
<g><path style="opacity:0.931" fill="#124e6a" d="M 47.5,7.5 C 47.5,8.16667 47.5,8.83333 47.5,9.5C 46.5166,13.2984 46.1832,17.2984 46.5,21.5C 40.9066,21.8066 35.4066,21.4732 30,20.5C 29.5,21 29,21.5 28.5,22C 34.4908,22.4995 40.4908,22.6662 46.5,22.5C 45.791,23.404 44.791,23.7373 43.5,23.5C 42.8333,23.5 42.1667,23.5 41.5,23.5C 36.3814,24.1031 31.7147,23.4364 27.5,21.5C 27.5,21.1667 27.5,20.8333 27.5,20.5C 28.4584,20.0472 29.2917,19.3805 30,18.5C 30.2069,14.9106 30.7069,11.4106 31.5,8C 36.8229,7.50065 42.1563,7.33398 47.5,7.5 Z M 33.5,9.5 C 37.5,9.5 41.5,9.5 45.5,9.5C 45.5,13.1667 45.5,16.8333 45.5,20.5C 41.1667,20.5 36.8333,20.5 32.5,20.5C 32.3227,16.7657 32.6561,13.0991 33.5,9.5 Z"/></g>
<g><path style="opacity:0.832" fill="#1e84b4" d="M 27.5,20.5 C 27.5,20.8333 27.5,21.1667 27.5,21.5C 26.7326,22.172 26.0659,23.0053 25.5,24C 31.9151,26.6553 34.9151,31.4886 34.5,38.5C 36.8333,38.5 39.1667,38.5 41.5,38.5C 41.5,33.5 41.5,28.5 41.5,23.5C 42.1667,23.5 42.8333,23.5 43.5,23.5C 43.5,28.5 43.5,33.5 43.5,38.5C 44.8333,38.5 46.1667,38.5 47.5,38.5C 47.5,40.1667 47.5,41.8333 47.5,43.5C 31.5,44.8333 15.5,44.8333 -0.5,43.5C -0.5,41.8333 -0.5,40.1667 -0.5,38.5C 0.833333,38.5 2.16667,38.5 3.5,38.5C 3.33358,29.8269 3.50025,21.1603 4,12.5C 6.71914,11.5562 9.55247,11.2229 12.5,11.5C 12.317,9.06365 12.9837,6.89699 14.5,5C 18.5,4.33333 22.5,4.33333 26.5,5C 28.7863,9.99479 29.1196,15.1615 27.5,20.5 Z M 21.5,6.5 C 24.9103,6.38377 26.2436,8.05044 25.5,11.5C 24.1266,11.6567 22.7932,11.49 21.5,11C 22.4132,9.58609 22.4132,8.08609 21.5,6.5 Z M 16.5,6.5 C 17.675,6.28099 18.675,6.61432 19.5,7.5C 18.2889,8.7202 18.2889,9.88686 19.5,11C 18.2068,11.49 16.8734,11.6567 15.5,11.5C 15.366,9.70848 15.6993,8.04181 16.5,6.5 Z M 5.5,14.5 C 7.83333,14.5 10.1667,14.5 12.5,14.5C 12.5965,17.9559 13.5965,21.1226 15.5,24C 9.22302,26.704 6.05635,31.5373 6,38.5C 5.50029,30.5069 5.33362,22.5069 5.5,14.5 Z M 15.5,14.5 C 18.8333,14.5 22.1667,14.5 25.5,14.5C 26.2986,21.5472 23.4652,23.8805 17,21.5C 15.7978,19.3225 15.2978,16.9892 15.5,14.5 Z M 29.5,30.5 C 31.2227,32.78 31.8893,35.4467 31.5,38.5C 27.5,38.5 23.5,38.5 19.5,38.5C 19.9916,34.5435 19.3249,30.8768 17.5,27.5C 19.3153,25.3055 21.482,24.9722 24,26.5C 24.0435,29.4752 23.8769,32.4752 23.5,35.5C 27.938,36.5749 29.938,34.9083 29.5,30.5 Z M 11.5,30.5 C 11.2317,33.1194 11.565,35.6194 12.5,38C 11.1667,38.6667 9.83333,38.6667 8.5,38C 9.07017,35.2445 10.0702,32.7445 11.5,30.5 Z M 15.5,30.5 C 16.8003,33.0241 16.8003,35.6908 15.5,38.5C 14.2706,35.8013 14.2706,33.1346 15.5,30.5 Z"/></g>
<g><path style="opacity:0.361" fill="#13526f" d="M 35.5,11.5 C 38.1667,11.5 40.8333,11.5 43.5,11.5C 43.5,12.5 43.5,13.5 43.5,14.5C 40.8333,14.5 38.1667,14.5 35.5,14.5C 35.5,13.5 35.5,12.5 35.5,11.5 Z"/></g>
<g><path style="opacity:0.945" fill="#114862" d="M 35.5,16.5 C 37.604,16.2011 39.604,16.5344 41.5,17.5C 40.5,17.8333 39.5,18.1667 38.5,18.5C 36.9704,18.3601 35.9704,17.6935 35.5,16.5 Z"/></g>
<g><path style="opacity:1" fill="#0e394d" d="M 47.5,9.5 C 47.5,13.8333 47.5,18.1667 47.5,22.5C 47.1667,22.5 46.8333,22.5 46.5,22.5C 40.4908,22.6662 34.4908,22.4995 28.5,22C 29,21.5 29.5,21 30,20.5C 35.4066,21.4732 40.9066,21.8066 46.5,21.5C 46.1832,17.2984 46.5166,13.2984 47.5,9.5 Z"/></g>
</svg>
