<?xml version="1.0" encoding="UTF-8"?>
<!DOCTYPE svg PUBLIC "-//W3C//DTD SVG 1.1//EN" "http://www.w3.org/Graphics/SVG/1.1/DTD/svg11.dtd">
<svg xmlns="http://www.w3.org/2000/svg" version="1.1" width="48px" height="48px" style="shape-rendering:geometricPrecision; text-rendering:geometricPrecision; image-rendering:optimizeQuality; fill-rule:evenodd; clip-rule:evenodd" xmlns:xlink="http://www.w3.org/1999/xlink">
<g><path style="opacity:0.736" fill="#0d374c" d="M 14.5,-0.5 C 16.1667,-0.5 17.8333,-0.5 19.5,-0.5C 22.1667,2.16667 24.8333,2.16667 27.5,-0.5C 29.1667,-0.5 30.8333,-0.5 32.5,-0.5C 32.6508,4.51373 30.3174,7.6804 25.5,9C 26.7704,13.2613 25.2704,14.4279 21,12.5C 20.3162,11.2161 20.4829,10.0495 21.5,9C 16.6826,7.6804 14.3492,4.51373 14.5,-0.5 Z M 17.5,3.5 C 21.3402,3.61833 25.3402,3.45166 29.5,3C 25.653,7.47662 21.653,7.64329 17.5,3.5 Z"/></g>
<g><path style="opacity:0.744" fill="#1e86b5" d="M 30.5,9.5 C 30.3284,10.4916 30.6618,11.1583 31.5,11.5C 30.3119,15.3428 27.6452,17.3428 23.5,17.5C 18.6769,16.8466 15.5102,14.1799 14,9.5C 9.85736,12.9187 8.52402,17.252 10,22.5C 13.2876,29.9394 15.6209,37.6061 17,45.5C 19.0647,43.2634 20.2314,40.5967 20.5,37.5C 21.1667,37.8333 21.8333,38.1667 22.5,38.5C 22.4848,41.8791 21.4848,44.8791 19.5,47.5C 17.8333,47.5 16.1667,47.5 14.5,47.5C 13.1383,38.573 10.6383,29.9064 7,21.5C 6.10057,16.1983 7.60057,11.6983 11.5,8C 13.2588,7.20245 14.9255,7.36912 16.5,8.5C 20.7254,16.0965 25.392,16.4299 30.5,9.5 Z"/></g>
<g><path style="opacity:0.724" fill="#1e87b6" d="M 32.5,47.5 C 30.8333,47.5 29.1667,47.5 27.5,47.5C 25.5933,44.4572 24.26,41.1239 23.5,37.5C 22.8933,37.6236 22.56,37.9569 22.5,38.5C 21.8333,38.1667 21.1667,37.8333 20.5,37.5C 20.8333,35.5 21.1667,33.5 21.5,31.5C 22.8333,31.5 24.1667,31.5 25.5,31.5C 25.8168,36.6268 27.3168,41.2935 30,45.5C 30.3333,45.1667 30.6667,44.8333 31,44.5C 32.0526,35.5176 34.2192,26.8509 37.5,18.5C 37.6019,14.7038 36.1019,11.7038 33,9.5C 32.7216,10.4158 32.2216,11.0825 31.5,11.5C 30.6618,11.1583 30.3284,10.4916 30.5,9.5C 34.2531,6.51188 37.0865,7.51188 39,12.5C 39.8078,14.4233 40.3078,16.4233 40.5,18.5C 36.9993,27.993 34.3327,37.6596 32.5,47.5 Z"/></g>
</svg>
