<?xml version="1.0" encoding="UTF-8"?>
<svg version="1.1" xmlns="http://www.w3.org/2000/svg" width="48" height="48">
<path d="M0 0 C0.66 0 1.32 0 2 0 C2.020625 0.928125 2.04125 1.85625 2.0625 2.8125 C2.69087947 6.29980471 2.69087947 6.29980471 6.125 7.8125 C9.67990457 9.06370865 13.2521803 9.61756942 17 10 C14.85203658 26.44887781 14.85203658 26.44887781 11 32 C8.36328125 32.76953125 8.36328125 32.76953125 6 33 C4.07089768 29.9805355 2.8627191 27.45087638 2 24 C1.34 23.67 0.68 23.34 0 23 C-0.13277344 23.63808594 -0.26554687 24.27617188 -0.40234375 24.93359375 C-0.57894531 25.75988281 -0.75554688 26.58617188 -0.9375 27.4375 C-1.11152344 28.26121094 -1.28554688 29.08492187 -1.46484375 29.93359375 C-2 32 -2 32 -3 33 C-4.66617115 33.04063832 -6.33388095 33.042721 -8 33 C-11 27.375 -11 27.375 -11 24 C-10.01 24.33 -9.02 24.66 -8 25 C-6.8125 27.5625 -6.8125 27.5625 -6 30 C-4.46478044 27.69717067 -3.41642091 25.82137765 -2.375 23.3125 C-1.92125 22.219375 -1.4675 21.12625 -1 20 C0.65 20 2.3 20 4 20 C4.50403768 21.29009643 5.00309926 22.58213789 5.5 23.875 C5.7784375 24.59429687 6.056875 25.31359375 6.34375 26.0546875 C7 28 7 28 7 30 C9.44398704 29.06598997 9.44398704 29.06598997 10.2890625 25.40234375 C10.74360389 23.91685514 11.18695284 22.42793584 11.625 20.9375 C12.800625 17.0084375 12.800625 17.0084375 14 13 C5.42 13 -3.16 13 -12 13 C-11.67 14.65 -11.34 16.3 -11 18 C-11.99 18.33 -12.98 18.66 -14 19 C-14.33 16.03 -14.66 13.06 -15 10 C-13.329375 9.814375 -13.329375 9.814375 -11.625 9.625 C-7.96896323 9.3534187 -7.96896323 9.3534187 -6 7 C-3.375 6.375 -3.375 6.375 -1 6 C-1.33 5.01 -1.66 4.02 -2 3 C-1.34 3 -0.68 3 0 3 C0 2.01 0 1.02 0 0 Z " fill="#1D84B4" transform="translate(23,14)"/>
<path d="M0 0 C1.51883789 0.00108765 1.51883789 0.00108765 3.06835938 0.00219727 C4.17308594 0.00026367 5.2778125 -0.00166992 6.41601562 -0.00366211 C7.56972656 0.02018555 8.7234375 0.0440332 9.91210938 0.06860352 C11.64267578 0.05216797 11.64267578 0.05216797 13.40820312 0.03540039 C21.80292973 0.10886649 21.80292973 0.10886649 24.203125 2.16650391 C25.41210938 4.63110352 25.41210938 4.63110352 26.41210938 12.63110352 C15.85210937 12.63110352 5.29210937 12.63110352 -5.58789062 12.63110352 C-5.58789062 1.36270729 -5.58789062 1.36270729 0 0 Z M9.41210938 2.63110352 C10.89710937 3.62110352 10.89710937 3.62110352 12.41210938 4.63110352 C13.07210938 3.97110352 13.73210938 3.31110352 14.41210938 2.63110352 C12.76210938 2.63110352 11.11210937 2.63110352 9.41210938 2.63110352 Z M18.41210938 2.63110352 C18.02023438 3.12610352 17.62835937 3.62110352 17.22460938 4.13110352 C15.41210938 5.63110352 15.41210938 5.63110352 12.53710938 5.94360352 C9.41210938 5.63110352 9.41210938 5.63110352 6.84960938 4.50610352 C4.36221326 3.33701837 4.36221326 3.33701837 1.59960938 4.50610352 C0.87773437 4.87735352 0.15585938 5.24860352 -0.58789062 5.63110352 C-0.91789063 4.97110352 -1.24789063 4.31110352 -1.58789062 3.63110352 C-2.24789063 5.94110352 -2.90789063 8.25110352 -3.58789062 10.63110352 C5.32210938 10.63110352 14.23210938 10.63110352 23.41210938 10.63110352 C23.08210938 9.64110352 22.75210938 8.65110352 22.41210938 7.63110352 C22.41210938 8.29110352 22.41210938 8.95110352 22.41210938 9.63110352 C21.75210938 9.63110352 21.09210937 9.63110352 20.41210938 9.63110352 C20.08210938 7.32110352 19.75210938 5.01110352 19.41210938 2.63110352 C19.08210938 2.63110352 18.75210938 2.63110352 18.41210938 2.63110352 Z " fill="#124F6C" transform="translate(13.587890625,0.368896484375)"/>
<path d="M0 0 C0.66 0 1.32 0 2 0 C2.33 1.98 2.66 3.96 3 6 C1.68 6 0.36 6 -1 6 C-1.33 5.01 -1.66 4.02 -2 3 C-1.34 3 -0.68 3 0 3 C0 2.01 0 1.02 0 0 Z " fill="#11526D" transform="translate(23,14)"/>
<path d="M0 0 C0.66 0.33 1.32 0.66 2 1 C2 1.99 2 2.98 2 4 C1.01 3.67 0.02 3.34 -1 3 C-0.67 2.01 -0.34 1.02 0 0 Z " fill="#1F83B5" transform="translate(11,33)"/>
</svg>
