<?xml version="1.0" encoding="UTF-8"?>
<svg version="1.1" xmlns="http://www.w3.org/2000/svg" width="48" height="48">
<path d="M0 0 C0.95455078 -0.02835938 1.90910156 -0.05671875 2.89257812 -0.0859375 C9.87519501 -0.10548296 9.87519501 -0.10548296 13.1875 2.8125 C15.10127933 6.55306869 15.32644994 9.453655 14.5625 13.5 C13.1259449 17.93577511 11.39056112 22.21276143 9.5625 26.5 C9.2325 27.28890625 8.9025 28.0778125 8.5625 28.890625 C7.91031759 30.43328723 7.23941697 31.96803001 6.5625 33.5 C5.2425 33.5 3.9225 33.5 2.5625 33.5 C1.9025 30.53 1.2425 27.56 0.5625 24.5 C-0.4275 27.47 -1.4175 30.44 -2.4375 33.5 C-4.0875 33.17 -5.7375 32.84 -7.4375 32.5 C-7.69144531 31.7265625 -7.94539062 30.953125 -8.20703125 30.15625 C-10.54696414 23.06711802 -10.54696414 23.06711802 -13.125 16.0625 C-14.19170752 13.16715103 -14.96304368 10.53652042 -15.4375 7.5 C-16.4275 7.83 -17.4175 8.16 -18.4375 8.5 C-19.0975 8.17 -19.7575 7.84 -20.4375 7.5 C-20.1075 5.85 -19.7775 4.2 -19.4375 2.5 C-18.81875 2.665 -18.2 2.83 -17.5625 3 C-15.47686614 3.57634644 -15.47686614 3.57634644 -13.4375 3.5 C-12.99913818 3.01466797 -12.56077637 2.52933594 -12.10913086 2.02929688 C-8.8780938 -0.92662778 -4.17035017 -0.01121816 0 0 Z M-10.8125 4 C-12.7012399 6.90575369 -12.73712998 8.56831499 -12.125 11.94140625 C-10.3302282 18.62081267 -8.28476195 25.72910708 -4.4375 31.5 C-2.70144487 29.76394487 -2.78138018 27.29450504 -2.375 24.9375 C-2.19839844 23.92558594 -2.02179687 22.91367187 -1.83984375 21.87109375 C-1.70707031 21.08863281 -1.57429688 20.30617188 -1.4375 19.5 C-0.4475 19.5 0.5425 19.5 1.5625 19.5 C2.5525 23.46 3.5425 27.42 4.5625 31.5 C6.83639045 29.22610955 7.16198262 27.9335267 8 24.875 C8.92633603 21.57344337 9.96249219 18.46251822 11.3125 15.3125 C12.80130574 11.4494409 12.69198925 8.5338902 11.5625 4.5 C8.33458445 2.3480563 7.27849191 2.29913557 3.5625 2.5 C3.2325 3.49 2.9025 4.48 2.5625 5.5 C1.2321875 4.7575 1.2321875 4.7575 -0.125 4 C-4.4585807 2.03762383 -6.71003357 1.40896857 -10.8125 4 Z " fill="#186E96" transform="translate(21.4375,14.5)"/>
<path d="M0 0 C11.88 0 23.76 0 36 0 C36 1.65 36 3.3 36 5 C30.39 5 24.78 5 19 5 C19 7.64 19 10.28 19 13 C15.77599427 13.95807717 12.85714324 14.13422292 9.5 14.125 C8.09234375 14.12886719 8.09234375 14.12886719 6.65625 14.1328125 C4.2785737 14.01392868 2.27316904 13.67551722 0 13 C0.03255208 11.01432292 0.06510417 9.02864583 0.09765625 7.04296875 C0.08263217 4.79694539 0.08263217 4.79694539 -1 2 C-0.67 1.34 -0.34 0.68 0 0 Z M3 5 C2.67 6.98 2.34 8.96 2 11 C7.37625234 11.84888195 11.65370398 12.0024305 17 11 C17 9.02 17 7.04 17 5 C16.34 5 15.68 5 15 5 C15 6.32 15 7.64 15 9 C14.34 9 13.68 9 13 9 C13 7.68 13 6.36 13 5 C12.34 5 11.68 5 11 5 C11 5.99 11 6.98 11 8 C10.34 8 9.68 8 9 8 C9 7.01 9 6.02 9 5 C8.34 5 7.68 5 7 5 C7 6.32 7 7.64 7 9 C6.34 9 5.68 9 5 9 C5 7.68 5 6.36 5 5 C4.34 5 3.68 5 3 5 Z " fill="#0E374B" transform="translate(12,0)"/>
<path d="M0 0 C2.6875 0.3125 2.6875 0.3125 5 1 C3.42304761 2.05130159 1.84425268 3.10012328 0.25 4.125 C-1.49144282 6.73716423 -0.88948681 8.75152137 -0.45849609 11.74951172 C0.30422189 15.49324675 1.64969815 18.95980048 3.0625 22.5 C3.34416016 23.22703125 3.62582031 23.9540625 3.91601562 24.703125 C4.60258448 26.47191255 5.30013682 28.23643041 6 30 C6.33 27.69 6.66 25.38 7 23 C9.56687367 26.8503105 8.83288724 28.58569763 8 33 C6.35 32.67 4.7 32.34 3 32 C2.74605469 31.2265625 2.49210938 30.453125 2.23046875 29.65625 C-0.10946414 22.56711802 -0.10946414 22.56711802 -2.6875 15.5625 C-3.75420752 12.66715103 -4.52554368 10.03652042 -5 7 C-5.99 7.33 -6.98 7.66 -8 8 C-8.66 7.67 -9.32 7.34 -10 7 C-9.67 5.35 -9.34 3.7 -9 2 C-8.38125 2.165 -7.7625 2.33 -7.125 2.5 C-5.03936614 3.07634644 -5.03936614 3.07634644 -3 3 C-2.566875 2.484375 -2.13375 1.96875 -1.6875 1.4375 C-1.130625 0.963125 -0.57375 0.48875 0 0 Z " fill="#186C95" transform="translate(11,15)"/>
<path d="M0 0 C1.2065625 0.0309375 1.2065625 0.0309375 2.4375 0.0625 C3.0625 1.875 3.0625 1.875 3.4375 4.0625 C2.4475 5.5475 2.4475 5.5475 1.4375 7.0625 C0.1175 6.7325 -1.2025 6.4025 -2.5625 6.0625 C-2.94468767 4.40635343 -3.27645102 2.73792976 -3.5625 1.0625 C-2.5625 0.0625 -2.5625 0.0625 0 0 Z M-0.5625 2.0625 C-0.8925 2.7225 -1.2225 3.3825 -1.5625 4.0625 C-0.9025 4.0625 -0.2425 4.0625 0.4375 4.0625 C0.1075 3.4025 -0.2225 2.7425 -0.5625 2.0625 Z " fill="#0C394B" transform="translate(7.5625,7.9375)"/>
<path d="M0 0 C1.98 0.495 1.98 0.495 4 1 C4 2.32 4 3.64 4 5 C3.01 5.33 2.02 5.66 1 6 C0.34 5.67 -0.32 5.34 -1 5 C-0.67 3.35 -0.34 1.7 0 0 Z " fill="#0C394C" transform="translate(2,17)"/>
<path d="M0 0 C0.99 0.33 1.98 0.66 3 1 C3 2.32 3 3.64 3 5 C1.68 5 0.36 5 -1 5 C-0.67 3.35 -0.34 1.7 0 0 Z " fill="#0C384A" transform="translate(39,19)"/>
</svg>
