<?xml version="1.0" encoding="UTF-8"?>
<!DOCTYPE svg PUBLIC "-//W3C//DTD SVG 1.1//EN" "http://www.w3.org/Graphics/SVG/1.1/DTD/svg11.dtd">
<svg xmlns="http://www.w3.org/2000/svg" version="1.1" width="47px" height="48px" style="shape-rendering:geometricPrecision; text-rendering:geometricPrecision; image-rendering:optimizeQuality; fill-rule:evenodd; clip-rule:evenodd" xmlns:xlink="http://www.w3.org/1999/xlink">
<g><path style="opacity:0.589" fill="#0e364a" d="M 10.5,-0.5 C 17.1667,-0.5 23.8333,-0.5 30.5,-0.5C 35.3054,0.487173 40.3054,0.820506 45.5,0.5C 45.5,1.83333 45.5,3.16667 45.5,4.5C 40.4889,4.33407 35.4889,4.50074 30.5,5C 29.4216,5.67386 28.7549,6.67386 28.5,8C 29.1662,9.66867 29.1662,11.1687 28.5,12.5C 23.533,13.6623 18.533,13.8289 13.5,13C 11.7139,12.8038 10.3805,11.9705 9.5,10.5C 9.94489,6.79473 10.2782,3.12807 10.5,-0.5 Z M 12.5,5.5 C 13.8589,6.00654 14.8589,7.00654 15.5,8.5C 16.3333,7.5 17.1667,6.5 18,5.5C 19.3468,9.37498 20.5135,9.37498 21.5,5.5C 23.6672,10.5752 25.0006,10.5752 25.5,5.5C 26.9479,8.21283 26.2812,10.2128 23.5,11.5C 19.8416,10.8284 16.175,10.4951 12.5,10.5C 12.5,8.83333 12.5,7.16667 12.5,5.5 Z"/></g>
<g><path style="opacity:0.716" fill="#0e374c" d="M 3.5,7.5 C 8.32758,7.38524 9.66091,9.55191 7.5,14C 2.17662,14.1802 0.843289,12.0136 3.5,7.5 Z M 4.5,9.5 C 6.33702,9.63945 6.67036,10.3061 5.5,11.5C 4.70245,11.0431 4.36912,10.3764 4.5,9.5 Z"/></g>
<g><path style="opacity:0.905" fill="#0d384c" d="M -0.5,21.5 C -0.5,20.1667 -0.5,18.8333 -0.5,17.5C 3.66417,16.2996 4.9975,17.7996 3.5,22C 2.07153,22.5791 0.738195,22.4124 -0.5,21.5 Z"/></g>
<g><path style="opacity:0.566" fill="#0e3446" d="M 35.5,19.5 C 38.9496,18.7564 40.6162,20.0897 40.5,23.5C 37.0504,24.2436 35.3838,22.9103 35.5,19.5 Z"/></g>
<g><path style="opacity:0.818" fill="#196d95" d="M 29.5,15.5 C 28.4937,15.9377 28.4937,16.6043 29.5,17.5C 26.1037,16.0704 23.1037,16.7371 20.5,19.5C 18.3131,18.242 15.9798,17.242 13.5,16.5C 9.43165,16.9976 7.43165,19.331 7.5,23.5C 10.4187,30.6648 12.752,37.9982 14.5,45.5C 14.0623,46.5063 13.3957,46.5063 12.5,45.5C 10.6593,39.8263 8.49266,34.1596 6,28.5C 5.14625,24.3749 5.47958,20.3749 7,16.5C 8.90739,15.0702 11.0741,14.4035 13.5,14.5C 18.9847,15.027 24.318,15.3604 29.5,15.5 Z"/></g>
<g><path style="opacity:0.094" fill="#0f3d57" d="M 29.5,17.5 C 30.4959,17.4142 31.3292,17.7476 32,18.5C 32.1667,20.1667 32.3333,21.8333 32.5,23.5C 32.6839,26.2046 32.0173,28.5379 30.5,30.5C 32.1366,25.9041 31.8033,21.5708 29.5,17.5 Z"/></g>
<g><path style="opacity:0.714" fill="#1d82af" d="M 29.5,15.5 C 33.1532,16.7861 34.8199,19.4527 34.5,23.5C 32.0175,31.6143 29.3508,39.6143 26.5,47.5C 25.1667,47.5 23.8333,47.5 22.5,47.5C 22.5,47.1667 22.5,46.8333 22.5,46.5C 22.4821,42.3926 21.8154,38.3926 20.5,34.5C 19.8933,34.6236 19.56,34.9569 19.5,35.5C 19.2182,39.574 18.5515,43.574 17.5,47.5C 17.1667,47.5 16.8333,47.5 16.5,47.5C 16.8551,42.333 17.8551,37.333 19.5,32.5C 20.4959,32.4142 21.3292,32.7476 22,33.5C 22.974,37.1731 23.8074,40.8398 24.5,44.5C 24.3932,46.3786 24.8932,46.7119 26,45.5C 27.3095,41.9296 28.1428,38.263 28.5,34.5C 28.6596,32.847 29.3263,31.5137 30.5,30.5C 32.0173,28.5379 32.6839,26.2046 32.5,23.5C 32.3333,21.8333 32.1667,20.1667 32,18.5C 31.3292,17.7476 30.4959,17.4142 29.5,17.5C 28.4937,16.6043 28.4937,15.9377 29.5,15.5 Z"/></g>
<g><path style="opacity:0.992" fill="#124966" d="M 28.5,34.5 C 28.1428,38.263 27.3095,41.9296 26,45.5C 24.8932,46.7119 24.3932,46.3786 24.5,44.5C 25.8333,41.1667 27.1667,37.8333 28.5,34.5 Z"/></g>
<g><path style="opacity:0.257" fill="#104661" d="M 19.5,35.5 C 19.56,34.9569 19.8933,34.6236 20.5,34.5C 21.8154,38.3926 22.4821,42.3926 22.5,46.5C 21.2248,42.8977 20.2248,39.231 19.5,35.5 Z"/></g>
<g><path style="opacity:1" fill="#14506f" d="M 19.5,32.5 C 17.8551,37.333 16.8551,42.333 16.5,47.5C 15.1667,47.5 13.8333,47.5 12.5,47.5C 12.5,46.8333 12.5,46.1667 12.5,45.5C 13.3957,46.5063 14.0623,46.5063 14.5,45.5C 15.9251,42.0968 16.7585,38.4302 17,34.5C 17.4169,33.244 18.2502,32.5774 19.5,32.5 Z"/></g>
</svg>
