<?xml version="1.0" encoding="UTF-8"?>
<!DOCTYPE svg PUBLIC "-//W3C//DTD SVG 1.1//EN" "http://www.w3.org/Graphics/SVG/1.1/DTD/svg11.dtd">
<svg xmlns="http://www.w3.org/2000/svg" version="1.1" width="48px" height="48px" style="shape-rendering:geometricPrecision; text-rendering:geometricPrecision; image-rendering:optimizeQuality; fill-rule:evenodd; clip-rule:evenodd" xmlns:xlink="http://www.w3.org/1999/xlink">
<g><path style="opacity:1" fill="#124963" d="M 35.5,4.5 C 35.1583,5.33825 34.4916,5.67158 33.5,5.5C 27.9261,4.45619 23.2594,5.95619 19.5,10C 18.552,10.4828 17.552,10.6495 16.5,10.5C 16.5,10.1667 16.5,9.83333 16.5,9.5C 21.5681,2.69507 27.9015,1.02841 35.5,4.5 Z"/></g>
<g><path style="opacity:0.67" fill="#1e84b5" d="M 16.5,9.5 C 16.5,9.83333 16.5,10.1667 16.5,10.5C 17.1125,14.163 17.2792,17.8297 17,21.5C 15.3308,22.8463 14.1642,24.513 13.5,26.5C 12.5222,26.189 11.8555,25.5223 11.5,24.5C 12.711,22.5781 14.0443,20.7448 15.5,19C 14.7256,16.595 14.2256,14.095 14,11.5C 11.2628,10.3895 8.42945,10.2228 5.5,11C 4.64526,16.4337 5.64526,21.6004 8.5,26.5C 7.50838,26.3284 6.84171,26.6618 6.5,27.5C 2.91527,22.0797 1.7486,16.0797 3,9.5C 7.49861,6.87468 11.9986,6.87468 16.5,9.5 Z"/></g>
<g><path style="opacity:0.992" fill="#124b66" d="M 35.5,4.5 C 41.4877,7.1207 44.4877,11.7874 44.5,18.5C 44.2073,23.7598 41.874,27.7598 37.5,30.5C 37.1667,30.5 36.8333,30.5 36.5,30.5C 36.3505,29.448 36.5172,28.448 37,27.5C 43.8061,18.9292 42.6394,11.5959 33.5,5.5C 34.4916,5.67158 35.1583,5.33825 35.5,4.5 Z"/></g>
<g><path style="opacity:1" fill="#124a65" d="M 26.5,10.5 C 30.2407,9.59853 32.2407,10.9319 32.5,14.5C 36.4735,15.0755 37.4735,17.2421 35.5,21C 34.552,21.4828 33.552,21.6495 32.5,21.5C 31.9245,25.4735 29.7579,26.4735 26,24.5C 25.5172,23.552 25.3505,22.552 25.5,21.5C 21.5265,20.9245 20.5265,18.7579 22.5,15C 23.448,14.5172 24.448,14.3505 25.5,14.5C 25.4326,13.0413 25.7659,11.7079 26.5,10.5 Z M 28.5,13.5 C 28.991,16.1523 30.6576,17.6523 33.5,18C 30.2712,18.3563 28.7712,20.1897 29,23.5C 29.1667,19.6667 27.3333,17.8333 23.5,18C 26.9008,18.266 28.5674,16.766 28.5,13.5 Z"/></g>
<g><path style="opacity:0.793" fill="#1e85b5" d="M 13.5,26.5 C 16.4645,28.4483 19.4645,30.4483 22.5,32.5C 25.9927,29.2511 29.9927,28.5844 34.5,30.5C 34.1667,31.1667 33.8333,31.8333 33.5,32.5C 31.5328,32.7394 29.6995,32.4061 28,31.5C 26.5867,33.4136 24.7534,34.7469 22.5,35.5C 17.8605,34.0363 14.8605,31.0363 13.5,26.5 Z"/></g>
<g><path style="opacity:0.777" fill="#1d83b5" d="M 34.5,30.5 C 35.1667,30.5 35.8333,30.5 36.5,30.5C 36.8333,30.5 37.1667,30.5 37.5,30.5C 40.1253,35.0014 40.1253,39.5014 37.5,44C 35.8659,44.4935 34.1992,44.6602 32.5,44.5C 33.1667,43.8333 33.8333,43.1667 34.5,42.5C 35.1174,42.3893 35.6174,42.056 36,41.5C 36.6667,38.8333 36.6667,36.1667 36,33.5C 35.3292,32.7476 34.4959,32.4142 33.5,32.5C 33.8333,31.8333 34.1667,31.1667 34.5,30.5 Z"/></g>
<g><path style="opacity:0.741" fill="#1d84b2" d="M 8.5,26.5 C 14.331,36.3114 22.9977,41.6448 34.5,42.5C 33.8333,43.1667 33.1667,43.8333 32.5,44.5C 20.625,43.6067 11.9583,37.94 6.5,27.5C 6.84171,26.6618 7.50838,26.3284 8.5,26.5 Z"/></g>
</svg>
