<?xml version="1.0" encoding="UTF-8"?>
<!DOCTYPE svg PUBLIC "-//W3C//DTD SVG 1.1//EN" "http://www.w3.org/Graphics/SVG/1.1/DTD/svg11.dtd">
<svg xmlns="http://www.w3.org/2000/svg" version="1.1" width="48px" height="48px" style="shape-rendering:geometricPrecision; text-rendering:geometricPrecision; image-rendering:optimizeQuality; fill-rule:evenodd; clip-rule:evenodd" xmlns:xlink="http://www.w3.org/1999/xlink">
<g><path style="opacity:0.917" fill="#197098" d="M 2.5,-0.5 C 4.83333,-0.5 7.16667,-0.5 9.5,-0.5C 9.58577,0.495904 9.25244,1.32924 8.5,2C 6.5273,2.49546 4.5273,2.66212 2.5,2.5C 2.5,7.5 2.5,12.5 2.5,17.5C 5.75529,17.0136 8.42196,18.0136 10.5,20.5C 11.646,19.8551 12.646,19.0217 13.5,18C 24.0766,17.8211 34.5766,17.3211 45,16.5C 45.7991,11.9132 45.6324,7.41316 44.5,3C 34.1667,2.66667 23.8333,2.33333 13.5,2C 11.065,1.92524 10.3984,1.0919 11.5,-0.5C 22.5,-0.5 33.5,-0.5 44.5,-0.5C 45.2905,0.40128 46.2905,1.06795 47.5,1.5C 47.5,6.83333 47.5,12.1667 47.5,17.5C 46.6906,18.4687 45.6906,19.3021 44.5,20C 34.5,20.3333 24.5,20.6667 14.5,21C 13.3147,22.353 11.9814,23.5197 10.5,24.5C 7.05832,21.7363 3.39165,19.4029 -0.5,17.5C -0.5,12.5 -0.5,7.5 -0.5,2.5C 0.5,1.5 1.5,0.5 2.5,-0.5 Z M 23.5,8.5 C 25.2726,9.31431 25.7726,10.6476 25,12.5C 24.3333,11.1667 23.6667,11.1667 23,12.5C 22.6258,11.5838 22.1258,10.7504 21.5,10C 22.4158,9.72158 23.0825,9.22158 23.5,8.5 Z M 9.5,8.5 C 12.6741,8.95221 13.0075,9.95221 10.5,11.5C 8.4807,10.8671 8.14737,9.86709 9.5,8.5 Z M 36.5,8.5 C 38.2726,9.31431 38.7726,10.6476 38,12.5C 37.3333,11.1667 36.6667,11.1667 36,12.5C 35.6258,11.5838 35.1258,10.7504 34.5,10C 35.4158,9.72158 36.0825,9.22158 36.5,8.5 Z"/></g>
<g><path style="opacity:0.851" fill="#196f98" d="M 22.5,4.5 C 24.6719,5.80112 27.0052,6.80112 29.5,7.5C 28.3608,10.0037 27.6941,12.6703 27.5,15.5C 24.8333,14.1667 22.1667,14.1667 19.5,15.5C 19.6126,12.9512 18.9459,10.6179 17.5,8.5C 19.8263,7.85528 21.493,6.52195 22.5,4.5 Z M 23.5,8.5 C 23.0825,9.22158 22.4158,9.72158 21.5,10C 22.1258,10.7504 22.6258,11.5838 23,12.5C 23.6667,11.1667 24.3333,11.1667 25,12.5C 25.7726,10.6476 25.2726,9.31431 23.5,8.5 Z"/></g>
<g><path style="opacity:1" fill="#19709a" d="M 9.5,4.5 C 11.4105,6.28384 13.7438,7.28384 16.5,7.5C 15.3608,10.0037 14.6941,12.6703 14.5,15.5C 11.8333,14.1667 9.16667,14.1667 6.5,15.5C 6.30591,12.6703 5.63925,10.0037 4.5,7.5C 6.98935,7.75934 8.65601,6.75934 9.5,4.5 Z M 9.5,8.5 C 8.14737,9.86709 8.4807,10.8671 10.5,11.5C 13.0075,9.95221 12.6741,8.95221 9.5,8.5 Z"/></g>
<g><path style="opacity:0.925" fill="#1a719b" d="M 35.5,4.5 C 37.6719,5.80112 40.0052,6.80112 42.5,7.5C 41.3608,10.0037 40.6941,12.6703 40.5,15.5C 37.8333,14.1667 35.1667,14.1667 32.5,15.5C 32.8957,12.9556 32.229,10.7889 30.5,9C 32.7669,8.10646 34.4336,6.60646 35.5,4.5 Z M 36.5,8.5 C 36.0825,9.22158 35.4158,9.72158 34.5,10C 35.1258,10.7504 35.6258,11.5838 36,12.5C 36.6667,11.1667 37.3333,11.1667 38,12.5C 38.7726,10.6476 38.2726,9.31431 36.5,8.5 Z"/></g>
<g><path style="opacity:0.7" fill="#0e364a" d="M 14.5,47.5 C 11.8333,47.5 9.16667,47.5 6.5,47.5C 3.42355,45.4274 1.09021,42.7608 -0.5,39.5C -0.5,37.5 -0.5,35.5 -0.5,33.5C 3.81849,26.2528 9.81849,24.5861 17.5,28.5C 23.3463,35.933 22.3463,42.2663 14.5,47.5 Z M 7.5,28.5 C 16.3434,28.005 19.6768,32.005 17.5,40.5C 14.6213,39.1974 13.9546,37.1974 15.5,34.5C 13.8174,30.5146 10.984,29.5146 7,31.5C 5.40516,33.4248 5.23849,35.4248 6.5,37.5C 5.83333,38.8333 4.83333,39.8333 3.5,40.5C 1.47101,35.2839 2.80434,31.2839 7.5,28.5 Z M 9.5,32.5 C 11.9118,32.6941 12.9118,34.0274 12.5,36.5C 11.1667,36.5 9.83333,36.5 8.5,36.5C 8.43255,35.0413 8.76589,33.7079 9.5,32.5 Z M 8.5,39.5 C 11.5993,39.0923 13.9326,40.259 15.5,43C 12.1667,46.3333 8.83333,46.3333 5.5,43C 6.7101,41.9609 7.7101,40.7942 8.5,39.5 Z"/></g>
<g><path style="opacity:0.689" fill="#0d374c" d="M 47.5,28.5 C 47.5,29.5 47.5,30.5 47.5,31.5C 39.5856,32.4672 31.5856,32.8005 23.5,32.5C 23.5,30.8333 23.5,29.1667 23.5,27.5C 31.5856,27.1995 39.5856,27.5328 47.5,28.5 Z"/></g>
<g><path style="opacity:0.716" fill="#0e374c" d="M 47.5,34.5 C 47.5,35.8333 47.5,37.1667 47.5,38.5C 39.5856,39.4672 31.5856,39.8005 23.5,39.5C 23.5,37.8333 23.5,36.1667 23.5,34.5C 29.5368,34.1707 35.5368,34.5041 41.5,35.5C 36.1975,36.3295 30.8642,36.8295 25.5,37C 32.1667,37.6667 38.8333,37.6667 45.5,37C 44.376,36.7508 43.376,36.2508 42.5,35.5C 44.0453,34.5481 45.712,34.2148 47.5,34.5 Z"/></g>
<g><path style="opacity:0.71" fill="#0e384b" d="M 47.5,41.5 C 47.5,42.8333 47.5,44.1667 47.5,45.5C 41.8867,46.7851 36.2201,46.7851 30.5,45.5C 35.4671,44.671 40.4671,44.171 45.5,44C 38.8333,43.3333 32.1667,43.3333 25.5,44C 26.938,44.2189 28.2713,44.7189 29.5,45.5C 27.604,46.4656 25.604,46.7989 23.5,46.5C 23.5,44.8333 23.5,43.1667 23.5,41.5C 31.5,41.5 39.5,41.5 47.5,41.5 Z"/></g>
</svg>
