<?xml version="1.0" encoding="UTF-8"?>
<svg version="1.1" xmlns="http://www.w3.org/2000/svg" width="47" height="48">
<path d="M0 0 C3.76180228 1.61817947 5.90433261 3.24829565 9 6 C8.67 9.63 8.34 13.26 8 17 C7.01 17 6.02 17 5 17 C5 17.99 5 18.98 5 20 C3.68 20 2.36 20 1 20 C0.67 22.97 0.34 25.94 0 29 C-1.32 29.33 -2.64 29.66 -4 30 C-4.41572266 29.06027344 -4.41572266 29.06027344 -4.83984375 28.1015625 C-5.20207031 27.28429687 -5.56429688 26.46703125 -5.9375 25.625 C-6.29714844 24.81289063 -6.65679688 24.00078125 -7.02734375 23.1640625 C-7.6569903 21.76316215 -8.31312642 20.37374716 -9 19 C-10.32 22.3 -11.64 25.6 -13 29 C-11.453125 29.70125 -9.90625 30.4025 -8.3125 31.125 C-7.44238281 31.51945312 -6.57226562 31.91390625 -5.67578125 32.3203125 C-2.35789683 33.16310358 -1.02721816 32.45306471 2 31 C4.8125 30.875 4.8125 30.875 7 31 C7.495 33.475 7.495 33.475 8 36 C-2.53938257 44.12189844 -2.53938257 44.12189844 -9 44 C-11.43933609 43.50060836 -13.63698775 42.81982058 -16 42 C-16.33 42.99 -16.66 43.98 -17 45 C-20.0625 46.6875 -20.0625 46.6875 -23 48 C-24.17520646 46.40207898 -25.33991247 44.79643092 -26.5 43.1875 C-27.1496875 42.29417969 -27.799375 41.40085938 -28.46875 40.48046875 C-30 38 -30 38 -30 35 C-26.32825768 32.32964195 -22.17583822 30.7194628 -18 29 C-18.28151087 27.68528432 -18.57553339 26.37324233 -18.875 25.0625 C-19.03742187 24.33160156 -19.19984375 23.60070312 -19.3671875 22.84765625 C-19.82961523 20.79299706 -19.82961523 20.79299706 -22 20 C-22 20.66 -22 21.32 -22 22 C-22.66 22 -23.32 22 -24 22 C-24.33 20.68 -24.66 19.36 -25 18 C-24.01 17.34 -23.02 16.68 -22 16 C-23.2065625 14.9171875 -23.2065625 14.9171875 -24.4375 13.8125 C-27.10398851 10.88586627 -27.4507338 9.75647576 -28 6 C-19.82102736 -0.90486133 -10.29591458 -1.93002004 0 0 Z M-19.375 4.25 C-21.33915287 7.04157884 -21.33915287 7.04157884 -21 11 C-17.4517225 12.09848394 -14.13789215 12.13341955 -10.4375 12.125 C-8.73400391 12.12886719 -8.73400391 12.12886719 -6.99609375 12.1328125 C-3.94766002 12.1347228 -3.94766002 12.1347228 -1 11 C-1 10.01 -1 9.02 -1 8 C-0.01 8 0.98 8 2 8 C1.72382467 6.05925139 1.72382467 6.05925139 1 4 C-4.13932197 0.57378536 -14.52363984 -0.33340712 -19.375 4.25 Z M-25 7 C-25.33 7.66 -25.66 8.32 -26 9 C-25.01 9.33 -24.02 9.66 -23 10 C-23 9.01 -23 8.02 -23 7 C-23.66 7 -24.32 7 -25 7 Z M5 7 C5 7.66 5 8.32 5 9 C5.66 8.67 6.32 8.34 7 8 C6.34 7.67 5.68 7.34 5 7 Z M2 10 C1.67 10.66 1.34 11.32 1 12 C0.01 12.33 -0.98 12.66 -2 13 C-2 13.66 -2 14.32 -2 15 C-1.01 15.33 -0.02 15.66 1 16 C1.66 16.66 2.32 17.32 3 18 C3 17.01 3 16.02 3 15 C3.99 15 4.98 15 6 15 C6 14.34 6 13.68 6 13 C5.01 13 4.02 13 3 13 C2.67 12.01 2.34 11.02 2 10 Z M-19 14 C-18.01 18.29 -17.02 22.58 -16 27 C-13.55160412 23.32740617 -12 20.45351799 -12 16 C-9.75 15.9375 -9.75 15.9375 -7 17 C-5.30699573 19.86674844 -4.13036377 22.87413371 -3 26 C-1.25434889 22.78360346 -0.795563 20.67986596 -1 17 C-1.99 17 -2.98 17 -4 17 C-4 16.01 -4 15.02 -4 14 C-8.95 14 -13.9 14 -19 14 Z M-21 34 C-20.47939402 36.49980673 -20.47939402 36.49980673 -19 39 C-15.999022 40.33517473 -15.999022 40.33517473 -12.5 40.9375 C-10.75203125 41.32228516 -10.75203125 41.32228516 -8.96875 41.71484375 C-7.9890625 41.80894531 -7.009375 41.90304688 -6 42 C-5.34 41.34 -4.68 40.68 -4 40 C-6.64 39.34 -9.28 38.68 -12 38 C-12 37.34 -12 36.68 -12 36 C-9.69 36.33 -7.38 36.66 -5 37 C-5 36.34 -5 35.68 -5 35 C-6.41396902 34.49242138 -7.83131729 33.99425075 -9.25 33.5 C-10.03890625 33.2215625 -10.8278125 32.943125 -11.640625 32.65625 C-15.65219585 31.54044884 -17.52443095 31.68295397 -21 34 Z M4 33 C1.36 34.98 -1.28 36.96 -4 39 C-0.00095031 39 1.80200422 37.27413033 5 35 C4.67 34.34 4.34 33.68 4 33 Z M-25 35 C-25.99 35.495 -25.99 35.495 -27 36 C-25.87548273 38.9719385 -24.77706209 41.33440687 -23 44 C-22.01 43.67 -21.02 43.34 -20 43 C-21.1858237 39.62496331 -22.27573689 37.35277269 -25 35 Z " fill="#114D68" transform="translate(34,0)"/>
<path d="M0 0 C2.66691391 0.80103229 2.66691391 0.80103229 5.41796875 -1.5390625 C8.10546875 -1.6640625 8.10546875 -1.6640625 10.41796875 -1.5390625 C10.91296875 0.9359375 10.91296875 0.9359375 11.41796875 3.4609375 C0.87858618 11.58283594 0.87858618 11.58283594 -5.58203125 11.4609375 C-8.02136734 10.96154586 -10.219019 10.28075808 -12.58203125 9.4609375 C-12.91203125 10.4509375 -13.24203125 11.4409375 -13.58203125 12.4609375 C-16.64453125 14.1484375 -16.64453125 14.1484375 -19.58203125 15.4609375 C-20.75723771 13.86301648 -21.92194372 12.25736842 -23.08203125 10.6484375 C-23.73171875 9.75511719 -24.38140625 8.86179687 -25.05078125 7.94140625 C-26.58203125 5.4609375 -26.58203125 5.4609375 -26.58203125 2.4609375 C-24.39453125 0.8984375 -24.39453125 0.8984375 -21.58203125 -0.5390625 C-20.81890625 -0.9309375 -20.05578125 -1.3228125 -19.26953125 -1.7265625 C-12.36016346 -3.81544113 -6.65067917 -2.19500554 0 0 Z M-17.58203125 1.4609375 C-17.06142527 3.96074423 -17.06142527 3.96074423 -15.58203125 6.4609375 C-12.58105325 7.79611223 -12.58105325 7.79611223 -9.08203125 8.3984375 C-7.3340625 8.78322266 -7.3340625 8.78322266 -5.55078125 9.17578125 C-4.57109375 9.26988281 -3.59140625 9.36398438 -2.58203125 9.4609375 C-1.92203125 8.8009375 -1.26203125 8.1409375 -0.58203125 7.4609375 C-3.22203125 6.8009375 -5.86203125 6.1409375 -8.58203125 5.4609375 C-8.58203125 4.8009375 -8.58203125 4.1409375 -8.58203125 3.4609375 C-6.27203125 3.7909375 -3.96203125 4.1209375 -1.58203125 4.4609375 C-1.58203125 3.8009375 -1.58203125 3.1409375 -1.58203125 2.4609375 C-2.99600027 1.95335888 -4.41334854 1.45518825 -5.83203125 0.9609375 C-6.6209375 0.6825 -7.40984375 0.4040625 -8.22265625 0.1171875 C-12.2342271 -0.99861366 -14.1064622 -0.85610853 -17.58203125 1.4609375 Z M7.41796875 0.4609375 C4.77796875 2.4409375 2.13796875 4.4209375 -0.58203125 6.4609375 C3.41701844 6.4609375 5.21997297 4.73506783 8.41796875 2.4609375 C8.08796875 1.8009375 7.75796875 1.1409375 7.41796875 0.4609375 Z M-21.58203125 2.4609375 C-22.57203125 2.9559375 -22.57203125 2.9559375 -23.58203125 3.4609375 C-22.45751398 6.432876 -21.35909334 8.79534437 -19.58203125 11.4609375 C-18.59203125 11.1309375 -17.60203125 10.8009375 -16.58203125 10.4609375 C-17.76785495 7.08590081 -18.85776814 4.81371019 -21.58203125 2.4609375 Z " fill="#1C88B6" transform="translate(30.58203125,32.5390625)"/>
<path d="M0 0 C0.99 0.33 1.98 0.66 3 1 C2.67 2.98 2.34 4.96 2 7 C0.68 6.34 -0.64 5.68 -2 5 C-2 3.68 -2 2.36 -2 1 C-1.34 0.67 -0.68 0.34 0 0 Z M-1 2 C-1 2.66 -1 3.32 -1 4 C-0.34 3.67 0.32 3.34 1 3 C0.34 2.67 -0.32 2.34 -1 2 Z " fill="#11506D" transform="translate(40,5)"/>
<path d="M0 0 C0.99 0 1.98 0 3 0 C3.33 1.32 3.66 2.64 4 4 C2.68 4.33 1.36 4.66 0 5 C-0.33 4.01 -0.66 3.02 -1 2 C-0.67 1.34 -0.34 0.68 0 0 Z " fill="#11506B" transform="translate(37,24)"/>
<path d="M0 0 C0.99 0.33 1.98 0.66 3 1 C2.34 1 1.68 1 1 1 C1 2.32 1 3.64 1 5 C1.99 5.33 2.98 5.66 4 6 C4 6.66 4 7.32 4 8 C2.68 8 1.36 8 0 8 C0 5.36 0 2.72 0 0 Z " fill="#0F3F56" transform="translate(37,5)"/>
</svg>
