<?xml version="1.0" encoding="UTF-8"?>
<svg version="1.1" xmlns="http://www.w3.org/2000/svg" width="40" height="40">
<path d="M0 0 C3.43203773 0.78650865 5.06075492 2.06793475 7.16015625 4.8984375 C9.02159897 8.86374338 7.30279635 12.77911095 6 16.6875 C8.09502886 21.07708428 11.40635797 24.96488424 16 26.6875 C18.54295238 25.92040201 18.54295238 25.92040201 21 24.6875 C24.84584288 23.99722051 25.94218214 24.6504093 29.3125 26.8125 C32 29.6875 32 29.6875 32.6875 32.6875 C31.71813589 36.91745247 30.63075002 38.26699999 27 40.6875 C20.99481982 41.76655581 15.33869745 41.23053267 10.0390625 38.14453125 C2.11810148 32.4845342 -4.86250144 26.09999568 -8 16.6875 C-8.58390673 11.29887502 -8.94476105 7.10464158 -5.875 2.5 C-3 0.6875 -3 0.6875 0 0 Z M-3.6875 5.1875 C-5.85311004 7.94607469 -6.00079722 8.70344431 -6.1875 12.4375 C-4.22179594 21.88730669 2.36726331 29.19949924 10 34.6875 C14.3470113 37.33065763 17.6883362 38.6875 22.8125 38.6875 C26.25863296 37.60636025 27.75493831 36.47137649 30 33.6875 C28.63016497 30.52634224 28.0109362 29.6947908 25 27.6875 C22.21144878 28.08321756 22.21144878 28.08321756 20 29.6875 C14.38865544 29.57527311 11.46158803 28.01987165 7.51171875 24.30078125 C4.75092158 21.35450417 3.15761675 19.04300403 2.6875 15 C3 12.6875 3 12.6875 5 10.6875 C4.66555164 7.34301641 3.21127671 5.16412991 1 2.6875 C-1.36768971 2.46046535 -1.36768971 2.46046535 -3.6875 5.1875 Z " fill="#FFFFFF" transform="translate(8,-0.6875)"/>
<path d="M0 0 C6.09940955 -0.42064893 9.13663653 -0.08964656 14 4 C18.74224759 9.38309186 19.11238078 12.03239134 19 19 C18.34 19 17.68 19 17 19 C16.78085937 18.25234375 16.56171875 17.5046875 16.3359375 16.734375 C14.3439086 10.43088335 14.3439086 10.43088335 10.1875 5.4375 C6.78587826 3.90343529 3.62361542 2.8696677 0 2 C0 1.34 0 0.68 0 0 Z " fill="#1C84B2" transform="translate(21,0)"/>
<path d="M0 0 C4.14030433 0.24354731 6.5031277 0.63274656 9.875 3.125 C12.36725344 6.4968723 12.75645269 8.85969567 13 13 C12.01 13 11.02 13 10 13 C9.34 10.36 8.68 7.72 8 5 C5.36 4.34 2.72 3.68 0 3 C0 2.01 0 1.02 0 0 Z " fill="#1B87B2" transform="translate(21,6)"/>
</svg>
