<?xml version="1.0" encoding="UTF-8"?>
<svg version="1.1" xmlns="http://www.w3.org/2000/svg" width="40" height="40">
<path d="M0 0 C4.95473716 2.82315808 8.68324605 6.73194225 10.54296875 12.1640625 C11.21374745 18.06691507 11.70729981 23.92830186 8.54296875 29.1640625 C9.20296875 29.1640625 9.86296875 29.1640625 10.54296875 29.1640625 C10.04796875 30.6490625 10.04796875 30.6490625 9.54296875 32.1640625 C6.57296875 32.6590625 6.57296875 32.6590625 3.54296875 33.1640625 C3.54296875 30.8540625 3.54296875 28.5440625 3.54296875 26.1640625 C4.53296875 25.8340625 5.52296875 25.5040625 6.54296875 25.1640625 C8.24404942 20.06082049 8.10818122 15.84532816 5.85546875 10.9765625 C3.3799537 6.44689667 0.48287753 3.81069876 -4.45703125 2.1640625 C-10.14965963 1.60022121 -14.60647263 1.85686344 -19.45703125 5.1640625 C-23.46866758 9.1430839 -25.58033263 12.71818818 -25.76953125 18.4140625 C-25.69550606 23.47245041 -24.48024643 26.1065895 -21.45703125 30.1640625 C-17.336255 33.55225631 -13.54355051 34.94329788 -8.45703125 36.1640625 C-8.45703125 36.8240625 -8.45703125 37.4840625 -8.45703125 38.1640625 C-13.87689695 38.72863184 -17.10480798 37.89908269 -21.58984375 34.7578125 C-25.88789672 31.08918151 -28.10834996 27.6603737 -28.8984375 22.00390625 C-29.14084452 15.19305107 -28.71707811 10.54517433 -24.45703125 5.1640625 C-17.83703448 -1.43864969 -8.95413549 -3.04639904 0 0 Z " fill="#5AA6C9" transform="translate(29.45703125,1.8359375)"/>
<path d="M0 0 C4.01804758 2.15784037 6.33590331 3.76069486 8 8 C8.62535941 12.35776765 9.01372641 16.95235342 7.01953125 20.98046875 C4.24374543 24.43952493 1.23557045 26.65043808 -3.1484375 27.3359375 C-8.60274135 27.43162704 -11.75007465 26.74398185 -16 23 C-19.41787404 19.12640942 -19.46494744 15.33171445 -19.2734375 10.3671875 C-18.89369337 7.0796883 -18.28525735 5.42808594 -16 3 C-10.80686835 -0.72472891 -6.15582962 -1.99682903 0 0 Z M-9 2 C-9.33 2.99 -9.66 3.98 -10 5 C-10.99 4.67 -11.98 4.34 -13 4 C-13.33 4.99 -13.66 5.98 -14 7 C-13.67 7.66 -13.34 8.32 -13 9 C-14.32 9.33 -15.64 9.66 -17 10 C-17 10.66 -17 11.32 -17 12 C-16.34 12 -15.68 12 -15 12 C-15 12.66 -15 13.32 -15 14 C-15.66 14 -16.32 14 -17 14 C-16.71125 14.5775 -16.4225 15.155 -16.125 15.75 C-15.08333333 17.83333333 -14.04166667 19.91666667 -13 22 C-12.01 21.67 -11.02 21.34 -10 21 C-10 21.99 -10 22.98 -10 24 C-7.03 24 -4.06 24 -1 24 C-1 23.01 -1 22.02 -1 21 C-0.01 21.33 0.98 21.66 2 22 C2.103125 21.38125 2.20625 20.7625 2.3125 20.125 C3 18 3 18 6 16 C6 15.34 6 14.68 6 14 C5.34 14 4.68 14 4 14 C4 13.34 4 12.68 4 12 C4.66 12 5.32 12 6 12 C5.67 11.01 5.34 10.02 5 9 C4.01 9 3.02 9 2 9 C2.33 7.68 2.66 6.36 3 5 C2.34 4.67 1.68 4.34 1 4 C0.01 4.495 0.01 4.495 -1 5 C-1.33 4.01 -1.66 3.02 -2 2 C-2.66 2 -3.32 2 -4 2 C-4 2.66 -4 3.32 -4 4 C-4.99 4 -5.98 4 -7 4 C-7 3.34 -7 2.68 -7 2 C-7.66 2 -8.32 2 -9 2 Z " fill="#FFFFFF" transform="translate(26,7)"/>
<path d="M0 0 C3.01488287 2.03947959 4.43063864 4.23703965 6.125 7.4375 C5.875 10.3125 5.875 10.3125 5.125 12.4375 C3.79804209 10.44706313 2.48533335 8.44704842 1.1875 6.4375 C-0.39983554 4.12864831 -1.81236451 2.29387194 -3.875 0.4375 C-1.875 -0.5625 -1.875 -0.5625 0 0 Z " fill="#62ACCD" transform="translate(32.875,4.5625)"/>
<path d="M0 0 C0.66 0 1.32 0 2 0 C2.1953125 1.98567708 2.390625 3.97135417 2.5859375 5.95703125 C2.92665391 8.29988142 2.92665391 8.29988142 5 11 C5 11.99 5 12.98 5 14 C2 13 2 13 0.8203125 11.234375 C-0.09442005 8.74281777 -0.20275975 6.89383164 -0.125 4.25 C-0.10695313 3.45078125 -0.08890625 2.6515625 -0.0703125 1.828125 C-0.04710938 1.22484375 -0.02390625 0.6215625 0 0 Z " fill="#FFFFFF" transform="translate(19,12)"/>
<path d="M0 0 C0.33 0 0.66 0 1 0 C1.48212214 1.56159059 1.96055873 3.12431928 2.4375 4.6875 C2.83775391 5.99267578 2.83775391 5.99267578 3.24609375 7.32421875 C3.96344529 9.87025921 4.517541 12.4003423 5 15 C4.34 15 3.68 15 3 15 C-0.16727335 9.8531808 -0.35050464 5.841744 0 0 Z " fill="#52A0C5" transform="translate(1,18)"/>
<path d="M0 0 C0.66 0 1.32 0 2 0 C2.33 2.31 2.66 4.62 3 7 C2.01 7 1.02 7 0 7 C0 4.69 0 2.38 0 0 Z " fill="#4DA2C7" transform="translate(33,28)"/>
</svg>
