<?xml version="1.0" encoding="UTF-8"?>
<!DOCTYPE svg PUBLIC "-//W3C//DTD SVG 1.1//EN" "http://www.w3.org/Graphics/SVG/1.1/DTD/svg11.dtd">
<svg xmlns="http://www.w3.org/2000/svg" version="1.1" width="50px" height="50px" style="shape-rendering:geometricPrecision; text-rendering:geometricPrecision; image-rendering:optimizeQuality; fill-rule:evenodd; clip-rule:evenodd" xmlns:xlink="http://www.w3.org/1999/xlink">
<g><path style="opacity:0.729" fill="#1e86b4" d="M 13.5,23.5 C 13.5,24.1667 13.5,24.8333 13.5,25.5C 11.5454,26.3235 9.54536,26.4901 7.5,26C 6.90316,24.9383 6.56983,23.7716 6.5,22.5C 7.09902,17.9789 8.76568,13.9789 11.5,10.5C 12.4916,10.6716 13.1583,10.3382 13.5,9.5C 14.1667,9.5 14.5,9.16667 14.5,8.5C 14.8417,7.66175 15.5084,7.32842 16.5,7.5C 17.1667,7.5 17.5,7.16667 17.5,6.5C 17.8333,6.5 18.1667,6.5 18.5,6.5C 19.8333,6.16667 19.8333,5.83333 18.5,5.5C 17.8333,5.16667 17.1667,4.83333 16.5,4.5C 21.0168,1.67296 22.3501,3.00629 20.5,8.5C 14.0901,11.5649 10.4235,16.5649 9.5,23.5C 10.8333,23.5 12.1667,23.5 13.5,23.5 Z"/></g>
<g><path style="opacity:0.756" fill="#1f88b6" d="M 39.5,23.5 C 39.5,24.1667 39.5,24.8333 39.5,25.5C 33.3885,27.8902 31.2219,25.8902 33,19.5C 33.9211,16.6642 35.0877,13.9976 36.5,11.5C 37.1667,11.5 37.5,11.1667 37.5,10.5C 38.4916,10.6716 39.1583,10.3382 39.5,9.5C 40.1667,9.5 40.5,9.16667 40.5,8.5C 40.8417,7.66175 41.5084,7.32842 42.5,7.5C 42.8333,7.5 43.1667,7.5 43.5,7.5C 44.4916,7.67158 45.1583,7.33825 45.5,6.5C 45.5,5.83333 45.1667,5.5 44.5,5.5C 43.5084,5.67158 42.8417,5.33825 42.5,4.5C 47.0168,1.67296 48.3501,3.00629 46.5,8.5C 40.0901,11.5649 36.4235,16.5649 35.5,23.5C 36.8333,23.5 38.1667,23.5 39.5,23.5 Z"/></g>
<g><path style="opacity:0.791" fill="#1e85b6" d="M 42.5,4.5 C 42.8417,5.33825 43.5084,5.67158 44.5,5.5C 45.1667,5.5 45.5,5.83333 45.5,6.5C 45.1583,7.33825 44.4916,7.67158 43.5,7.5C 43.1667,6.16667 42.8333,6.16667 42.5,7.5C 41.5084,7.32842 40.8417,7.66175 40.5,8.5C 39.8333,8.5 39.5,8.83333 39.5,9.5C 38.5084,9.32842 37.8417,9.66175 37.5,10.5C 36.8333,10.5 36.5,10.8333 36.5,11.5C 33.1285,13.9361 30.4619,16.9361 28.5,20.5C 27.8333,20.5 27.1667,20.5 26.5,20.5C 29.5,12.8333 34.8333,7.5 42.5,4.5 Z"/></g>
<g><path style="opacity:0.776" fill="#1e87b6" d="M 16.5,4.5 C 17.1667,4.83333 17.8333,5.16667 18.5,5.5C 18.5,5.83333 18.5,6.16667 18.5,6.5C 18.1667,6.5 17.8333,6.5 17.5,6.5C 16.8333,6.5 16.5,6.83333 16.5,7.5C 15.5084,7.32842 14.8417,7.66175 14.5,8.5C 13.8333,8.5 13.5,8.83333 13.5,9.5C 12.5084,9.32842 11.8417,9.66175 11.5,10.5C 2.51667,17.0837 -0.316661,25.7503 3,36.5C 4.74238,39.7457 7.24238,42.079 10.5,43.5C 9.66175,43.8417 9.32842,44.5084 9.5,45.5C 4.88948,43.8881 1.55615,40.8881 -0.5,36.5C -0.5,31.1667 -0.5,25.8333 -0.5,20.5C 3.21793,13.1159 8.8846,7.78261 16.5,4.5 Z"/></g>
<g><path style="opacity:0.823" fill="#1e84b4" d="M 13.5,23.5 C 22.1756,25.3775 25.3423,30.7108 23,39.5C 19.8543,44.873 15.3543,46.873 9.5,45.5C 9.32842,44.5084 9.66175,43.8417 10.5,43.5C 20.6197,42.5922 23.453,37.5922 19,28.5C 17.2196,27.3606 15.3863,26.3606 13.5,25.5C 13.5,24.8333 13.5,24.1667 13.5,23.5 Z"/></g>
<g><path style="opacity:0.729" fill="#1e85b5" d="M 26.5,20.5 C 27.1667,20.5 27.8333,20.5 28.5,20.5C 27.0659,25.894 27.2326,31.2273 29,36.5C 33.647,44.2322 39.3137,45.2322 46,39.5C 48.4338,32.7008 46.2672,28.0342 39.5,25.5C 39.5,24.8333 39.5,24.1667 39.5,23.5C 43.8309,23.9924 47.1642,25.9924 49.5,29.5C 49.5,32.8333 49.5,36.1667 49.5,39.5C 42.6245,47.7157 35.4579,48.049 28,40.5C 24.1252,33.94 23.6252,27.2733 26.5,20.5 Z"/></g>
<g><path style="opacity:0.685" fill="#0f3445" d="M 8.5,37.5 C 10.258,37.8769 11.9246,38.5435 13.5,39.5C 14.8946,38.1854 15.8946,38.5188 16.5,40.5C 14.2351,41.6474 11.9018,41.8141 9.5,41C 8.66337,39.9887 8.33003,38.8221 8.5,37.5 Z"/></g>
<g><path style="opacity:0.678" fill="#0e3648" d="M 34.5,37.5 C 36.0936,37.9195 37.5936,38.5862 39,39.5C 40.6406,37.9554 41.8072,38.2887 42.5,40.5C 40.2351,41.6474 37.9018,41.8141 35.5,41C 34.6634,39.9887 34.33,38.8221 34.5,37.5 Z"/></g>
</svg>
