<?xml version="1.0" encoding="UTF-8"?>
<svg version="1.1" xmlns="http://www.w3.org/2000/svg" width="41" height="41">
<path d="M0 0 C3.61729777 1.46927768 5.3660478 3.39801615 7.6875 6.5 C8.28949219 7.2940625 8.89148437 8.088125 9.51171875 8.90625 C12.23429877 12.73644131 12.3997991 15.28237057 12 20 C10.38095464 23.16769744 9.14025035 24.62318749 5.73046875 25.75 C3.49155077 26.25772313 1.27202548 26.6747314 -1 27 C-0.67 27.66 -0.34 28.32 0 29 C0.97839844 28.80083984 0.97839844 28.80083984 1.9765625 28.59765625 C6.6408287 27.65517178 11.29868454 26.74231297 16 26 C16 29.63 16 33.26 16 37 C15.34 35.68 14.68 34.36 14 33 C13.26394531 33.49371094 12.52789062 33.98742188 11.76953125 34.49609375 C10.79371094 35.13675781 9.81789062 35.77742188 8.8125 36.4375 C7.84957031 37.07558594 6.88664062 37.71367188 5.89453125 38.37109375 C1.57087035 40.80424705 -2.36242658 41.12659242 -7.265625 41.1328125 C-8.23757812 41.13410156 -9.20953125 41.13539062 -10.2109375 41.13671875 C-11.21382812 41.13285156 -12.21671875 41.12898438 -13.25 41.125 C-14.26835937 41.12886719 -15.28671875 41.13273437 -16.3359375 41.13671875 C-17.30273438 41.13542969 -18.26953125 41.13414063 -19.265625 41.1328125 C-20.15024414 41.13168457 -21.03486328 41.13055664 -21.94628906 41.12939453 C-24 41 -24 41 -25 40 C-25.09986975 37.15664952 -25.13877881 34.34302837 -25.125 31.5 C-25.12886719 30.70207031 -25.13273437 29.90414063 -25.13671875 29.08203125 C-25.12660767 23.12660767 -25.12660767 23.12660767 -24 22 C-19.36552799 21.54785639 -16.10124082 22.53440157 -11.9296875 24.34375 C-9.70853778 25.21464763 -9.70853778 25.21464763 -6 25 C-6.66 24.319375 -7.32 23.63875 -8 22.9375 C-10.5862137 19.13899864 -10.75533271 17.53199629 -10 13 C-7.42403903 8.08905505 -4.16389142 3.68344241 0 0 Z M0 4 C-0.96355244 5.07869393 -1.92061417 6.16318743 -2.875 7.25 C-3.40867187 7.85328125 -3.94234375 8.4565625 -4.4921875 9.078125 C-6.67894758 11.86539433 -8.02719313 13.91227462 -7.9375 17.5 C-6.65248331 20.92671116 -5.12011043 22.12793374 -2 24 C1.85325079 24.64220846 3.4527447 24.32835318 6.8125 22.3125 C9.30313055 19.6795477 9.73725717 18.5627928 10 15 C8.98400335 12.54337251 8.98400335 12.54337251 7.3125 10.3125 C6.79300781 9.54550781 6.27351563 8.77851563 5.73828125 7.98828125 C3.94174391 5.93336551 2.5055071 5.02076215 0 4 Z M-22 25 C-23.31262571 26.08552366 -23.31262571 26.08552366 -23.09765625 28.72265625 C-23.08605469 29.82480469 -23.07445313 30.92695313 -23.0625 32.0625 C-23.05347656 33.16722656 -23.04445313 34.27195312 -23.03515625 35.41015625 C-23.02355469 36.26480469 -23.01195313 37.11945312 -23 38 C-21.68 38.33 -20.36 38.66 -19 39 C-19 34.38 -19 29.76 -19 25 C-19.99 25 -20.98 25 -22 25 Z M-17 26 C-17 29.96 -17 33.92 -17 38 C-5.4387289 38.80127621 2.74966602 38.98707251 12 31 C9.07866039 29.68629116 9.07866039 29.68629116 6.5 30.875 C2.42789876 32.18388968 -1.35953738 32.46942258 -5.609375 32.75390625 C-8.01246236 32.85903395 -8.01246236 32.85903395 -10 34 C-10 33.34 -10 32.68 -10 32 C-6.535 31.505 -6.535 31.505 -3 31 C-3 30.34 -3 29.68 -3 29 C-4.39567835 28.68680856 -5.79155082 28.37448212 -7.1875 28.0625 C-7.96480469 27.88847656 -8.74210937 27.71445312 -9.54296875 27.53515625 C-12.02263668 26.99506959 -14.51147892 26.49770422 -17 26 Z " fill="#18719B" transform="translate(25,0)"/>
<path d="M0 0 C3.61729777 1.46927768 5.3660478 3.39801615 7.6875 6.5 C8.28949219 7.2940625 8.89148438 8.088125 9.51171875 8.90625 C12.23429877 12.73644131 12.3997991 15.28237057 12 20 C10.04036527 23.67431511 8.07313032 25.25508932 4.1875 26.5 C-0.2505504 27.37767415 -3.0932896 26.29806494 -7 24 C-9.60115387 21.65057069 -9.9502346 20.28200394 -10.5625 16.8125 C-9.55893591 10.01056559 -5.09235251 4.50477337 0 0 Z M0 4 C-0.96355244 5.07869393 -1.92061417 6.16318743 -2.875 7.25 C-3.40867187 7.85328125 -3.94234375 8.4565625 -4.4921875 9.078125 C-6.67894758 11.86539433 -8.02719313 13.91227462 -7.9375 17.5 C-6.65248331 20.92671116 -5.12011043 22.12793374 -2 24 C1.85325079 24.64220846 3.4527447 24.32835318 6.8125 22.3125 C9.30313055 19.6795477 9.73725717 18.5627928 10 15 C8.98400335 12.54337251 8.98400335 12.54337251 7.3125 10.3125 C6.79300781 9.54550781 6.27351563 8.77851563 5.73828125 7.98828125 C3.94174391 5.93336551 2.5055071 5.02076215 0 4 Z " fill="#0D374B" transform="translate(25,0)"/>
<path d="M0 0 C1.4540625 0.0309375 1.4540625 0.0309375 2.9375 0.0625 C4.54237828 3.27225655 3.76198599 6.69596002 3.5 10.1875 C3.314375 12.78625 3.12875 15.385 2.9375 18.0625 C8.2175 18.0625 13.4975 18.0625 18.9375 18.0625 C18.9375 18.3925 18.9375 18.7225 18.9375 19.0625 C15.29168313 19.09137512 11.64589537 19.10925585 8 19.125 C6.43862305 19.13756836 6.43862305 19.13756836 4.84570312 19.15039062 C3.85634766 19.15361328 2.86699219 19.15683594 1.84765625 19.16015625 C0.47299194 19.16801147 0.47299194 19.16801147 -0.92944336 19.17602539 C-3.0625 19.0625 -3.0625 19.0625 -4.0625 18.0625 C-4.16236975 15.21914952 -4.20127881 12.40552837 -4.1875 9.5625 C-4.19136719 8.76457031 -4.19523438 7.96664063 -4.19921875 7.14453125 C-4.1872339 0.08545375 -4.1872339 0.08545375 0 0 Z M-1.0625 3.0625 C-2.37512571 4.14802366 -2.37512571 4.14802366 -2.16015625 6.78515625 C-2.14855469 7.88730469 -2.13695312 8.98945313 -2.125 10.125 C-2.11597656 11.22972656 -2.10695312 12.33445312 -2.09765625 13.47265625 C-2.08605469 14.32730469 -2.07445312 15.18195312 -2.0625 16.0625 C-0.7425 16.3925 0.5775 16.7225 1.9375 17.0625 C1.9375 12.4425 1.9375 7.8225 1.9375 3.0625 C0.9475 3.0625 -0.0425 3.0625 -1.0625 3.0625 Z " fill="#186D94" transform="translate(4.0625,21.9375)"/>
<path d="M0 0 C1.32 0 2.64 0 4 0 C4 1.32 4 2.64 4 4 C5.32 4 6.64 4 8 4 C7.67 5.65 7.34 7.3 7 9 C6.01 9 5.02 9 4 9 C3.67 10.32 3.34 11.64 3 13 C1.68 12.34 0.36 11.68 -1 11 C-1 10.34 -1 9.68 -1 9 C-1.99 9 -2.98 9 -4 9 C-4.33 7.68 -4.66 6.36 -5 5 C-3.68 4.67 -2.36 4.34 -1 4 C-0.67 2.68 -0.34 1.36 0 0 Z M1 5 C1 5.66 1 6.32 1 7 C1.66 7 2.32 7 3 7 C3 6.34 3 5.68 3 5 C2.34 5 1.68 5 1 5 Z " fill="#0D394B" transform="translate(24,10)"/>
<path d="M0 0 C2.8203125 0.2421875 2.8203125 0.2421875 6.125 0.875 C7.22070312 1.07867188 8.31640625 1.28234375 9.4453125 1.4921875 C10.28835937 1.65976562 11.13140625 1.82734375 12 2 C12 2.33 12 2.66 12 3 C2.58997722 4.51708428 2.58997722 4.51708428 -2 2 C-1.34 1.34 -0.68 0.68 0 0 Z " fill="#176A93" transform="translate(10,24)"/>
</svg>
