<?xml version="1.0" encoding="UTF-8"?>
<svg id="Layer_1" xmlns="http://www.w3.org/2000/svg" xmlns:xlink="http://www.w3.org/1999/xlink" viewBox="0 0 1142.04 242.27" width="189px" height="49px">
  <defs>
    <style>
      .cls-1 {
        fill: url(#radial-gradient);
      }

      .cls-2 {
        fill: url(#radial-gradient-2);
      }

      .cls-3 {
        fill: #1a1a1a;
      }
    </style>
    <radialGradient id="radial-gradient" cx="66.04" cy="123.76" fx="66.04" fy="123.76" r="95.93" gradientUnits="userSpaceOnUse">
      <stop offset="0" stop-color="#fef9d3"/>
      <stop offset="1" stop-color="#866844"/>
    </radialGradient>
    <radialGradient id="radial-gradient-2" cx="145.24" cy="100.13" fx="145.24" fy="100.13" r="83.55" xlink:href="#radial-gradient"/>
  </defs>
  <g>
    <path class="cls-3" d="M342.37,161.28v15.8h-71.42v-99.04l-5.57-12.85h5.57s70.02,0,70.02,0v15.8l-7.36-8.76h-42.7v43.25h42.11v5.43h-42.11v49.14h44.1l7.36-8.77Z"/>
    <path class="cls-3" d="M477.35,121.14c0,.11,0,.21,0,.32,0,7.89-1.42,15.24-4.24,22.06-2.83,6.82-6.79,12.71-11.88,17.66-5.09,4.96-11.19,8.84-18.29,11.67-7.1,2.82-14.92,4.24-23.45,4.24h-43.42v-99.04l-5.57-12.85h5.57s43.42,0,43.42,0c8.54,0,16.35,1.42,23.45,4.24,7.1,2.82,13.19,6.71,18.29,11.67,5.09,4.96,9.05,10.84,11.88,17.66,2.83,6.82,4.24,14.17,4.24,22.06,0,.11,0,.21,0,.32ZM453.9,121.14c0-27.01-11.14-50.52-36.14-50.52h-21.73v101.03h21.73c25,0,36.14-23.5,36.14-50.52Z"/>
    <path class="cls-3" d="M583.01,161.28v15.8h-71.42v-99.04l-5.57-12.85h5.57s70.02,0,70.02,0v15.8l-7.36-8.76h-42.7v43.25h42.11v5.43h-42.11v49.14h44.1l7.36-8.77Z"/>
    <path class="cls-3" d="M711.91,65.19v111.89h-6.13l-80.89-82.69v82.69h-7.1v-100.69l-8.57-11.2h15.03l80.57,82.42v-82.42h7.1Z"/>
    <path class="cls-3" d="M833.07,65.19v15.8l-8.55-10.19h-27.87v106.28h-19.96v-106.28h-27.87l-8.55,10.19v-15.8h92.81Z"/>
    <path class="cls-3" d="M941.06,177.08h-22.69l-9.08-20.19-6.78-15.07h-44.5l-14.52,35.25h-6.12l38.53-94.4-7.87-17.49h15.01s7.71,0,7.71,0l50.3,111.89ZM900.33,136.96l-16.27-36.17-4.76-10.59-19.27,46.76h40.3Z"/>
    <path class="cls-3" d="M1041.88,170.05v7.03h-71.42v-99.04l-5.57-12.85h25.53v104.86h51.46Z"/>
    <path class="cls-3" d="M1142.04,170.05v7.03h-71.42v-99.04l-5.57-12.85h25.53v104.86h51.46Z"/>
  </g>
  <g>
    <path class="cls-1" d="M81.53,109.47c-2.35-1.04-4.75-1.97-7.19-2.76-2.51-.81-5.1-1.39-7.67-1.93-2.53-.53-5.03-1.17-7.62-1.31-.16,0-.4-.06-.55-.02,1.52-.4,3.05-.81,4.57-1.21,2.26-.6,4.52-1.24,6.58-2.38,2.11-1.16,4.11-2.5,5.97-4.04.77-.64,1.51-1.3,2.23-1.99,5.12-4.91,9.02-10.92,12.88-16.87,4.49-6.93,8.63-14.77,15.16-20.02,3.68-2.96,8.01-5.03,12.48-6.56s9.09-2.53,13.71-3.54c-.36.02-.72.04-1.09.06-5.18.24-10.38,0-15.51-.71-4.87-.67-10.01-1.55-14.5-3.55-8-3.56-14.94-9.08-21.63-14.63-6.71-5.56-13.28-11.41-20.78-15.9C43.18,2.93,22.43,1.77,9.66,16.03.11,26.7-.81,42.27.44,55.84c1.02,11.07,3.62,21.95,6.66,32.63,11.48,40.37,24.94,81.26,49.74,115.64,5.75,7.97,11.81,15.82,19,22.57,6.66,6.26,16.29,14.11,25.59,15.59-2.07-5.95-2.5-12.36-2.44-18.76.11-12.56,5.15-23.29,8.36-35.16,4.55-16.8,3.77-34.54-1.86-50.98-2.62-7.65-6.8-15.19-12.83-20.86-3.4-3.2-7.16-5.29-11.11-7.03ZM10.15,60.58c-.09-.58-.16-1.16-.24-1.73-1.4-11.25-2.18-29.17,6.53-37.77,8.44-8.32,21.15-4.91,30.85-1.2,7.28,2.79,14.13,6.7,20.22,11.56,10.95,8.74,21.19,16.55,35.65,18.3-.92.48-1.62,1.16-2.44,1.77-.88.66-1.74,1.35-2.57,2.07-1.71,1.49-3.32,3.1-4.79,4.83-8.23,9.65-13.83,21.37-22.91,30.31-11.87,11.68-30.7,13.4-44.12,3.29-9.78-7.37-14.44-19.63-16.19-31.43ZM96.4,192.41c-2.97,10.21-6.34,20.32-6.6,30.99-.03,1.34-.02,2.68.03,4.02.03.67.06,1.34.11,2.01.02.35.05.7.08,1.04.01.15-.02.79.08.88-1.83-1.61-3.71-3.17-5.49-4.82-1.21-1.12-2.54-2.16-3.67-3.35-15.2-15.96-28.04-34.45-37.93-54.27-11.35-22.74-19.28-47.37-24.2-72.28,1.18,1,2.47,2.03,3.87,2.86,7.65,4.52,16.03,8.01,24.71,9.96,9.11,2.04,18.48,3.23,27.34,6.26,11.64,3.98,19.43,11.32,23.2,23.12,3.17,9.93,3.49,20.65,2.96,30.98-.4,7.75-2.34,15.2-4.49,22.59Z"/>
    <path class="cls-2" d="M159.44,2.5c-8.24,2.44-16.17,5.44-24.17,8.59-6.98,2.75-13.98,5.51-21.27,7.31-7.48,1.85-15.22,2.66-22.92,2.41,4.95,3.55,9.88,8.15,15.8,9.91,10.18,3.03,21.02,3.98,31.64,5.35,3.06.44,6.51,1.47,8.81,3.66,2.39,2.27,4.49,4.99,6.14,7.85-1.83.47-3.63,1.05-5.4,1.71-3.25,1.23-6.45,2.77-9.56,4.36-3.07,1.57-6.04,3.33-8.89,5.26-5.68,3.85-10.9,8.37-15.53,13.44-3.15,3.45-6.15,7.14-8.75,11.02-3.11,4.64-5.18,9.65-9.89,12.99-3.77,2.67-8.34,4.19-12.95,4.31,6.83-.18,12.43,3.29,17.43,7.51,4.83,4.07,9.17,8.83,12.89,13.93,5.86,8.03,10.1,17.14,12.69,26.73,2.56,9.47,6.32,18.68,10.19,27.73,3.85,8.98,10.56,15.75,19.16,23.7,1.07-8.57.61-17.34,4.71-25.22,1.33-2.55,2.99-4.92,4.65-7.27,2.84-4.03,5.66-7.99,8.17-12.22,20.43-34.48,31.85-71.77,35.36-111.54,2.05-23.26-10.45-46.03-36.37-43.86-4.07.34-8.04,1.21-11.94,2.36ZM186.72,85.29c-.13,1.72-.28,3.44-.45,5.16-.96,9.42-2.66,18.78-5.2,27.91s-5.87,17.91-10.05,26.34c-2.96,5.97-6.37,11.71-9.81,17.4-3.22,5.31-7.29,10.46-9.61,16.24-1.21,3.01-1.83,6.34-1.2,9.52-.11-.58-.91-1.09-1.31-1.48-.59-.56-1.14-1.14-1.67-1.75-1.15-1.34-2.29-2.84-2.98-4.47-1.46-3.43-3.29-6.72-4.74-10.18-1.51-3.63-2.87-7.33-4.12-11.05-2.43-7.23-4.56-14.57-7.12-21.76-2.49-7-5.42-13.9-9.44-20.18-2.02-3.15-4.31-6.13-6.89-8.85-1.33-1.41-2.74-2.75-4.21-4.01-.39-.33-4.7-3.62-4.71-3.61,10.88-20.79,25.48-35.29,47.47-43.33,24.29-8.88,37.84,3.74,36.04,28.08ZM193.96,81.6c-.01-.87-.05-1.73-.12-2.6-.7-8.75-3.78-17.7-10.11-24.02-1.29-1.29-2.71-2.44-4.23-3.45-1.99-1.32-4.15-2.35-6.41-3.1-1.13-.38-2.28-.68-3.45-.92-2.98-.42-5.98-.61-8.99-.63-.34.01-.76.12-.96-.25-.44-.81-1.07-1.48-1.59-2.22-1.34-1.81-2.62-3.68-3.93-5.51-1.21-1.69-2.43-3.42-4.05-4.75-1.75-1.44-4.02-2.34-6.15-3.05-4.64-1.54-9.54-1.97-14.38-2.38-.32-.03-.63-.05-.95-.08-7.34-.62-14.77-1.51-21.69-4.17-.55-.21-1.1-.43-1.64-.67,1.41.61,3.98.25,5.49.22,15.5-.38,30.11-7.24,44.26-12.89,12.7-5.07,28.14-8.86,39.01,2.06,1.45,1.46,2.71,3.1,3.76,4.87,3.75,6.29,5.31,13.65,5.6,20.91.34,8.72-1.11,17.75-2.94,26.26-.75,3.51-1.51,7.01-2.37,10.49-1.28,5.19-2.95,10.12-4.81,15.12.34-1.41.26-2.86.44-4.27.21-1.63.25-3.33.23-4.97Z"/>
  </g>
</svg>