<?xml version="1.0" encoding="UTF-8"?>
<svg id="Layer_1" xmlns="http://www.w3.org/2000/svg" xmlns:xlink="http://www.w3.org/1999/xlink" viewBox="0 0 876.65 628.11">
  <defs>
    <style>
      .cls-1 {
        fill: #fff;
      }

      .cls-2 {
        fill: url(#radial-gradient);
      }

      .cls-3 {
        fill: url(#radial-gradient-2);
      }
    </style>
    <radialGradient id="radial-gradient" cx="385.49" cy="172.31" fx="385.49" fy="172.31" r="133.57" gradientUnits="userSpaceOnUse">
      <stop offset="0" stop-color="#fef9d3"/>
      <stop offset="1" stop-color="#866844"/>
    </radialGradient>
    <radialGradient id="radial-gradient-2" cx="495.76" cy="139.41" fx="495.76" fy="139.41" r="116.33" xlink:href="#radial-gradient"/>
  </defs>
  <g>
    <path class="cls-1" d="M270.93,597.58c-.32.62-.64,1.16-.97,1.61-.82.97-1.77,1.56-2.84,1.79s-2.04.17-2.9-.18c-.02-.02-.04-.03-.06-.03-.21-.11-.43-.18-.64-.23-.21-.04-.44,0-.67.12-.13.07-.28.09-.45.07h-.1c-.77,0-1.17-.39-1.19-1.16-.02-.78-.03-1.55-.03-2.3-.02-.92-.05-1.83-.1-2.74-.13-3.5-.16-7.01-.1-10.53.06-3.53.16-7.05.29-10.58.03-.34.04-.68.04-1.03.02-.79.11-1.78.27-2.96.16-1.18.39-2.32.69-3.41s.66-1.89,1.09-2.4c.39-.57.88-.92,1.47-1.07.59-.15,1.16-.12,1.72.07.56.19.99.5,1.29.93.64,1.02.99,2.45,1.03,4.31.04,1.86-.12,3.92-.48,6.2-.37,2.28-.84,4.56-1.42,6.85-.58,2.29-1.18,4.36-1.8,6.23s-1.18,3.32-1.68,4.36c.86-.5,1.55-.81,2.08-.94s1.13-.14,1.82-.03c2.34.29,3.71,1.6,4.1,3.93v.29c.02.09.03.17.03.25.04.32.08.58.14.78.05.2.6.14,1.65-.18s1.81-.68,2.29-1.1c.48-.42.79-.6.92-.53.5.54.1,1.24-1.19,2.09-1.25.75-2.68,1.25-4.29,1.48ZM263.14,588.66c.08-.07.33-.92.76-2.55s.89-3.65,1.37-6.06c.48-2.41.87-4.82,1.17-7.24.29-2.42.34-4.45.15-6.1-.09-.89-.23-1.61-.42-2.15-.19-.55-.42-.73-.67-.56-.26.17-.53.87-.81,2.1-.43,1.83-.74,4.31-.92,7.46-.18,3.14-.32,6.25-.4,9.3-.07,2.34-.14,4.28-.22,5.8ZM268.94,595.49c.04-.75-.15-1.47-.56-2.16-.41-.69-.93-1.14-1.54-1.36-.62-.21-1.22,0-1.81.64-.43.57-.71,1.32-.85,2.25-.14.93-.2,1.87-.18,2.82.71-.39,1.43-.72,2.15-.99.72-.27,1.46-.45,2.23-.54.18-.02.31-.09.41-.22s.15-.28.15-.45ZM265.68,599.16c-.08.28,0,.43.22.44s.51-.07.86-.23c.35-.16.66-.37.93-.63.27-.26.39-.53.37-.81,0-.02-.01-.04-.04-.06s-.06-.03-.09-.03c-.38-.02-.73.06-1.05.23s-.62.38-.91.64c-.13.13-.22.28-.29.45Z"/>
    <path class="cls-1" d="M291.73,595.59c.34.02.4.19.18.51s-.61.73-1.14,1.22c-.54.49-1.12,1.01-1.74,1.55-.84.71-1.52,1.33-2.04,1.85-.58.49-1.04,1.17-1.4,2.04s-.53,1.67-.53,2.4v1.39c.02,1.09.02,2.41,0,3.95-.02,1.54-.11,3.13-.26,4.77s-.42,3.18-.82,4.62c-.39,1.44-.96,2.62-1.69,3.53-.73.91-1.67,1.41-2.8,1.5-2.18.06-3.67-.84-4.48-2.71-.62-1.57-.83-3.18-.63-4.83s.67-3.26,1.38-4.83c.72-1.57,1.53-3.02,2.43-4.34.9-1.32,1.75-2.42,2.55-3.32.79-.89,1.36-1.49,1.71-1.79.15-.49.23-1.05.26-1.7.02-.64.03-1.27,0-1.88-.03-.2-.04-.37-.04-.51-.43.66-.87,1.13-1.33,1.4-.46.27-.92.42-1.38.44-.46.03-.9.01-1.31-.04h-.12c-.95-.13-1.69-.57-2.24-1.33s-.9-1.63-1.06-2.61c-.16-.98-.12-1.85.12-2.63.24-.78.69-1.23,1.33-1.36.26-.07.56-.1.88-.1s.59.04.81.13.29.25.22.48c-.2.8-.31,1.67-.34,2.6s.05,1.74.24,2.43c.19.69.53,1.06,1.03,1.11.49.05,1.15-.39,1.97-1.34.39-.5.66-1.01.81-1.53s.26-1.09.35-1.69c.02-.21.05-.43.1-.64.02-.21.05-.43.09-.64.03-.28.06-.56.1-.83.11-.45.36-.76.75-.94.4-.18.82-.16,1.28.06.23.14.37.33.41.59.05.5.07.99.07,1.48-.03,1.74-.04,3.88-.04,6.42.03-.02.24-.2.64-.54.52-.48,1.17-1.05,1.97-1.71s1.55-1.26,2.26-1.79,1.19-.8,1.46-.82ZM282.18,610.47c0-.23.01-.48.04-.73.02-.93.05-1.87.09-2.81,0-.04-.01-.09-.04-.15-.03-.06-.07-.11-.12-.14-.11-.08-.2-.09-.27-.04-.07.05-.14.11-.21.17-.9,1.16-1.75,2.48-2.54,3.95-.8,1.47-1.42,3-1.87,4.59s-.63,3.15-.56,4.67c.07.95.37,1.82.91,2.61.64.89,1.21,1.21,1.69.96.48-.25.89-.86,1.22-1.84s.61-2.13.82-3.45c.21-1.32.38-2.62.5-3.88s.21-2.32.28-3.16c.02-.28.04-.53.06-.75Z"/>
    <path class="cls-1" d="M350.48,594.75c.11-.03.41-.1.89-.21.73-.13,1.61-.28,2.64-.46,1.03-.18,1.94-.3,2.72-.37.79-.06,1.18,0,1.18.18-.11.16-.6.36-1.46.62s-1.89.51-3.08.77-2.27.48-3.27.69-1.67.34-2.01.41c-.71.13-1.25.49-1.61,1.1-3.1,4.34-6.67,8.22-10.74,11.66-2.98,2.58-6.19,4.83-9.62,6.77-1.34.77-2.71,1.45-4.1,2.03s-2.85,1.04-4.35,1.38c-1.42.3-2.84.39-4.28.26-1.7-.18-2.89-.81-3.57-1.89s-.75-2.44-.21-4.07c.39-1.02.94-1.92,1.64-2.71,1.1-1.29,2.34-2.43,3.71-3.41,1.88-1.36,3.83-2.57,5.87-3.65.17-.09.34-.17.51-.25.21-.11.43-.23.64-.37.3-.15.45-.39.45-.73.02-.21.03-.44.03-.67v-30.56c0-.5,0-1,.03-1.51.09-.52.45-.79,1.1-.81.62.02.97.3,1.03.83.05.45.06.91.04,1.38v.29c.02,4.49.02,8.98,0,13.48,0,4.92,0,9.85.03,14.79,0,.19,0,.37-.03.54-.05.84.02,1.31.22,1.41s.74-.06,1.64-.47c.05-.02.1-.04.16-.07,5.35-2.26,10.87-3.95,16.57-5.08,1.29-.21,2.26-.89,2.9-2.04,1.52-2.64,2.81-5.46,3.87-8.47s1.77-6,2.16-8.96.34-5.72-.13-8.25c-.47-2.53-1.47-4.65-2.98-6.34s-3.65-2.77-6.39-3.22c-2.75-.46-6.21-.08-10.38,1.12-2.11.57-4.45,1.42-7.01,2.56-2.56,1.14-5.17,2.5-7.81,4.07-2.65,1.58-5.14,3.3-7.49,5.16-2.35,1.86-4.37,3.79-6.06,5.79s-2.87,4-3.53,6c-.2.62-.62.91-1.26.89-.34,0-.59-.1-.75-.31-.16-.21-.21-.47-.14-.79.23-.77.57-1.5,1-2.18,1.03-1.66,2.21-3.2,3.54-4.61,3.42-3.71,7.56-7.11,12.44-10.21s9.72-5.45,14.53-7.06c4.45-1.42,8.28-2.04,11.49-1.87,3.21.17,5.84.98,7.89,2.43,2.06,1.45,3.56,3.38,4.51,5.8.95,2.42,1.4,5.16,1.33,8.22-.06,3.06-.61,6.28-1.63,9.67-1.02,3.38-2.49,6.77-4.4,10.17-.4.7-.52,1.11-.36,1.23.16.12.52.11,1.08-.01.23-.04.5-.07.81-.09ZM342.64,599.1c.07-.09.13-.17.19-.23.32-.32.54-.72.64-1.19-.17-.13-.33-.19-.5-.18-.17,0-.34.03-.52.07-.07.02-.13.04-.19.07-2.69.68-5.34,1.45-7.98,2.3s-5.23,1.84-7.79,2.97c-.18.09-.34.17-.48.23-.43.17-.74.31-.94.45-.2.13-.31.3-.35.5s-.05.51-.03.91v.78c-.02.45-.02.89,0,1.32,0,.43,0,.87-.03,1.33,0,.43-.02.86-.07,1.29-.11.58-.46.85-1.05.83-.64-.05-.98-.42-1.01-1.1-.04-.75-.06-1.49-.06-2.23v-1.51c-.04-.52-.29-.67-.75-.45-1.44.77-2.82,1.62-4.14,2.54-1.32.92-2.55,1.96-3.68,3.13-.71.73-1.29,1.55-1.74,2.45-.36.73-.56,1.51-.59,2.33.03,1.38.7,2.24,2.01,2.58.81.2,1.62.21,2.42.03,1.54-.3,3.03-.75,4.48-1.34,1.44-.59,2.84-1.28,4.2-2.07,3.52-2.02,6.76-4.37,9.74-7.03s5.72-5.6,8.23-8.79Z"/>
    <path class="cls-1" d="M364.65,595.97c.19-.38.31-.56.38-.53s.08.18.05.46c-.03.28-.09.59-.18.94-.13.54-.35,1.16-.66,1.87s-.66,1.35-1.04,1.93c-.57.8-1.27,1.4-2.1,1.81-.83.41-1.59.51-2.27.3-.68-.21-1.07-.84-1.18-1.92-.02-.9.06-1.88.23-2.96.06-.45.12-.89.19-1.32,0-.16-.04-.28-.12-.36s-.18-.12-.31-.1h-.29c-.54.09-1.08.08-1.64-.03-.66-.2-1.05-.52-1.16-.99s-.1-1.07.03-1.82c.07-.54.27-.94.6-1.21.33-.27.72-.38,1.17-.33.62.06.93.3.91.72s-.14.87-.35,1.35c-.2.4-.3.74-.31,1s.22.36.69.29c.11-.03.22-.06.35-.1.18-.07.38-.13.6-.18s.52-.07.88-.04c.43.02.71.22.86.59s.2.85.18,1.41-.07,1.14-.16,1.73c-.11.73-.16,1.36-.16,1.88s.15.83.45.92c.4.11,1-.26,1.79-1.09.8-.83,1.65-2.24,2.56-4.23Z"/>
    <path class="cls-1" d="M367.07,599.51c.8,0,1.08.39.85,1.16-.11.3-.23.59-.37.85-.13.23-.31.39-.54.46-.23.07-.48.06-.75-.05-.21-.09-.33-.24-.35-.45-.02-.34,0-.69.03-1.05.07-.64.44-.95,1.13-.91Z"/>
    <path class="cls-1" d="M422.18,594.23c.21-.02.31.14.29.49-.02.35-.16.53-.41.55-.24.04-.47.16-.67.35-.2.2-.3.41-.3.64.06,2.08-.21,4.08-.8,6.01s-1.38,3.78-2.37,5.57c-1.95,3.71-4.33,7.01-7.12,9.9s-6.06,5.33-9.8,7.31c-2.06,1.07-4.18,1.88-6.36,2.42-2.18.54-4.45.74-6.79.6-1.95-.11-3.79-.63-5.51-1.57-2.04-1.21-3.39-2.79-4.04-4.73s-.53-4.01.37-6.2c.95-2.13,2.44-4.11,4.47-5.95s4.39-3.52,7.09-5.06c2.7-1.54,5.5-2.9,8.43-4.08,2.92-1.18,5.74-2.19,8.46-3.02,2.71-.84,5.13-1.47,7.24-1.9.58-.14,1.14-.26,1.7-.37.61-.11,1.2-.22,1.77-.35.5-.09.67-.36.53-.81-.5-2.06-1.49-3.83-2.97-5.32-1.07-1.05-2.24-1.95-3.49-2.67-1.25-.73-2.58-1.34-3.98-1.84-4.19-1.48-8.52-2.32-12.99-2.5-.3-.03-.62-.04-.94-.04-.36.03-.55.22-.57.59-.05.43-.07.86-.07,1.29-.02,3.37-.03,6.74-.03,10.12-.02,1.48-.03,2.98-.03,4.48v.92c-.11.97-.61,1.3-1.51,1.01-.35-.11-.54-.34-.56-.69-.04-.49-.05-.98-.03-1.48-.02-3.05-.03-6.08-.03-9.11v-4.94c0-.36,0-.74-.03-1.13,0-.41-.06-.68-.18-.81s-.37-.2-.75-.22h-.48c-.41-.03-.81-.06-1.2-.1-.34-.04-.58-.22-.7-.54-.11-.41,0-.75.32-1.01.43-.34.88-.67,1.35-1,.2-.13.37-.23.53-.32.36-.23.62-.43.78-.58.16-.15.26-.32.29-.51.03-.19.05-.49.05-.9-.03-.23-.04-.51-.04-.83.03-2.43.04-4.87.04-7.32v-4.19c0-.47.02-.93.06-1.38.04-.59.38-.87,1.03-.85.62-.02.98.25,1.07.81.04.57.06,1.14.06,1.71v4.38c0,1.79.01,3.56.04,5.32-.03.13-.04.24-.04.35-.04.5.04,1.07.23,1.71,1.42-.82,3.13-1.86,5.13-3.11,2.01-1.25,4.05-2.6,6.14-4.04,2.08-1.44,3.93-2.88,5.54-4.32s2.73-2.77,3.35-3.99c.66-1.4.36-2.54-.91-3.44-1.56-1.05-3.58-1.63-6.06-1.73s-5.1.17-7.85.79-5.31,1.49-7.68,2.61-4.23,2.37-5.6,3.76c-.43.46-.82,1-1.16,1.63-.35.63-.62,1.26-.81,1.88-.15.39-.43.62-.86.68s-.8-.06-1.1-.36c-.15-.21-.19-.45-.13-.7.2-.73.53-1.4,1.01-2.01,1.52-1.95,3.69-3.66,6.49-5.12,2.8-1.46,5.84-2.57,9.12-3.32,3.28-.75,6.39-1.06,9.33-.94,2.95.13,5.32.8,7.13,2.01,1.85,1.26,2.24,2.88,1.19,4.86-.54.99-1.33,1.99-2.37,3.01-1.04,1.02-2.15,1.99-3.32,2.9-1.17.91-2.21,1.7-3.12,2.37-1.65,1.2-3.34,2.36-5.08,3.46-1.74,1.11-3.49,2.19-5.26,3.25-.04.02-.08.05-.13.09-.88.5-1.74,1.02-2.58,1.55-.6.45-.78,1.05-.54,1.8.02.07.07.14.15.21.08.07.16.11.23.11.35.07.7.1,1.04.1h.09c4.65.13,9.17.92,13.58,2.39,2.44.77,4.72,1.9,6.83,3.38,1.27.9,2.35,1.93,3.24,3.09s1.55,2.5,1.98,4c.14.49.29.79.48.89.18.11.56.12,1.13.03ZM418.71,597.9c.09-.88.02-1.42-.19-1.61s-.77-.19-1.66.03c-2.1.43-4.47,1.03-7.11,1.81-2.64.78-5.36,1.72-8.15,2.84s-5.48,2.4-8.06,3.85c-2.58,1.45-4.85,3.06-6.82,4.83-1.97,1.77-3.44,3.72-4.43,5.84-.71,1.61-1.04,3.13-.97,4.56.06,1.43.43,2.67,1.1,3.71.67,1.04,1.55,1.77,2.64,2.2,1.4.54,2.85.83,4.35.88.11,0,.21,0,.29-.03.21-.03.43-.04.64-.04,2.83-.27,5.51-1.04,8.03-2.31,4.59-2.28,8.46-5.21,11.62-8.8,3.16-3.59,5.66-7.76,7.51-12.5.64-1.7,1.04-3.45,1.2-5.26Z"/>
    <path class="cls-1" d="M435.42,594.97c.15-.15.22.03.23.53,0,.5-.45,1.21-1.37,2.11-.92.9-1.88,1.33-2.86,1.28-.21-.02-.4,0-.55.05s-.28.18-.39.37c-.11.18-.23.34-.38.48l-.03.03c-.61.64-1.32,1.07-2.13,1.27s-1.59.14-2.32-.19-1.26-.96-1.58-1.89c-.23-.84-.25-1.67-.06-2.5.17-.73.43-1.42.81-2.07.45-.86,1.03-1.47,1.75-1.82.72-.36,1.53-.55,2.44-.59,1.35-.07,2.2.57,2.55,1.9.21.77.27,1.55.16,2.34-.03.18-.06.36-.1.56-.04.13-.07.25-.1.38-.04.43.15.62.56.59,1.13-.2,2.26-1.14,3.38-2.84ZM427.45,599.97c.69-.32,1.18-.87,1.45-1.64-1.15-.73-1.92-1.79-2.31-3.16-.36.64-.58,1.4-.66,2.26s0,1.57.26,2.13c.25.56.67.7,1.27.42ZM429.43,596.8c.19-.27.29-.61.33-1.01s.02-.8-.06-1.19c-.07-.39-.18-.71-.31-.93-.13-.22-.27-.29-.42-.21-.26.23-.41.57-.44,1.01s.04.88.2,1.32c.16.44.39.78.7,1.01Z"/>
    <path class="cls-1" d="M451.01,595.59c.2-.05.36-.07.5-.05.14.02.21.06.23.15.01.08-.11.21-.37.39-.11.06-.23.14-.38.25-.52.37-1.12.78-1.8,1.23-.73.5-1.4.96-2,1.37-.6.42-1,.73-1.19.94-.21.3-.35.63-.4.99-.05.36-.09.74-.11,1.15-.03.32-.06.64-.1.97-.56,3.46-1.5,6.41-2.82,8.85-1.32,2.45-2.81,4.39-4.47,5.85-1.66,1.45-3.27,2.4-4.85,2.84-1.58.44-2.91.38-3.99-.18-1.08-.56-1.72-1.62-1.92-3.19-.11-1.27.15-2.57.78-3.89s1.46-2.59,2.5-3.8c1.04-1.21,2.14-2.32,3.3-3.33,1.16-1.01,2.24-1.85,3.22-2.51.27-.2.56-.39.86-.59,1.4-.97,2.82-1.9,4.26-2.8.92-.52,1.35-1.27,1.29-2.26v-.45c-.03-.28-.04-.59-.04-.91-.56.88-1.34,1.67-2.35,2.39-1.01.71-2.05,1.22-3.11,1.53-1.06.31-1.96.29-2.72-.05s-1.14-1.14-1.17-2.39c.03-.64.21-1.24.56-1.77.81-1.44,1.94-2.56,3.38-3.38.54-.29,1.19-.51,1.95-.64.76-.13,1.5-.12,2.21.03.71.15,1.28.5,1.71,1.03.11-.18.26-.29.47-.34.21-.05.4-.08.57-.08h.09c.8-.08,1.18.29,1.13,1.1-.02.59-.04,1.17-.06,1.74-.02.43-.04.85-.07,1.26.03.49.3.65.81.48.51-.17,1.14-.46,1.87-.87.84-.49,1.59-.84,2.26-1.05ZM442.82,602.81s0-.05.03-.07c.03-.13.05-.29.07-.48s.01-.36-.02-.48-.11-.15-.24-.06c-.9.62-1.84,1.31-2.83,2.07-.59.43-1.14.83-1.66,1.19-.72.54-1.57,1.24-2.53,2.09s-1.91,1.82-2.84,2.89-1.69,2.16-2.29,3.27c-.6,1.12-.9,2.19-.9,3.21.07,1.46.48,2.35,1.23,2.64.75.3,1.7.11,2.83-.55,1.14-.66,2.32-1.74,3.54-3.22s2.34-3.29,3.36-5.41c1.01-2.12,1.76-4.48,2.25-7.08ZM441.6,596.39c.9-.91,1.39-1.61,1.48-2.09-.21-.39-.55-.63-1-.71-.45-.08-.92-.08-1.38.01-.47.09-.86.24-1.19.43-.89.56-1.54,1.23-1.96,2.03-.42.8-.57,1.48-.46,2.04s.52.75,1.25.58c.73-.18,1.81-.94,3.26-2.29Z"/>
    <path class="cls-1" d="M473.58,595.84c.09-.17.22-.25.4-.26.18,0,.33.1.46.34.05.06,0,.22-.14.49-.14.27-.33.57-.56.91-.23.34-.46.64-.67.92-.21.28-.37.46-.45.55-.97,1.07-1.94,1.86-2.92,2.37s-2.04.61-3.18.32-2.42-1.1-3.84-2.44l-.64-.7c-.06-.07-.11-.13-.16-.19-.23-.26-.49-.3-.78-.1-.29.21-.59.43-.89.64-.26.2-.53.38-.81.54-.91.62-1.87,1.15-2.87,1.58-1.07.48-2.2.66-3.38.56-1.85-.21-2.8-1.24-2.87-3.06-.02-1.29.26-2.44.83-3.46.57-1.02,1.37-1.77,2.39-2.26,1.02-.48,2.2-.58,3.52-.29.15.03.34.07.59.13.15.05.33.09.54.13-.13-.3-.24-.57-.35-.81-.2-.39-.37-.75-.51-1.07-.89-1.83-1.61-3.91-2.17-6.26s-.83-4.76-.82-7.23.42-4.77,1.24-6.9c.81-2.13,2.17-3.88,4.06-5.26,1.2-.81,2.44-1.25,3.72-1.32s2.49.21,3.62.83,2.06,1.56,2.78,2.81c.92,1.72,1.48,3.53,1.7,5.43.39,3.08.33,5.95-.19,8.61s-1.43,5.19-2.74,7.56-2.97,4.68-5,6.91c-.2.21-.3.39-.31.51s.08.31.28.54c.41.54.86,1.06,1.34,1.57.48.51,1.02.93,1.62,1.27.84.36,1.74.37,2.7.01s1.84-.9,2.66-1.64,1.42-1.51,1.81-2.31ZM459.21,597.13c.25-.21.27-.46.06-.73-.13-.16-.25-.32-.38-.48-.35-.43-.75-.87-1.2-1.33-.45-.46-.92-.8-1.4-1.03-.48-.23-.97-.25-1.47-.06-.68.32-1.25.89-1.68,1.71s-.7,1.65-.78,2.51.09,1.51.5,1.96,1.11.49,2.09.13c1.55-.68,2.97-1.58,4.26-2.68ZM462.46,593.95c2.06-2.43,3.6-4.82,4.62-7.18s1.71-5.11,2.07-8.26c.11-.77.16-1.78.15-3.03s-.12-2.56-.34-3.92c-.21-1.36-.6-2.6-1.16-3.72s-1.34-1.92-2.34-2.42c-1-.49-2.28-.49-3.84,0-1.72,1.01-2.99,2.34-3.82,4.01-.83,1.67-1.3,3.52-1.42,5.56s.02,4.13.4,6.25c.38,2.13.92,4.15,1.61,6.06.69,1.91,1.43,3.57,2.22,4.99l.26.53c.23.58.58,1.1,1.03,1.57.07-.06.14-.11.21-.16.13-.08.24-.17.35-.28Z"/>
    <path class="cls-1" d="M490.66,595.27c-.24.54-.6,1.08-1.07,1.64-1.33,1.63-2.57,2.65-3.72,3.05s-2.24.39-3.26-.03-1.58-1.47-1.69-3.15c-.99,1.91-1.93,3.14-2.82,3.68-.89.54-1.81.74-2.75.62-1.12-.18-1.87-.6-2.25-1.27-.38-.67-.5-1.45-.37-2.34.13-.88.4-1.73.8-2.54.32-.61.76-1.17,1.33-1.68.56-.52,1.16-.92,1.81-1.22.75-.39,1.52-.58,2.3-.56s1.62.28,2.5.78c.02.02.03,0,.03-.06,0-.09.02-.2.07-.33.04-.13.12-.24.23-.31.29-.21.64-.32,1.05-.32s.72.2.94.6c.04.52-.02,1.18-.19,1.98-.32,1.76-.35,3-.08,3.71.27.72.79,1.05,1.58,1,.78-.05,1.67-.53,2.67-1.43.9-.84,1.84-2.33,2.83-4.48,0-.25.1-.43.31-.53s.45-.15.73-.15c.23,0,.44.06.62.18s.31.36.37.73c0,.13.01.33.04.61.03.28.04.53.04.74.03.32.06.54.09.66s.12.11.27-.01.39-.43.71-.91c.56-.86,1.24-1.59,2.04-2.18.75-.54,1.58-.76,2.48-.67.79.08,1.31.48,1.55,1.22.13.37.19.75.19,1.12s-.02.75-.07,1.13c-.04.39-.08.79-.12,1.2-.03.13-.04.25-.04.38-.15,1.4-.11,2.33.1,2.8.21.47.81.53,1.79.18.98-.36,1.74-1.38,2.3-3.08.3-.94.48-1.02.52-.23.04.78-.18,1.59-.67,2.43-.49.84-1.11,1.5-1.84,1.99-.97.67-1.86.95-2.69.83-.83-.12-1.39-.6-1.71-1.44-.31-.83-.4-1.89-.25-3.16v-.16c.05-.21.1-.53.15-.95.05-.42.09-.85.11-1.3s0-.82-.07-1.11-.19-.4-.39-.31c-.52.28-1.03.84-1.53,1.66-.5.83-.95,1.69-1.33,2.59s-.68,1.63-.87,2.19c-.07.18-.13.36-.19.56l-.26.76c-.3.73-.81,1.02-1.51.85-.39-.09-.61-.33-.64-.72-.03-.3-.05-.59-.07-.86v-.48c-.02-1.29-.05-2.58-.09-3.87ZM475.63,599.27c.46.32.98.28,1.55-.13s1.13-.99,1.67-1.74.99-1.5,1.35-2.26c.37-.75.57-1.31.62-1.67-1.1-.59-2.05-.69-2.83-.3-.78.39-1.4,1.02-1.87,1.89s-.74,1.72-.84,2.55.01,1.38.34,1.66Z"/>
    <path class="cls-1" d="M556.07,594.23c.21-.02.31.14.29.49-.02.35-.16.53-.41.55-.24.04-.47.16-.67.35-.2.2-.3.41-.3.64.06,2.08-.21,4.08-.8,6.01s-1.38,3.78-2.37,5.57c-1.95,3.71-4.33,7.01-7.12,9.9s-6.06,5.33-9.8,7.31c-2.06,1.07-4.18,1.88-6.36,2.42-2.18.54-4.45.74-6.79.6-1.95-.11-3.79-.63-5.51-1.57-2.04-1.21-3.39-2.79-4.04-4.73s-.53-4.01.37-6.2c.95-2.13,2.44-4.11,4.47-5.95s4.39-3.52,7.09-5.06c2.7-1.54,5.5-2.9,8.43-4.08,2.92-1.18,5.74-2.19,8.46-3.02,2.71-.84,5.13-1.47,7.24-1.9.58-.14,1.14-.26,1.7-.37.61-.11,1.2-.22,1.77-.35.5-.09.67-.36.53-.81-.5-2.06-1.49-3.83-2.97-5.32-1.07-1.05-2.24-1.95-3.49-2.67-1.25-.73-2.58-1.34-3.98-1.84-4.19-1.48-8.52-2.32-12.99-2.5-.3-.03-.62-.04-.94-.04-.36.03-.55.22-.57.59-.05.43-.07.86-.07,1.29-.02,3.37-.03,6.74-.03,10.12-.02,1.48-.03,2.98-.03,4.48v.92c-.11.97-.61,1.3-1.51,1.01-.35-.11-.54-.34-.56-.69-.04-.49-.05-.98-.03-1.48-.02-3.05-.03-6.08-.03-9.11v-4.94c0-.36,0-.74-.03-1.13,0-.41-.06-.68-.18-.81s-.37-.2-.75-.22h-.48c-.41-.03-.81-.06-1.2-.1-.34-.04-.58-.22-.7-.54-.11-.41,0-.75.32-1.01.43-.34.88-.67,1.35-1,.2-.13.37-.23.53-.32.36-.23.62-.43.78-.58.16-.15.26-.32.29-.51.03-.19.05-.49.05-.9-.03-.23-.04-.51-.04-.83.03-2.43.04-4.87.04-7.32v-4.19c0-.47.02-.93.06-1.38.04-.59.38-.87,1.03-.85.62-.02.98.25,1.07.81.04.57.06,1.14.06,1.71v4.38c0,1.79.01,3.56.04,5.32-.03.13-.04.24-.04.35-.04.5.04,1.07.23,1.71,1.42-.82,3.13-1.86,5.13-3.11,2.01-1.25,4.05-2.6,6.14-4.04,2.08-1.44,3.93-2.88,5.54-4.32s2.73-2.77,3.35-3.99c.66-1.4.36-2.54-.91-3.44-1.56-1.05-3.58-1.63-6.06-1.73s-5.1.17-7.85.79-5.31,1.49-7.68,2.61-4.23,2.37-5.6,3.76c-.43.46-.82,1-1.16,1.63-.35.63-.62,1.26-.81,1.88-.15.39-.43.62-.86.68s-.8-.06-1.1-.36c-.15-.21-.19-.45-.13-.7.2-.73.53-1.4,1.01-2.01,1.52-1.95,3.69-3.66,6.49-5.12,2.8-1.46,5.84-2.57,9.12-3.32,3.28-.75,6.39-1.06,9.33-.94,2.95.13,5.32.8,7.13,2.01,1.85,1.26,2.24,2.88,1.19,4.86-.54.99-1.33,1.99-2.37,3.01-1.04,1.02-2.15,1.99-3.32,2.9-1.17.91-2.21,1.7-3.12,2.37-1.65,1.2-3.34,2.36-5.08,3.46-1.74,1.11-3.49,2.19-5.26,3.25-.04.02-.08.05-.13.09-.88.5-1.74,1.02-2.58,1.55-.6.45-.78,1.05-.54,1.8.02.07.07.14.15.21.08.07.16.11.23.11.35.07.7.1,1.04.1h.09c4.65.13,9.17.92,13.58,2.39,2.44.77,4.72,1.9,6.83,3.38,1.27.9,2.35,1.93,3.24,3.09s1.55,2.5,1.98,4c.14.49.29.79.48.89.18.11.56.12,1.13.03ZM552.59,597.9c.09-.88.02-1.42-.19-1.61s-.77-.19-1.66.03c-2.1.43-4.47,1.03-7.11,1.81-2.64.78-5.36,1.72-8.15,2.84s-5.48,2.4-8.06,3.85c-2.58,1.45-4.85,3.06-6.82,4.83-1.97,1.77-3.44,3.72-4.43,5.84-.71,1.61-1.04,3.13-.97,4.56.06,1.43.43,2.67,1.1,3.71.67,1.04,1.55,1.77,2.64,2.2,1.4.54,2.85.83,4.35.88.11,0,.21,0,.29-.03.21-.03.43-.04.64-.04,2.83-.27,5.51-1.04,8.03-2.31,4.59-2.28,8.46-5.21,11.62-8.8,3.16-3.59,5.66-7.76,7.51-12.5.64-1.7,1.04-3.45,1.2-5.26Z"/>
    <path class="cls-1" d="M574.63,595.46c-.27.82-.8,1.76-1.6,2.82-.8,1.06-1.79,1.74-2.98,2.04s-2.22.26-3.09-.12c-.87-.38-1.35-1.42-1.44-3.1-.99,1.91-1.93,3.14-2.82,3.68-.89.54-1.82.74-2.79.62-1.09-.18-1.83-.6-2.22-1.27-.38-.67-.51-1.45-.39-2.34s.4-1.73.81-2.54c.32-.61.77-1.17,1.34-1.68.57-.52,1.17-.92,1.79-1.22.77-.39,1.55-.58,2.33-.56s1.62.28,2.5.78c.02.02.03,0,.03-.06,0-.09.02-.2.07-.33.04-.13.12-.24.23-.31.29-.21.64-.32,1.04-.32s.71.2.92.6c.04.52-.01,1.18-.16,1.98-.32,1.76-.32,3.02,0,3.79s.89,1.13,1.71,1.08,1.87-.86,3.17-2.42c1.3-1.56,1.81-1.93,1.54-1.11ZM560.21,599.59c.45.32.96.28,1.55-.13.58-.41,1.14-.99,1.68-1.74s.99-1.5,1.35-2.26c.37-.75.57-1.31.61-1.67-1.09-.59-2.03-.69-2.81-.3-.78.39-1.4,1.02-1.87,1.89s-.74,1.72-.83,2.55.02,1.38.32,1.66Z"/>
    <path class="cls-1" d="M587.18,595.84c.41-.25.68-.33.81-.22.13.11.05.37-.26.78-.88,1.05-1.97,2.04-3.27,2.95-1.3.91-2.6,1.57-3.89,1.97-.83.3-1.72.45-2.67.45-.66.02-1.33-.08-2.01-.29-1.46-.47-2.28-1.46-2.48-2.99-.11-.84-.05-1.68.16-2.52.25-.86.67-1.61,1.24-2.26.57-.64,1.28-1.14,2.12-1.48.79-.3,1.61-.42,2.46-.36.85.06,1.54.33,2.08.81.09.09.13.2.13.32s-.02.25-.07.38c-.13.39-.31.57-.54.55s-.51-.12-.83-.29c-.23-.13-.49-.24-.78-.35s-.57-.13-.86-.07c-.84.13-1.54.58-2.09,1.36-.46.64-.77,1.36-.93,2.15-.16.79-.1,1.5.18,2.12.34.64.9,1.01,1.68,1.1.78.09,1.66,0,2.64-.27.99-.27,1.97-.64,2.96-1.11.99-.47,1.86-.96,2.63-1.45s1.3-.93,1.59-1.3Z"/>
    <path class="cls-1" d="M594.66,597.04c-.3.62-.82,1.32-1.55,2.08s-1.55,1.25-2.47,1.45c-.92.21-1.8-.11-2.64-.95-.32-.37-.56-.8-.71-1.28-.15-.48-.21-.96-.17-1.43v-.48c0-.5.02-1.07.07-1.73.04-.65.14-1.25.29-1.77.15-.53.39-.84.71-.95.93-.23,1.43.09,1.51.97,0,.28,0,.57-.03.85-.02.15-.03.28-.03.41l-.06,1.23c0,.32-.01.64-.04.97-.02,1.42.3,2.26.95,2.53s1.4-.02,2.24-.86,1.39-1.54,1.65-2.09.45-.67.56-.35.02.8-.28,1.42ZM589.51,588.95c-.13.11-.28.18-.46.21s-.34.01-.48-.04c-.11-.09-.18-.2-.21-.34-.03-.14-.04-.31-.04-.5,0-.04,0-.08.03-.12.02-.18.06-.35.13-.53.2-.47.6-.68,1.22-.64.21.03.38.12.51.26.12.15.15.32.08.51-.15.48-.41.88-.78,1.2Z"/>
    <path class="cls-1" d="M609.4,595.62c.21.02.18.32-.11.89-.29.57-.76,1.23-1.42,1.97-.66.74-1.4,1.38-2.21,1.92-.82.54-1.63.78-2.44.73-.61-.06-1.05-.24-1.34-.54-.29-.3-.49-.64-.59-1-.11-.37-.18-.69-.21-.96-.02-.2-.04-.34-.07-.44s-.09-.1-.18-.01c-.62,1.44-1.71,2.15-3.25,2.15-.86,0-1.56-.38-2.09-1.14s-.88-1.72-1.02-2.86c-.14-1.15-.03-2.31.33-3.49.09-.39.33-.66.72-.81.27-.11.56-.1.85.03s.45.32.47.57c0,.26-.02.52-.06.78-.05.2-.08.38-.1.56-.04.7-.03,1.47.04,2.31s.29,1.56.67,2.15c.37.48.78.54,1.23.18s.84-.91,1.19-1.66c.26-.6.47-1.19.62-1.78.15-.59.25-1.05.29-1.37.04-.14.06-.22.06-.26.07-.25.14-.5.21-.75.11-.36.21-.71.32-1.05.19-.66.65-.94,1.41-.83.46.04.71.26.75.67.04.56.05,1.11.03,1.67-.02.59-.05,1.16-.09,1.71-.05.81-.08,1.62-.1,2.42-.02,1.16.21,1.84.7,2.03.48.19,1.07.07,1.77-.37.7-.44,1.37-1.04,2.01-1.79.06-.07.13-.16.22-.26.13-.17.28-.35.47-.56s.36-.38.53-.53.31-.24.42-.26Z"/>
  </g>
  <g>
    <path class="cls-1" d="M76.98,495.03v15.8H5.57v-99.04l-5.57-12.85h5.57s70.02,0,70.02,0v15.8l-7.36-8.76H25.53v43.25h42.11v5.43H25.53v49.14h44.1l7.36-8.77Z"/>
    <path class="cls-1" d="M211.96,454.89c0,.11,0,.21,0,.32,0,7.89-1.42,15.24-4.24,22.06-2.83,6.82-6.79,12.71-11.88,17.66-5.09,4.96-11.19,8.84-18.29,11.67-7.1,2.82-14.92,4.24-23.45,4.24h-43.42v-99.04l-5.57-12.85h5.57s43.42,0,43.42,0c8.54,0,16.35,1.42,23.45,4.24,7.1,2.82,13.19,6.71,18.29,11.67,5.09,4.96,9.05,10.84,11.88,17.66,2.83,6.82,4.24,14.17,4.24,22.06,0,.11,0,.21,0,.32ZM188.51,454.89c0-27.01-11.14-50.52-36.14-50.52h-21.73v101.03h21.73c25,0,36.14-23.5,36.14-50.52Z"/>
    <path class="cls-1" d="M317.62,495.03v15.8h-71.42v-99.04l-5.57-12.85h5.57s70.02,0,70.02,0v15.8l-7.36-8.76h-42.7v43.25h42.11v5.43h-42.11v49.14h44.1l7.36-8.77Z"/>
    <path class="cls-1" d="M446.53,398.94v111.89h-6.13l-80.89-82.69v82.69h-7.1v-100.69l-8.57-11.2h15.03l80.57,82.42v-82.42h7.1Z"/>
    <path class="cls-1" d="M567.69,398.94v15.8l-8.55-10.19h-27.87v106.28h-19.96v-106.28h-27.87l-8.55,10.19v-15.8h92.81Z"/>
    <path class="cls-1" d="M675.67,510.83h-22.69l-9.08-20.19-6.78-15.07h-44.5l-14.52,35.25h-6.12l38.53-94.4-7.87-17.49h15.01s7.71,0,7.71,0l50.3,111.89ZM634.94,470.71l-16.27-36.17-4.76-10.59-19.27,46.76h40.3Z"/>
    <path class="cls-1" d="M776.5,503.8v7.03h-71.42v-99.04l-5.57-12.85h25.53v104.86h51.46Z"/>
    <path class="cls-1" d="M876.65,503.8v7.03h-71.42v-99.04l-5.57-12.85h25.53v104.86h51.46Z"/>
  </g>
  <g>
    <path class="cls-2" d="M407.07,152.42c-3.27-1.44-6.61-2.74-10.02-3.84-3.49-1.13-7.09-1.93-10.67-2.69-3.52-.74-7.01-1.63-10.61-1.83-.22,0-.55-.08-.77-.02,2.12-.56,4.24-1.13,6.36-1.69,3.14-.83,6.29-1.73,9.16-3.31,2.94-1.62,5.72-3.48,8.31-5.62,1.07-.89,2.11-1.81,3.11-2.77,7.13-6.83,12.57-15.2,17.93-23.49,6.25-9.65,12.01-20.57,21.11-27.87,5.13-4.12,11.15-7,17.37-9.13,6.22-2.13,12.66-3.53,19.09-4.92-.5.03-1.01.06-1.51.08-7.21.33-14.45,0-21.6-.99-6.78-.93-13.93-2.15-20.19-4.94-11.13-4.96-20.8-12.65-30.12-20.37-9.34-7.74-18.49-15.89-28.94-22.14-21.41-12.8-50.3-14.41-68.08,5.45-13.3,14.85-14.58,36.53-12.83,55.43,1.42,15.42,5.04,30.56,9.27,45.43,15.99,56.2,34.72,113.14,69.25,161,8.01,11.1,16.45,22.02,26.45,31.43,9.27,8.72,22.68,19.65,35.62,21.71-2.88-8.28-3.48-17.2-3.4-26.12.15-17.48,7.17-32.43,11.64-48.96,6.33-23.39,5.25-48.1-2.59-70.98-3.65-10.65-9.47-21.15-17.87-29.04-4.74-4.45-9.97-7.37-15.46-9.79ZM307.67,84.34c-.12-.81-.23-1.61-.33-2.41-1.95-15.66-3.03-40.62,9.09-52.58,11.75-11.59,29.44-6.84,42.95-1.67,10.14,3.88,19.68,9.32,28.16,16.09,15.25,12.18,29.5,23.04,49.64,25.47-1.28.67-2.25,1.61-3.4,2.47-1.23.92-2.42,1.88-3.58,2.88-2.39,2.07-4.62,4.32-6.67,6.73-11.45,13.43-19.25,29.75-31.9,42.2-16.52,16.26-42.74,18.66-61.42,4.58-13.62-10.26-20.11-27.33-22.54-43.77ZM427.76,267.9c-4.13,14.22-8.82,28.3-9.18,43.14-.05,1.87-.03,3.74.04,5.6.04.93.09,1.87.15,2.8.03.48.07.97.11,1.45.02.2-.03,1.1.11,1.23-2.54-2.25-5.17-4.42-7.65-6.72-1.68-1.56-3.53-3.01-5.12-4.67-21.17-22.22-39.04-47.96-52.81-75.56-15.8-31.66-26.84-65.95-33.7-100.63,1.64,1.39,3.43,2.83,5.39,3.99,10.66,6.29,22.32,11.15,34.4,13.86,12.69,2.85,25.73,4.5,38.07,8.72,16.21,5.54,27.06,15.76,32.3,32.2,4.41,13.82,4.86,28.75,4.12,43.13-.55,10.78-3.26,21.16-6.26,31.46Z"/>
    <path class="cls-3" d="M515.54,3.49c-11.47,3.39-22.52,7.57-33.66,11.96-9.72,3.83-19.47,7.67-29.61,10.17-10.42,2.57-21.19,3.71-31.92,3.36,6.9,4.94,13.75,11.35,22,13.8,14.17,4.22,29.26,5.54,44.05,7.45,4.26.61,9.06,2.05,12.26,5.1,3.32,3.17,6.25,6.94,8.55,10.92-2.55.66-5.06,1.46-7.51,2.39-4.53,1.72-8.99,3.86-13.31,6.07-4.27,2.18-8.41,4.63-12.38,7.32-7.91,5.35-15.18,11.66-21.62,18.71-4.39,4.8-8.56,9.94-12.18,15.34-4.33,6.46-7.22,13.44-13.77,18.08-5.24,3.72-11.61,5.84-18.03,6.01,9.52-.25,17.3,4.58,24.27,10.45,6.72,5.67,12.77,12.29,17.95,19.39,8.16,11.18,14.06,23.87,17.67,37.22,3.56,13.19,8.8,26.01,14.19,38.6,5.35,12.5,14.7,21.92,26.67,32.99,1.49-11.94.85-24.14,6.56-35.12,1.85-3.56,4.17-6.85,6.47-10.12,3.95-5.6,7.88-11.12,11.37-17.02,28.45-48.01,44.35-99.93,49.24-155.3,2.86-32.38-14.55-64.08-50.63-61.06-5.66.47-11.2,1.68-16.63,3.29ZM553.52,118.75c-.18,2.4-.39,4.8-.63,7.19-1.34,13.12-3.71,26.14-7.24,38.86-3.51,12.63-8.17,24.93-13.99,36.68-4.12,8.31-8.86,16.31-13.66,24.23-4.48,7.4-10.16,14.57-13.38,22.62-1.68,4.19-2.55,8.82-1.68,13.25-.16-.81-1.26-1.52-1.82-2.06-.82-.77-1.59-1.59-2.33-2.44-1.6-1.86-3.19-3.95-4.15-6.22-2.03-4.78-4.58-9.36-6.59-14.17-2.11-5.05-3.99-10.2-5.74-15.39-3.39-10.07-6.35-20.28-9.92-30.29-3.47-9.75-7.54-19.35-13.14-28.09-2.81-4.39-6-8.54-9.59-12.33-1.86-1.96-3.81-3.82-5.86-5.58-.54-.46-6.55-5.04-6.56-5.03,15.14-28.95,35.48-49.13,66.1-60.32,33.81-12.36,52.69,5.21,50.18,39.1ZM563.6,113.62c-.02-1.21-.07-2.42-.17-3.62-.98-12.18-5.26-24.64-14.08-33.45-1.8-1.79-3.78-3.4-5.89-4.8-2.77-1.83-5.78-3.27-8.93-4.31-1.57-.52-3.18-.95-4.8-1.29-4.15-.58-8.33-.84-12.51-.87-.47.02-1.06.16-1.34-.34-.62-1.12-1.49-2.06-2.22-3.1-1.87-2.52-3.64-5.13-5.47-7.68-1.69-2.35-3.38-4.77-5.64-6.62-2.44-2.01-5.6-3.26-8.57-4.24-6.45-2.15-13.28-2.75-20.02-3.31-.44-.04-.88-.07-1.32-.11-10.22-.86-20.56-2.1-30.2-5.8-.77-.3-1.53-.6-2.28-.93,1.96.84,5.54.35,7.65.3,21.58-.53,41.92-10.08,61.62-17.95,17.69-7.06,39.18-12.33,54.31,2.86,2.02,2.03,3.78,4.32,5.23,6.79,5.21,8.76,7.4,19.01,7.79,29.11.47,12.15-1.54,24.72-4.09,36.56-1.05,4.88-2.1,9.76-3.3,14.61-1.79,7.22-4.1,14.09-6.69,21.06.48-1.96.36-3.98.62-5.95.29-2.27.35-4.63.32-6.92Z"/>
  </g>
</svg>